<?xml version="1.0" encoding="UTF-8" standalone="no"?>
<!-- Created with Inkscape (http://www.inkscape.org/) -->

<svg
   xmlns:dc="http://purl.org/dc/elements/1.1/"
   xmlns:cc="http://creativecommons.org/ns#"
   xmlns:rdf="http://www.w3.org/1999/02/22-rdf-syntax-ns#"
   xmlns:svg="http://www.w3.org/2000/svg"
   xmlns="http://www.w3.org/2000/svg"
   xmlns:sodipodi="http://sodipodi.sourceforge.net/DTD/sodipodi-0.dtd"
   xmlns:inkscape="http://www.inkscape.org/namespaces/inkscape"
   width="210mm"
   height="297mm"
   viewBox="0 0 210 297"
   version="1.1"
   id="svg3786"
   inkscape:version="0.92.3 (2405546, 2018-03-11)"
   sodipodi:docname="crownroads.svg">
  <defs
     id="defs3780" />
  <sodipodi:namedview
     id="base"
     pagecolor="#ffffff"
     bordercolor="#666666"
     borderopacity="1.0"
     inkscape:pageopacity="0.0"
     inkscape:pageshadow="2"
     inkscape:zoom="0.7"
     inkscape:cx="313.71898"
     inkscape:cy="573.3329"
     inkscape:document-units="mm"
     inkscape:current-layer="layer1"
     showgrid="false"
     inkscape:window-width="1440"
     inkscape:window-height="837"
     inkscape:window-x="-8"
     inkscape:window-y="-8"
     inkscape:window-maximized="1" />
  <metadata
     id="metadata3783">
    <rdf:RDF>
      <cc:Work
         rdf:about="">
        <dc:format>image/svg+xml</dc:format>
        <dc:type
           rdf:resource="http://purl.org/dc/dcmitype/StillImage" />
        <dc:title></dc:title>
      </cc:Work>
    </rdf:RDF>
  </metadata>
  <g
     inkscape:label="Capa 1"
     inkscape:groupmode="layer"
     id="layer1">
    <g
       id="g3816"
       transform="matrix(0.58029675,0,0,0.58029675,215.78122,81.814881)">
      <path
         style="fill:#5d5d5d;stroke-width:0.35277781"
         d="m -199.56708,283.91353 c 0.33955,-0.0888 0.89517,-0.0888 1.23472,0 0.33955,0.0887 0.0617,0.16132 -0.61736,0.16132 -0.6791,0 -0.95691,-0.0726 -0.61736,-0.16132 z m 15.52222,0 c 0.33955,-0.0888 0.89518,-0.0888 1.23473,0 0.33955,0.0887 0.0617,0.16132 -0.61736,0.16132 -0.6791,0 -0.95691,-0.0726 -0.61737,-0.16132 z m -20.96823,-0.35059 c 0.25466,-0.10192 0.55894,-0.0894 0.67616,0.0279 0.11723,0.11723 -0.0911,0.20062 -0.46302,0.18531 -0.41097,-0.0169 -0.49456,-0.10054 -0.21314,-0.21315 z m 27.16389,0 c 0.25466,-0.10192 0.55894,-0.0894 0.67616,0.0279 0.11723,0.11723 -0.0911,0.20062 -0.46302,0.18531 -0.41097,-0.0169 -0.49456,-0.10054 -0.21314,-0.21315 z m -24.01093,-2.4621 c 0.24253,-0.0979 0.63941,-0.0979 0.88194,0 0.24253,0.0979 0.0441,0.17794 -0.44097,0.17794 -0.48507,0 -0.68351,-0.0801 -0.44097,-0.17794 z m 20.46111,0 c 0.24253,-0.0979 0.63941,-0.0979 0.88194,0 0.24254,0.0979 0.0441,0.17794 -0.44097,0.17794 -0.48507,0 -0.68351,-0.0801 -0.44097,-0.17794 z m -25.02518,-0.36013 c 0.25466,-0.1019 0.55894,-0.0894 0.67616,0.0278 0.11723,0.11722 -0.0911,0.2006 -0.46302,0.18528 -0.41097,-0.0169 -0.49456,-0.10052 -0.21314,-0.21313 z m 29.98612,0 c 0.25466,-0.1019 0.55893,-0.0894 0.67615,0.0278 0.11723,0.11722 -0.0911,0.2006 -0.46302,0.18528 -0.41096,-0.0169 -0.49456,-0.10052 -0.21313,-0.21313 z m -128.38998,-41.2986 c -0.43881,-0.55952 -0.42633,-0.572 0.1332,-0.13319 0.33954,0.26629 0.61736,0.5441 0.61736,0.61736 0,0.29035 -0.2897,0.10347 -0.75056,-0.48417 z m 226.528352,0.48417 c 0,-0.0733 0.277812,-0.35107 0.617361,-0.61736 0.559527,-0.43881 0.572004,-0.42633 0.133195,0.13319 -0.460859,0.58764 -0.750556,0.77452 -0.750556,0.48417 z m -231.632152,-1.36611 -0.67203,-0.79375 0.79375,0.67204 c 0.74592,0.63155 0.95435,0.91546 0.67204,0.91546 -0.067,0 -0.42414,-0.35719 -0.79376,-0.79375 z m 236.923819,0.30778 c 0,-0.0733 0.277812,-0.35107 0.617361,-0.61737 0.559527,-0.43881 0.572004,-0.42633 0.133195,0.1332 -0.460859,0.58764 -0.750556,0.77452 -0.750556,0.48417 z m -234.642239,-1.89528 c -0.43881,-0.55953 -0.42633,-0.57201 0.13319,-0.1332 0.33955,0.2663 0.61736,0.54411 0.61736,0.61736 0,0.29035 -0.28969,0.10348 -0.75055,-0.48416 z m 232.172794,0.48416 c 0,-0.0733 0.277813,-0.35106 0.617361,-0.61736 0.559527,-0.43881 0.572005,-0.42633 0.133195,0.1332 -0.460858,0.58764 -0.750556,0.77451 -0.750556,0.48416 z m -241.133094,-5.24666 -2.45998,-2.55764 2.55764,2.45998 c 1.4067,1.35299 2.55764,2.50393 2.55764,2.55764 0,0.25877 -0.37046,-0.0845 -2.6553,-2.45998 z m 250.481706,0.0882 c 1.347788,-1.35819 2.529897,-2.46944 2.62691,-2.46944 0.09701,0 -0.926345,1.11125 -2.274132,2.46944 -1.347788,1.3582 -2.529897,2.46945 -2.626911,2.46945 -0.09701,0 0.926345,-1.11125 2.274133,-2.46945 z m -248.538936,-2.02847 -3.34442,-3.43958 3.43959,3.34442 c 3.19465,3.10626 3.60006,3.53474 3.34442,3.53474 -0.0523,0 -1.60015,-1.54781 -3.43959,-3.43958 z m 246.598658,0.0882 c 1.835598,-1.84326 3.416829,-3.35139 3.513843,-3.35139 0.09701,0 -1.325467,1.50813 -3.161065,3.35139 -1.835598,1.84327 -3.41683,3.35139 -3.513844,3.35139 -0.09701,0 1.325468,-1.50812 3.161066,-3.35139 z m -254.915478,-4.85069 -0.67204,-0.79375 0.79375,0.67204 c 0.74593,0.63155 0.95435,0.91546 0.67204,0.91546 -0.067,0 -0.42413,-0.35719 -0.79375,-0.79375 z m 262.67659,0.66055 c 0,-0.0732 0.277812,-0.35106 0.617361,-0.61736 0.559527,-0.43881 0.572004,-0.42633 0.133195,0.1332 -0.460859,0.58764 -0.750556,0.77451 -0.750556,0.48416 z m -261.10058,-2.95361 c -0.43881,-0.55952 -0.42633,-0.572 0.1332,-0.13319 0.33955,0.26629 0.61736,0.54411 0.61736,0.61736 0,0.29035 -0.2897,0.10347 -0.75056,-0.48417 z m 259.689468,0.48417 c 0,-0.0733 0.277813,-0.35107 0.617362,-0.61736 0.559526,-0.43881 0.572004,-0.42633 0.133194,0.13319 -0.460858,0.58764 -0.750556,0.77452 -0.750556,0.48417 z m -262.158908,-3.30639 c -0.43881,-0.55953 -0.42633,-0.572 0.13319,-0.13319 0.33955,0.26629 0.61736,0.5441 0.61736,0.61736 0,0.29035 -0.28969,0.10347 -0.75055,-0.48417 z m 264.628353,0.48417 c 0,-0.0733 0.277813,-0.35107 0.617361,-0.61736 0.559527,-0.43881 0.572005,-0.42634 0.133195,0.13319 -0.460858,0.58764 -0.750556,0.77452 -0.750556,0.48417 z M -365.08021,122.0259 c 0.0169,-0.41097 0.10052,-0.49456 0.21313,-0.21314 0.10191,0.25466 0.0894,0.55894 -0.0279,0.67616 -0.11722,0.11723 -0.2006,-0.0911 -0.18528,-0.46302 z m 347.486136,0 c 0.01693,-0.41097 0.10052,-0.49456 0.213134,-0.21314 0.101907,0.25466 0.08938,0.55894 -0.02783,0.67616 -0.117225,0.11723 -0.200604,-0.0911 -0.185286,-0.46302 z m -350.308366,-1.41111 c 0.0169,-0.41097 0.10052,-0.49456 0.21314,-0.21314 0.10191,0.25466 0.0894,0.55894 -0.0279,0.67616 -0.11723,0.11723 -0.2006,-0.0911 -0.18529,-0.46302 z m 353.130571,0 c 0.01693,-0.41097 0.100541,-0.49456 0.213148,-0.21314 0.101918,0.25466 0.08939,0.55894 -0.02787,0.67616 -0.117228,0.11723 -0.200625,-0.0911 -0.185315,-0.46302 z M -365.40514,117.2928 c 0,-0.48507 0.0801,-0.68351 0.17794,-0.44097 0.0979,0.24253 0.0979,0.6394 0,0.88194 -0.0979,0.24253 -0.17794,0.0441 -0.17794,-0.44097 z m 348.191692,0 c 0,-0.48507 0.08007,-0.68351 0.177938,-0.44097 0.09786,0.24253 0.09786,0.6394 0,0.88194 -0.09786,0.24253 -0.177938,0.0441 -0.177938,-0.44097 z m -350.987772,-2.46945 c 0,-0.67909 0.0726,-0.95691 0.16133,-0.61736 0.0887,0.33955 0.0887,0.89518 0,1.23472 -0.0887,0.33955 -0.16133,0.0617 -0.16133,-0.61736 z m 353.836139,0 c 0,-0.67909 0.0726,-0.95691 0.161325,-0.61736 0.08876,0.33955 0.08876,0.89518 0,1.23472 -0.08872,0.33955 -0.161325,0.0617 -0.161325,-0.61736 z M -368.20122,99.301129 c 0,-0.679097 0.0726,-0.956909 0.16133,-0.617361 0.0887,0.339549 0.0887,0.895174 0,1.234723 -0.0887,0.339549 -0.16133,0.06174 -0.16133,-0.617362 z m 353.836139,0 c 0,-0.679097 0.0726,-0.956909 0.161325,-0.617361 0.08876,0.339549 0.08876,0.895174 0,1.234723 -0.08872,0.339549 -0.161325,0.06174 -0.161325,-0.617362 z M -365.40514,96.831685 c 0,-0.48507 0.0801,-0.683507 0.17794,-0.440973 0.0979,0.242535 0.0979,0.63941 0,0.881945 -0.0979,0.242535 -0.17794,0.0441 -0.17794,-0.440972 z m 348.191692,0 c 0,-0.48507 0.08007,-0.683507 0.177938,-0.440973 0.09786,0.242535 0.09786,0.63941 0,0.881945 -0.09786,0.242535 -0.177938,0.0441 -0.177938,-0.440972 z M -367.90244,93.450899 c 0.0169,-0.410969 0.10052,-0.49456 0.21314,-0.213138 0.10191,0.25466 0.0894,0.558934 -0.0279,0.676158 -0.11723,0.117225 -0.2006,-0.09114 -0.18529,-0.46302 z m 353.130571,0 c 0.01693,-0.410969 0.100541,-0.49456 0.213148,-0.213138 0.101918,0.25466 0.08939,0.558934 -0.02787,0.676158 -0.117228,0.117225 -0.200625,-0.09114 -0.185315,-0.46302 z M -365.08021,92.039787 c 0.0169,-0.410968 0.10052,-0.494559 0.21313,-0.213137 0.10191,0.254659 0.0894,0.558934 -0.0279,0.676158 -0.11722,0.117225 -0.2006,-0.09114 -0.18528,-0.463021 z m 347.486136,0 c 0.01693,-0.410968 0.10052,-0.494559 0.213134,-0.213137 0.101907,0.254659 0.08938,0.558934 -0.02783,0.676158 -0.117225,0.117225 -0.200604,-0.09114 -0.185286,-0.463021 z M -324.18584,-5.9598514 c 0,-0.073254 0.27781,-0.3510668 0.61736,-0.6173612 0.55953,-0.4388097 0.57201,-0.4263319 0.1332,0.1331948 -0.46086,0.5876397 -0.75056,0.7745166 -0.75056,0.4841664 z m 265.243911,-0.4841664 c -0.43881,-0.5595267 -0.426332,-0.5720045 0.133194,-0.1331948 0.58764,0.4608584 0.774517,0.750556 0.484167,0.750556 -0.07326,0 -0.351067,-0.2778125 -0.617361,-0.6173612 z m -262.774461,-2.338056 c 0,-0.073254 0.27781,-0.3510669 0.61736,-0.6173612 0.55952,-0.4388097 0.572,-0.426332 0.13319,0.1331948 -0.46086,0.5876396 -0.75055,0.7745166 -0.75055,0.4841664 z m 260.305016,-0.4841664 c -0.43881,-0.5595268 -0.426332,-0.5720045 0.133195,-0.1331948 0.587639,0.4608583 0.774516,0.7505559 0.484166,0.7505559 -0.07325,0 -0.351067,-0.2778125 -0.617361,-0.6173611 z M -323.12751,-11.251518 c 0,-0.07325 0.27782,-0.351067 0.61737,-0.617362 0.55952,-0.438809 0.572,-0.426332 0.13319,0.133195 -0.46086,0.58764 -0.75056,0.774517 -0.75056,0.484167 z m 263.127247,-0.484167 c -0.43881,-0.559527 -0.426332,-0.572004 0.133195,-0.133195 0.58764,0.460859 0.774517,0.750556 0.484166,0.750556 -0.07325,0 -0.351067,-0.277812 -0.617361,-0.617361 z m -254.660577,-4.497917 c 1.8356,-1.843264 3.41683,-3.351389 3.51385,-3.351389 0.097,0 -1.32547,1.508125 -3.16107,3.351389 -1.8356,1.843264 -3.41683,3.351389 -3.51384,3.351389 -0.097,0 1.32546,-1.508125 3.16106,-3.351389 z m 246.584721,-0.08819 -3.344422,-3.439584 3.439583,3.344422 c 3.19465,3.106265 3.600059,3.534745 3.344422,3.534745 -0.05234,0 -1.600151,-1.547812 -3.439583,-3.439583 z M -316.60112,-18.17388 c 1.34779,-1.358194 2.5299,-2.469444 2.62691,-2.469444 0.097,0 -0.92634,1.11125 -2.27413,2.469444 -1.34779,1.358195 -2.52989,2.469445 -2.62691,2.469445 -0.097,0 0.92635,-1.11125 2.27413,-2.469445 z m 250.462784,-0.08819 -2.459983,-2.557639 2.557639,2.459983 c 1.406702,1.352991 2.557639,2.503928 2.557639,2.557639 0,0.258766 -0.370462,-0.08445 -2.655295,-2.459983 z m -241.819724,-4.278334 c 0,-0.07325 0.27781,-0.351067 0.61736,-0.617361 0.55953,-0.43881 0.57201,-0.426332 0.1332,0.133194 -0.46086,0.58764 -0.75056,0.774517 -0.75056,0.484167 z m 232.788352,-0.484167 c -0.43881,-0.559526 -0.426332,-0.572004 0.133194,-0.133194 0.339549,0.266294 0.617361,0.544106 0.617361,0.617361 0,0.29035 -0.289697,0.103473 -0.750555,-0.484167 z M -310.4275,-23.951519 c 0,-0.07325 0.27781,-0.351067 0.61736,-0.617362 0.55952,-0.438809 0.572,-0.426332 0.13319,0.133195 -0.46086,0.58764 -0.75055,0.774517 -0.75055,0.484167 z m 237.727236,-0.484167 c -0.43881,-0.559527 -0.426332,-0.572004 0.133195,-0.133195 0.58764,0.460859 0.774517,0.750556 0.484166,0.750556 -0.07325,0 -0.351067,-0.277812 -0.617361,-0.617361 z m -232.435576,-0.574167 c 0,-0.07325 0.27782,-0.351067 0.61736,-0.617361 0.55953,-0.43881 0.57201,-0.426332 0.1332,0.133195 -0.46086,0.587639 -0.75056,0.774516 -0.75056,0.484166 z m 227.143909,-0.484166 c -0.43881,-0.559527 -0.426332,-0.572005 0.133195,-0.133195 0.339549,0.266294 0.617361,0.544107 0.617361,0.617361 0,0.29035 -0.289698,0.103473 -0.750556,-0.484166 z M -206.4242,-66.745427 c 0.25466,-0.101907 0.55894,-0.08937 0.67616,0.02785 0.11723,0.117225 -0.0911,0.200604 -0.46302,0.185286 -0.41097,-0.01693 -0.49456,-0.100521 -0.21314,-0.213136 z m 29.98612,0 c 0.25466,-0.101907 0.55893,-0.08937 0.67615,0.02785 0.11723,0.117225 -0.0911,0.200604 -0.46302,0.185286 -0.41096,-0.01693 -0.49456,-0.100521 -0.21313,-0.213136 z m -25.42205,-0.345428 c 0.24253,-0.09786 0.63941,-0.09786 0.88194,0 0.24253,0.09786 0.0441,0.177936 -0.44097,0.177936 -0.48507,0 -0.68351,-0.08007 -0.44097,-0.177936 z m 20.46111,0 c 0.24253,-0.09786 0.63941,-0.09786 0.88194,0 0.24254,0.09786 0.0441,0.177936 -0.44097,0.177936 -0.48507,0 -0.68351,-0.08007 -0.44097,-0.177936 z m -23.61407,-2.476794 c 0.25466,-0.101907 0.55894,-0.08937 0.67616,0.02785 0.11723,0.117225 -0.0911,0.200603 -0.46302,0.185285 -0.41097,-0.01693 -0.49456,-0.10052 -0.21314,-0.213136 z m 27.16389,0 c 0.25466,-0.101907 0.55894,-0.08937 0.67616,0.02785 0.11723,0.117225 -0.0911,0.200603 -0.46302,0.185285 -0.41097,-0.01693 -0.49456,-0.10052 -0.21314,-0.213136 z m -21.71788,-0.354969 c 0.33955,-0.08873 0.89517,-0.08873 1.23472,0 0.33955,0.08873 0.0617,0.161333 -0.61736,0.161333 -0.6791,0 -0.95691,-0.0726 -0.61736,-0.161333 z m 15.52222,0 c 0.33955,-0.08873 0.89518,-0.08873 1.23473,0 0.33955,0.08873 0.0617,0.161333 -0.61736,0.161333 -0.6791,0 -0.95691,-0.0726 -0.61737,-0.161333 z"
         id="path3820"
         inkscape:connector-curvature="0" />
      <path
         style="fill:#010101;stroke-width:0.35277781"
         d="m -202.30111,283.79246 c -31.34486,-2.15657 -61.41104,-12.30683 -86.92146,-29.34446 -10.40993,-6.95247 -17.72297,-12.98414 -27.04532,-22.30648 -11.80332,-11.80332 -20.47516,-23.06594 -28.41443,-36.90346 -29.09249,-50.70592 -31.33082,-112.448611 -5.97892,-164.924627 6.64408,-13.75263 14.12311,-25.3179919 24.39747,-37.7275897 3.76576,-4.5483643 16.0504,-16.8330013 20.59877,-20.5987633 29.30813,-24.265287 61.61372,-37.699296 99.48334,-41.369319 5.91528,-0.573263 24.07083,-0.573263 29.98611,0 37.86962,3.670023 70.1752,17.104032 99.483342,41.369319 4.548364,3.765762 16.833001,16.050399 20.598763,20.5987633 24.265285,29.3081377 37.699297,61.6137227 41.369304,99.4833407 0.573264,5.915283 0.573264,24.070826 0,29.986116 -3.670007,37.86962 -17.104019,70.1752 -41.369304,99.48334 -3.765762,4.54836 -16.050399,16.833 -20.598763,20.59876 -29.138302,24.12467 -61.720662,37.72766 -98.954172,41.3129 -5.28818,0.5092 -21.23011,0.71398 -26.63473,0.34216 z m 24.69445,-2.82313 c 22.49982,-1.90206 43.18374,-7.56317 63.14723,-17.28314 34.448823,-16.77272 63.122053,-45.44595 79.894768,-79.89478 9.719977,-19.96348 15.381084,-40.6474 17.283142,-63.14722 0.461437,-5.45847 0.461437,-21.70543 0,-27.163894 -1.902058,-22.49982 -7.563165,-43.18374 -17.283142,-63.147228 -16.772715,-34.4488263 -45.445945,-63.122056 -79.894768,-79.894771 -19.96349,-9.719979 -40.64741,-15.381084 -63.14723,-17.283141 -5.45846,-0.46144 -21.70543,-0.46144 -27.16389,0 -22.49982,1.902057 -43.18374,7.563162 -63.14723,17.283141 -34.44883,16.772715 -63.12206,45.4459447 -79.89477,79.894771 -9.71998,19.963488 -15.38108,40.647408 -17.28314,63.147228 -0.46144,5.458464 -0.46144,21.705424 0,27.163894 1.25674,14.86621 3.97592,28.11962 8.61002,41.96568 8.58441,25.64898 22.75432,48.50816 41.9978,67.75164 29.31323,29.31322 67.4503,46.98201 109.18815,50.58651 4.89885,0.42307 22.77782,0.43682 27.69306,0.0213 z"
         id="path3818"
         inkscape:connector-curvature="0" />
    </g>
  </g>
</svg>
