<?xml version="1.0" encoding="UTF-8" standalone="no"?>
<!-- Created with Inkscape (http://www.inkscape.org/) -->

<svg
   xmlns:dc="http://purl.org/dc/elements/1.1/"
   xmlns:cc="http://creativecommons.org/ns#"
   xmlns:rdf="http://www.w3.org/1999/02/22-rdf-syntax-ns#"
   xmlns:svg="http://www.w3.org/2000/svg"
   xmlns="http://www.w3.org/2000/svg"
   xmlns:sodipodi="http://sodipodi.sourceforge.net/DTD/sodipodi-0.dtd"
   xmlns:inkscape="http://www.inkscape.org/namespaces/inkscape"
   width="210mm"
   height="297mm"
   viewBox="0 0 210 297"
   version="1.1"
   id="svg3786"
   inkscape:version="0.92.3 (2405546, 2018-03-11)"
   sodipodi:docname="dentrorings.svg">
  <defs
     id="defs3780" />
  <sodipodi:namedview
     id="base"
     pagecolor="#ffffff"
     bordercolor="#666666"
     borderopacity="1.0"
     inkscape:pageopacity="0.0"
     inkscape:pageshadow="2"
     inkscape:zoom="0.35"
     inkscape:cx="23.417026"
     inkscape:cy="592.04468"
     inkscape:document-units="mm"
     inkscape:current-layer="layer1"
     showgrid="false"
     inkscape:window-width="1440"
     inkscape:window-height="837"
     inkscape:window-x="-8"
     inkscape:window-y="-8"
     inkscape:window-maximized="1" />
  <metadata
     id="metadata3783">
    <rdf:RDF>
      <cc:Work
         rdf:about="">
        <dc:format>image/svg+xml</dc:format>
        <dc:type
           rdf:resource="http://purl.org/dc/dcmitype/StillImage" />
        <dc:title></dc:title>
      </cc:Work>
    </rdf:RDF>
  </metadata>
  <g
     inkscape:label="Capa 1"
     inkscape:groupmode="layer"
     id="layer1">
    <g
       id="g3884"
       transform="matrix(0.57479885,0,0,0.57479885,229.95692,61.354986)">
      <path
         style="fill:#a5a5a5;stroke-width:0.35277781"
         d="m -216.84809,230.71398 c 0.25465,-0.10191 0.55893,-0.0894 0.67615,0.0278 0.11723,0.11722 -0.0911,0.2006 -0.46302,0.18528 -0.41097,-0.0169 -0.49456,-0.10052 -0.21313,-0.21313 z m 13.05277,0 c 0.25466,-0.10191 0.55894,-0.0894 0.67616,0.0278 0.11723,0.11722 -0.0911,0.2006 -0.46302,0.18528 -0.41097,-0.0169 -0.49456,-0.10052 -0.21314,-0.21313 z m -11.64166,-4.58611 c 0.25466,-0.10191 0.55893,-0.0894 0.67616,0.0278 0.11722,0.11723 -0.0911,0.20061 -0.46303,0.18529 -0.41096,-0.0169 -0.49456,-0.10052 -0.21313,-0.21313 z m 10.23055,0 c 0.25466,-0.10191 0.55894,-0.0894 0.67616,0.0278 0.11723,0.11723 -0.0911,0.20061 -0.46302,0.18529 -0.41097,-0.0169 -0.49456,-0.10052 -0.21314,-0.21313 z m -43.41372,-4.01637 c -0.7276,-0.38411 -1.32291,-0.7772 -1.32291,-0.87352 0,-0.15717 2.78646,1.14505 3.1456,1.47007 0.40596,0.3674 -0.65373,0.0206 -1.82269,-0.59655 z m 75.96482,0.24528 c 0.36303,-0.32483 2.44005,-1.27932 2.44005,-1.12132 0,0.20319 -1.95574,1.25284 -2.33433,1.25284 -0.13899,0 -0.18656,-0.0592 -0.10572,-0.13152 z m -77.13211,-6.41433 c -0.65759,-0.52684 -0.65326,-0.53335 0.10896,-0.16398 0.43656,0.21156 0.79375,0.45844 0.79375,0.54863 0,0.26995 -0.18295,0.192 -0.90271,-0.38465 z m 78.51383,0.39706 c 0,-0.097 0.3175,-0.34631 0.70555,-0.55399 0.38806,-0.20768 0.70556,-0.29823 0.70556,-0.20121 0,0.097 -0.3175,0.34631 -0.70556,0.55399 -0.38805,0.20768 -0.70555,0.29823 -0.70555,0.20121 z m -88.59223,-1.17135 c -0.43881,-0.55953 -0.42633,-0.572 0.13319,-0.13319 0.33955,0.26629 0.61736,0.5441 0.61736,0.61736 0,0.29035 -0.28969,0.10347 -0.75055,-0.48417 z m 98.82278,0.48417 c 0,-0.0733 0.27782,-0.35107 0.61737,-0.61736 0.55952,-0.43881 0.572,-0.42634 0.13319,0.13319 -0.46086,0.58764 -0.75056,0.77452 -0.75056,0.48417 z m -55.45226,-1.16613 c 0.25466,-0.1019 0.55894,-0.0894 0.67616,0.0278 0.11723,0.11722 -0.0911,0.2006 -0.46302,0.18528 -0.41097,-0.0169 -0.49456,-0.10052 -0.21314,-0.21313 z m 12.34723,0 c 0.25466,-0.1019 0.55893,-0.0894 0.67615,0.0278 0.11723,0.11722 -0.0911,0.2006 -0.46302,0.18528 -0.41096,-0.0169 -0.49456,-0.10052 -0.21313,-0.21313 z m -58.3521,-1.25832 -0.67204,-0.79375 0.79375,0.67204 c 0.74593,0.63155 0.95435,0.91546 0.67204,0.91546 -0.067,0 -0.42413,-0.35718 -0.79375,-0.79375 z m 104.27936,0.30778 c 0,-0.0733 0.27781,-0.35107 0.61736,-0.61736 0.55952,-0.43881 0.572,-0.42633 0.13319,0.13319 -0.46086,0.58764 -0.75055,0.77452 -0.75055,0.48417 z m -56.86338,-0.46057 c 0.25466,-0.10191 0.55894,-0.0894 0.67616,0.0278 0.11723,0.11722 -0.0911,0.2006 -0.46302,0.18528 -0.41097,-0.0169 -0.49456,-0.10052 -0.21314,-0.21313 z m 9.525,0 c 0.25466,-0.10191 0.55894,-0.0894 0.67616,0.0278 0.11723,0.11722 -0.0911,0.2006 -0.46302,0.18528 -0.41097,-0.0169 -0.49456,-0.10052 -0.21314,-0.21313 z m -58.70487,-1.25832 -0.67204,-0.79375 0.79375,0.67204 c 0.74593,0.63155 0.95435,0.91546 0.67204,0.91546 -0.0669,0 -0.42413,-0.35719 -0.79375,-0.79375 z m 107.98352,0.0882 c 0.35119,-0.38806 0.7179,-0.70556 0.81491,-0.70556 0.097,0 -0.11094,0.3175 -0.46213,0.70556 -0.35118,0.38805 -0.71789,0.70555 -0.81491,0.70555 -0.097,0 0.11095,-0.3175 0.46213,-0.70555 z m -100.76306,-0.61737 c -0.43881,-0.55952 -0.42633,-0.572 0.1332,-0.13319 0.33954,0.26629 0.61736,0.54411 0.61736,0.61736 0,0.29035 -0.2897,0.10347 -0.75056,-0.48417 z m 93.17834,0.48417 c 0,-0.0733 0.27781,-0.35107 0.61736,-0.61736 0.55953,-0.43881 0.57201,-0.42633 0.1332,0.13319 -0.46086,0.58764 -0.75056,0.77452 -0.75056,0.48417 z m -102.50414,-1.71889 -1.03614,-1.14653 1.14652,1.03614 c 1.06873,0.96583 1.30869,1.25692 1.03614,1.25692 -0.0607,0 -0.57665,-0.51594 -1.14652,-1.14653 z m 111.32359,1.03614 c 0,-0.0607 0.51593,-0.57665 1.14652,-1.14653 l 1.14653,-1.03614 -1.03614,1.14653 c -0.96583,1.06873 -1.25691,1.30868 -1.25691,1.03614 z m -103.4089,-0.85975 c -0.43881,-0.55953 -0.42633,-0.572 0.13319,-0.13319 0.33955,0.26629 0.61737,0.5441 0.61737,0.61736 0,0.29035 -0.2897,0.10347 -0.75056,-0.48417 z m 96.00056,0.48417 c 0,-0.0733 0.27782,-0.35107 0.61736,-0.61736 0.55953,-0.43881 0.57201,-0.42634 0.1332,0.13319 -0.46086,0.58764 -0.75056,0.77452 -0.75056,0.48417 z m -97.41167,-1.5425 c -0.43881,-0.55953 -0.42633,-0.57201 0.13319,-0.1332 0.58764,0.46086 0.77452,0.75056 0.48417,0.75056 -0.0733,0 -0.35107,-0.27781 -0.61736,-0.61736 z m 98.82278,0.48416 c 0,-0.0733 0.27782,-0.35106 0.61737,-0.61736 0.55952,-0.43881 0.572,-0.42633 0.13319,0.1332 -0.46086,0.58764 -0.75056,0.77451 -0.75056,0.48416 z m -100.56837,-1.89527 -0.85524,-0.97014 0.97013,0.85524 c 0.90675,0.79936 1.13192,1.08504 0.85525,1.08504 -0.0632,0 -0.49976,-0.43657 -0.97014,-0.97014 z m 102.68504,0.0882 c 0.4557,-0.48507 0.90792,-0.88194 1.00493,-0.88194 0.097,0 -0.19645,0.39687 -0.65215,0.88194 -0.4557,0.48507 -0.90792,0.88195 -1.00493,0.88195 -0.097,0 0.19645,-0.39688 0.65215,-0.88195 z m -111.84075,-1.85208 -2.28287,-2.38125 2.38125,2.28286 c 1.30969,1.25558 2.38125,2.32714 2.38125,2.38125 0,0.25965 -0.35921,-0.071 -2.47963,-2.28286 z m 121.01297,0.0882 c 1.24997,-1.26118 2.35205,-2.29305 2.44907,-2.29305 0.097,0 -0.84632,1.03187 -2.09629,2.29305 -1.24997,1.26118 -2.35205,2.29306 -2.44906,2.29306 -0.097,0 0.84631,-1.03188 2.09628,-2.29306 z m -114.49299,-0.61736 -1.39452,-1.4993 1.49931,1.39451 c 1.39434,1.29688 1.66142,1.6041 1.39451,1.6041 -0.0576,0 -0.73232,-0.67469 -1.4993,-1.49931 z m 20.80972,0.95068 c -0.65759,-0.52684 -0.65326,-0.53335 0.10896,-0.16398 0.43656,0.21156 0.79375,0.45844 0.79375,0.54863 0,0.26995 -0.18295,0.19199 -0.90271,-0.38465 z m 87.15688,-0.86248 c 0.75786,-0.77612 1.45729,-1.41112 1.55431,-1.41112 0.097,0 -0.44368,0.635 -1.20153,1.41112 -0.75785,0.77611 -1.45729,1.41111 -1.5543,1.41111 -0.097,0 0.44367,-0.635 1.20152,-1.41111 z m -89.62633,-0.54863 c -0.65758,-0.52684 -0.65326,-0.53335 0.10897,-0.16398 0.43656,0.21156 0.79375,0.45844 0.79375,0.54863 0,0.26995 -0.18296,0.19199 -0.90272,-0.38465 z m -28.9292,-3.42012 -1.03614,-1.14653 1.14653,1.03614 c 1.06872,0.96583 1.30868,1.25691 1.03614,1.25691 -0.0607,0 -0.57665,-0.51593 -1.14653,-1.14652 z m 27.51809,0.59789 c -0.65758,-0.52683 -0.65326,-0.53334 0.10897,-0.16397 0.43656,0.21156 0.79375,0.45844 0.79375,0.54862 0,0.26996 -0.18296,0.192 -0.90272,-0.38465 z m 73.57494,0.39707 c 0,-0.097 0.3175,-0.34631 0.70556,-0.55399 0.38805,-0.20768 0.70555,-0.29823 0.70555,-0.20122 0,0.097 -0.3175,0.34632 -0.70555,0.554 -0.38806,0.20768 -0.70556,0.29822 -0.70556,0.20121 z m 10.72621,-0.64219 -0.67204,-0.79375 0.79375,0.67204 c 0.74593,0.63155 0.95435,0.91546 0.67204,0.91546 -0.0669,0 -0.42413,-0.35718 -0.79375,-0.79375 z m 6.20082,-2.82222 c 2.03383,-2.0858 3.74039,-3.79236 3.79237,-3.79236 0.25477,0 -0.17544,0.4522 -3.69787,3.88686 l -3.79236,3.69786 z m 10.23686,3.50559 c 0,-0.0607 0.51594,-0.57666 1.14653,-1.14653 l 1.14653,-1.03614 -1.03614,1.14653 c -0.96583,1.06872 -1.25692,1.30868 -1.25692,1.03614 z m -105.17278,-1.56531 c -0.43881,-0.55953 -0.42633,-0.57201 0.13319,-0.1332 0.58764,0.46086 0.77452,0.75056 0.48417,0.75056 -0.0733,0 -0.35107,-0.27781 -0.61736,-0.61736 z m 82.595,0.48416 c 0,-0.0733 0.27782,-0.35106 0.61737,-0.61736 0.55952,-0.43881 0.572,-0.42633 0.13319,0.1332 -0.46086,0.58764 -0.75056,0.77452 -0.75056,0.48416 z m -101.08743,-2.07166 -1.39452,-1.49931 1.49931,1.39452 c 0.82462,0.76698 1.4993,1.44166 1.4993,1.4993 0,0.26691 -0.30721,-1.7e-4 -1.60409,-1.39451 z m 107.08466,0.61736 c 0.4557,-0.48507 0.90792,-0.88194 1.00493,-0.88194 0.097,0 -0.19645,0.39687 -0.65215,0.88194 -0.45571,0.48507 -0.90792,0.88194 -1.00494,0.88194 -0.097,0 0.19646,-0.39687 0.65216,-0.88194 z m 12.87639,-0.52917 c 0.75785,-0.77611 1.45729,-1.41111 1.5543,-1.41111 0.097,0 -0.44367,0.635 -1.20152,1.41111 -0.75786,0.77611 -1.45729,1.41111 -1.55431,1.41111 -0.097,0 0.44368,-0.635 1.20153,-1.41111 z m -103.04464,0.26459 -0.67204,-0.79375 0.79375,0.67203 c 0.74593,0.63155 0.95435,0.91547 0.67204,0.91547 -0.0669,0 -0.42413,-0.35719 -0.79375,-0.79375 z m 86.1113,0.0882 c 0.35119,-0.38805 0.7179,-0.70555 0.81491,-0.70555 0.097,0 -0.11094,0.3175 -0.46213,0.70555 -0.35119,0.38806 -0.7179,0.70556 -0.81491,0.70556 -0.097,0 0.11095,-0.3175 0.46213,-0.70556 z m -109.39463,-0.44097 -0.67204,-0.79375 0.79375,0.67204 c 0.74592,0.63155 0.95435,0.91546 0.67204,0.91546 -0.067,0 -0.42414,-0.35719 -0.79375,-0.79375 z m 132.67797,0.0882 c 0.35118,-0.38805 0.71789,-0.70555 0.81491,-0.70555 0.097,0 -0.11095,0.3175 -0.46213,0.70555 -0.35119,0.38806 -0.7179,0.70556 -0.81491,0.70556 -0.097,0 0.11094,-0.3175 0.46213,-0.70556 z m -107.81862,-0.61736 c -0.43881,-0.55952 -0.42633,-0.572 0.13319,-0.13319 0.58764,0.46086 0.77452,0.75055 0.48417,0.75055 -0.0733,0 -0.35107,-0.27781 -0.61736,-0.61736 z m 82.595,0.48417 c 0,-0.0733 0.27782,-0.35107 0.61737,-0.61736 0.55952,-0.43881 0.572,-0.42633 0.13319,0.13319 -0.46086,0.58764 -0.75056,0.77452 -0.75056,0.48417 z m -86.27636,-1.36611 -1.03614,-1.14653 1.14653,1.03614 c 0.63059,0.56988 1.14652,1.08581 1.14652,1.14653 0,0.27254 -0.29108,0.0326 -1.25691,-1.03614 z m 96.15414,-1.49931 c 1.24997,-1.26118 2.35205,-2.29305 2.44906,-2.29305 0.097,0 -0.84631,1.03187 -2.09628,2.29305 -1.24997,1.26118 -2.35205,2.29306 -2.44906,2.29306 -0.097,0 0.84631,-1.03188 2.09628,-2.29306 z m -118.74325,1.14653 -0.67203,-0.79375 0.79375,0.67204 c 0.74592,0.63155 0.95434,0.91546 0.67203,0.91546 -0.0669,0 -0.42413,-0.35719 -0.79375,-0.79375 z m 24.69445,0 -0.67204,-0.79375 0.79375,0.67204 c 0.74593,0.63155 0.95435,0.91546 0.67204,0.91546 -0.0669,0 -0.42413,-0.35719 -0.79375,-0.79375 z m 85.58214,0.66055 c 0,-0.0733 0.27781,-0.35106 0.61736,-0.61736 0.55952,-0.43881 0.572,-0.42633 0.13319,0.1332 -0.46086,0.58764 -0.75055,0.77451 -0.75055,0.48416 z m 24.69444,0 c 0,-0.0733 0.27781,-0.35106 0.61736,-0.61736 0.55953,-0.43881 0.57201,-0.42633 0.1332,0.1332 -0.46086,0.58764 -0.75056,0.77451 -0.75056,0.48416 z m -129.49615,-1.5425 -0.85525,-0.97013 0.97014,0.85524 c 0.90674,0.79935 1.13192,1.08503 0.85524,1.08503 -0.0632,0 -0.49975,-0.43656 -0.97013,-0.97014 z m 124.55726,0.0882 c 0.4557,-0.48507 0.90792,-0.88195 1.00494,-0.88195 0.097,0 -0.19646,0.39688 -0.65216,0.88195 -0.4557,0.48507 -0.90792,0.88194 -1.00493,0.88194 -0.097,0 0.19645,-0.39687 0.65215,-0.88194 z m -111.31244,-2.38125 -2.10562,-2.20486 2.20486,2.10562 c 2.04813,1.95595 2.36629,2.3041 2.10562,2.3041 -0.0546,0 -1.04676,-0.99219 -2.20486,-2.20486 z m 1.2388,-1.23472 -3.34442,-3.43959 3.43958,3.34443 c 3.19465,3.10626 3.60006,3.53474 3.34442,3.53474 -0.0523,0 -1.60015,-1.54781 -3.43958,-3.43958 z m -21.91026,1.76389 c -0.43881,-0.55953 -0.42633,-0.57201 0.1332,-0.1332 0.33955,0.2663 0.61736,0.54411 0.61736,0.61736 0,0.29035 -0.2897,0.10348 -0.75056,-0.48416 z m 5.99723,0 c -0.43881,-0.55953 -0.42634,-0.57201 0.13319,-0.1332 0.33955,0.2663 0.61736,0.54411 0.61736,0.61736 0,0.29035 -0.2897,0.10348 -0.75055,-0.48416 z m 127.04501,0.48416 c 0,-0.0733 0.27781,-0.35106 0.61736,-0.61736 0.55952,-0.43881 0.572,-0.42633 0.13319,0.1332 -0.46086,0.58764 -0.75055,0.77451 -0.75055,0.48416 z m 5.99722,0 c 0,-0.0733 0.27781,-0.35106 0.61736,-0.61736 0.55953,-0.43881 0.572,-0.42633 0.1332,0.1332 -0.46086,0.58764 -0.75056,0.77451 -0.75056,0.48416 z m -11.28889,-1.4543 c 0.4557,-0.48507 0.90792,-0.88195 1.00493,-0.88195 0.097,0 -0.19645,0.39688 -0.65215,0.88195 -0.4557,0.48507 -0.90792,0.88194 -1.00494,0.88194 -0.097,0 0.19646,-0.39687 0.65216,-0.88194 z m -122.81168,-0.44098 c -0.43881,-0.55952 -0.42633,-0.572 0.1332,-0.13319 0.58764,0.46086 0.77451,0.75056 0.48416,0.75056 -0.0732,0 -0.35106,-0.27782 -0.61736,-0.61737 z m 129.16168,0.48417 c 0,-0.0733 0.27781,-0.35107 0.61736,-0.61736 0.55953,-0.43881 0.57201,-0.42633 0.1332,0.13319 -0.46086,0.58764 -0.75056,0.77452 -0.75056,0.48417 z m -10.58333,-0.68275 c 0,-0.0607 0.51593,-0.57665 1.14652,-1.14653 l 1.14653,-1.03614 -1.03614,1.14653 c -0.96583,1.06873 -1.25691,1.30868 -1.25691,1.03614 z m -119.63668,-1.21253 c -0.43881,-0.55952 -0.42633,-0.572 0.13319,-0.13319 0.58764,0.46086 0.77452,0.75055 0.48417,0.75055 -0.0732,0 -0.35107,-0.27781 -0.61736,-0.61736 z m 125.45751,-0.0882 c 0.35119,-0.38806 0.7179,-0.70556 0.81491,-0.70556 0.097,0 -0.11095,0.3175 -0.46213,0.70556 -0.35119,0.38805 -0.7179,0.70555 -0.81491,0.70555 -0.097,0 0.11094,-0.3175 0.46213,-0.70555 z m 5.82083,0.57236 c 0,-0.0733 0.27782,-0.35107 0.61736,-0.61736 0.55953,-0.43881 0.57201,-0.42633 0.1332,0.13319 -0.46086,0.58764 -0.75056,0.77452 -0.75056,0.48417 z m -118.02637,-2.07167 -1.03614,-1.14652 1.14653,1.03614 c 1.06873,0.96582 1.30868,1.25691 1.03614,1.25691 -0.0607,0 -0.57665,-0.51594 -1.14653,-1.14653 z m -20.26253,-0.26458 c -0.20768,-0.38806 -0.29822,-0.70556 -0.20121,-0.70556 0.097,0 0.34631,0.3175 0.55399,0.70556 0.20768,0.38806 0.29823,0.70556 0.20122,0.70556 -0.097,0 -0.34632,-0.3175 -0.554,-0.70556 z m 129.29307,0 c 0.35119,-0.38806 0.7179,-0.70556 0.81491,-0.70556 0.097,0 -0.11095,0.3175 -0.46213,0.70556 -0.35119,0.38806 -0.7179,0.70556 -0.81491,0.70556 -0.097,0 0.11094,-0.3175 0.46213,-0.70556 z m -110.80575,-1.85208 -0.67204,-0.79375 0.79375,0.67203 c 0.74593,0.63155 0.95435,0.91547 0.67204,0.91547 -0.0669,0 -0.42413,-0.35719 -0.79375,-0.79375 z m 2.11667,0 -0.67204,-0.79375 0.79375,0.67203 c 0.74593,0.63155 0.95435,0.91547 0.67204,0.91547 -0.067,0 -0.42413,-0.35719 -0.79375,-0.79375 z m 109.57102,0.66055 c 0,-0.0733 0.27782,-0.35107 0.61736,-0.61736 0.55953,-0.43881 0.57201,-0.42633 0.1332,0.1332 -0.46086,0.58764 -0.75056,0.77451 -0.75056,0.48416 z m -112.93389,-2.24805 c -0.43881,-0.55953 -0.42634,-0.57201 0.13319,-0.1332 0.58764,0.46086 0.77452,0.75056 0.48417,0.75056 -0.0733,0 -0.35107,-0.27781 -0.61736,-0.61736 z m 2.11666,0 c -0.43881,-0.55953 -0.42633,-0.57201 0.1332,-0.1332 0.58764,0.46086 0.77451,0.75056 0.48416,0.75056 -0.0733,0 -0.35106,-0.27781 -0.61736,-0.61736 z m 112.58112,-0.22139 c 0,-0.0733 0.27782,-0.35107 0.61736,-0.61736 0.55953,-0.43881 0.57201,-0.42634 0.1332,0.13319 -0.46086,0.58764 -0.75056,0.77452 -0.75056,0.48417 z m -129.46945,-1.6307 c -0.20768,-0.38805 -0.29823,-0.70555 -0.20122,-0.70555 0.097,0 0.34632,0.3175 0.554,0.70555 0.20768,0.38806 0.29822,0.70556 0.20121,0.70556 -0.097,0 -0.34631,-0.3175 -0.55399,-0.70556 z m 140.75834,0 c 0.20768,-0.38805 0.45698,-0.70555 0.55399,-0.70555 0.097,0 0.006,0.3175 -0.20121,0.70555 -0.20768,0.38806 -0.45698,0.70556 -0.55399,0.70556 -0.097,0 -0.006,-0.3175 0.20121,-0.70556 z m -146.77301,-1.09252 c -0.40553,-0.79491 -0.67682,-1.5058 -0.60287,-1.57976 0.074,-0.0739 0.47984,0.57643 0.90197,1.4453 0.96143,1.9789 0.70148,2.09576 -0.2991,0.13446 z m 136.89523,0.73975 c 0.20768,-0.38806 0.45698,-0.70556 0.554,-0.70556 0.097,0 0.006,0.3175 -0.20122,0.70556 -0.20768,0.38805 -0.45698,0.70555 -0.55399,0.70555 -0.097,0 -0.006,-0.3175 0.20121,-0.70555 z m 15.76755,-0.52474 c 0.32268,-0.67666 0.64931,-1.16766 0.72586,-1.09112 0.16138,0.16138 -0.90953,2.32141 -1.15092,2.32141 -0.0889,0 0.10238,-0.55363 0.42506,-1.23029 z M -266.4255,183.2418 c -0.52888,-0.68384 -0.86157,-1.32292 -0.68868,-1.32292 0.0861,0 0.41668,0.39688 0.73451,0.88195 0.59472,0.90766 0.5616,1.22638 -0.0458,0.44097 z m 122.31578,-0.97014 c 0.20768,-0.38806 0.45698,-0.70556 0.55399,-0.70556 0.097,0 0.006,0.3175 -0.20121,0.70556 -0.20768,0.38806 -0.45698,0.70556 -0.55399,0.70556 -0.097,0 -0.006,-0.3175 0.20121,-0.70556 z m -125.5889,-1.05833 c -0.20768,-0.38806 -0.29823,-0.70556 -0.20121,-0.70556 0.097,0 0.34631,0.3175 0.55399,0.70556 0.20768,0.38805 0.29823,0.70555 0.20121,0.70555 -0.097,0 -0.34631,-0.3175 -0.55399,-0.70555 z m -1.41111,-2.46945 c -0.20768,-0.38805 -0.29823,-0.70555 -0.20121,-0.70555 0.097,0 0.34631,0.3175 0.55399,0.70555 0.20768,0.38806 0.29822,0.70556 0.20121,0.70556 -0.097,0 -0.34631,-0.3175 -0.55399,-0.70556 z m -7.82726,-2.35765 c 0.25466,-0.10191 0.55894,-0.0894 0.67616,0.0278 0.11722,0.11723 -0.0911,0.20061 -0.46302,0.18529 -0.41097,-0.0169 -0.49456,-0.10052 -0.21314,-0.21313 z m -11.54767,-21.83702 c 0.0169,-0.41097 0.10052,-0.49456 0.21314,-0.21314 0.1019,0.25466 0.0894,0.55893 -0.0278,0.67616 -0.11722,0.11722 -0.2006,-0.0911 -0.18528,-0.46302 z m 160.5139,0 c 0.0169,-0.41097 0.10052,-0.49456 0.21314,-0.21314 0.1019,0.25466 0.0894,0.55893 -0.0278,0.67616 -0.11722,0.11722 -0.2006,-0.0911 -0.18528,-0.46302 z m -165.45279,-2.46945 c 0.0169,-0.41097 0.10052,-0.49456 0.21314,-0.21314 0.1019,0.25466 0.0894,0.55894 -0.0278,0.67616 -0.11722,0.11723 -0.2006,-0.0911 -0.18528,-0.46302 z m 170.39168,0 c 0.0169,-0.41097 0.10052,-0.49456 0.21314,-0.21314 0.1019,0.25466 0.0894,0.55894 -0.0278,0.67616 -0.11722,0.11723 -0.2006,-0.0911 -0.18528,-0.46302 z m -154.1639,-0.35278 c 0.0169,-0.41097 0.10052,-0.49456 0.21314,-0.21313 0.1019,0.25466 0.0894,0.55893 -0.0278,0.67615 -0.11722,0.11723 -0.2006,-0.0911 -0.18528,-0.46302 z m -11.64167,-1.05833 c 0.0169,-0.41097 0.10052,-0.49456 0.21314,-0.21314 0.1019,0.25466 0.0894,0.55894 -0.0278,0.67616 -0.11722,0.11723 -0.2006,-0.0911 -0.18528,-0.46302 z m 161.21946,0 c 0.0169,-0.41097 0.10052,-0.49456 0.21313,-0.21314 0.10191,0.25466 0.0894,0.55894 -0.0278,0.67616 -0.11722,0.11723 -0.2006,-0.0911 -0.18529,-0.46302 z m -148.16668,-0.35278 c 0.0169,-0.41097 0.10052,-0.49456 0.21314,-0.21314 0.1019,0.25466 0.0894,0.55894 -0.0278,0.67616 -0.11722,0.11723 -0.2006,-0.0911 -0.18528,-0.46302 z m -4.50105,-4.7331 c 0,-1.26118 0.064,-1.77712 0.14229,-1.14653 0.0782,0.63059 0.0782,1.66247 0,2.29306 -0.0783,0.63059 -0.14229,0.11465 -0.14229,-1.14653 z m 144.28613,0 c 0,-1.26118 0.064,-1.77712 0.14228,-1.14653 0.0782,0.63059 0.0782,1.66247 0,2.29306 -0.0783,0.63059 -0.14228,0.11465 -0.14228,-1.14653 z m -139.78508,-4.7919 c 0.0169,-0.41097 0.10052,-0.49456 0.21314,-0.21314 0.1019,0.25466 0.0894,0.55894 -0.0278,0.67616 -0.11722,0.11723 -0.2006,-0.0911 -0.18528,-0.46302 z m -13.05278,-0.35278 c 0.0169,-0.41096 0.10052,-0.49456 0.21314,-0.21313 0.1019,0.25466 0.0894,0.55893 -0.0278,0.67615 -0.11722,0.11723 -0.2006,-0.0911 -0.18528,-0.46302 z m 161.21946,0 c 0.0169,-0.41096 0.10052,-0.49456 0.21313,-0.21313 0.10191,0.25466 0.0894,0.55893 -0.0278,0.67615 -0.11722,0.11723 -0.2006,-0.0911 -0.18529,-0.46302 z m -149.57779,-1.05833 c 0.0169,-0.41097 0.10052,-0.49456 0.21314,-0.21314 0.1019,0.25466 0.0894,0.55894 -0.0278,0.67616 -0.11722,0.11723 -0.2006,-0.0911 -0.18528,-0.46302 z m -16.22778,-0.35278 c 0.0169,-0.41097 0.10052,-0.49456 0.21314,-0.21314 0.1019,0.25466 0.0894,0.55894 -0.0278,0.67616 -0.11722,0.11723 -0.2006,-0.0911 -0.18528,-0.46302 z m 170.39168,0 c 0.0169,-0.41097 0.10052,-0.49456 0.21314,-0.21314 0.1019,0.25466 0.0894,0.55894 -0.0278,0.67616 -0.11722,0.11723 -0.2006,-0.0911 -0.18528,-0.46302 z m -165.45279,-2.46944 c 0.0169,-0.41097 0.10052,-0.49456 0.21314,-0.21314 0.1019,0.25466 0.0894,0.55893 -0.0278,0.67616 -0.11722,0.11722 -0.2006,-0.0911 -0.18528,-0.46302 z m 160.5139,0 c 0.0169,-0.41097 0.10052,-0.49456 0.21314,-0.21314 0.1019,0.25466 0.0894,0.55893 -0.0278,0.67616 -0.11722,0.11722 -0.2006,-0.0911 -0.18528,-0.46302 z m -141.13897,-24.13588 c 0.20768,-0.38806 0.45698,-0.70556 0.55399,-0.70556 0.097,0 0.006,0.3175 -0.20121,0.70556 -0.20768,0.38805 -0.45698,0.70555 -0.55399,0.70555 -0.097,0 -0.006,-0.3175 0.20121,-0.70555 z m -5.29167,-3.52778 c 0.20768,-0.38806 0.45698,-0.70556 0.55399,-0.70556 0.097,0 0.006,0.3175 -0.20121,0.70556 -0.20768,0.38805 -0.45698,0.70555 -0.55399,0.70555 -0.097,0 -0.006,-0.3175 0.20121,-0.70555 z m 132.29168,0 c -0.20768,-0.38806 -0.29823,-0.70556 -0.20121,-0.70556 0.097,0 0.34631,0.3175 0.55399,0.70556 0.20768,0.38805 0.29822,0.70555 0.20121,0.70555 -0.097,0 -0.34631,-0.3175 -0.55399,-0.70555 z m -143.22779,-0.13165 c 0,-0.38099 1.40131,-3.04335 1.60184,-3.04335 0.097,0 -0.16385,0.67468 -0.5797,1.4993 -0.8178,1.62167 -1.02214,1.93035 -1.02214,1.54405 z m 153.35089,-1.81306 c -0.32268,-0.67666 -0.51396,-1.23029 -0.42506,-1.23029 0.24139,0 1.3123,2.16002 1.15092,2.32141 -0.0765,0.0765 -0.40318,-0.41446 -0.72586,-1.09112 z m -136.77033,-0.52474 c 0.20768,-0.38805 0.45697,-0.70555 0.55399,-0.70555 0.097,0 0.006,0.3175 -0.20122,0.70555 -0.20768,0.38806 -0.45697,0.70556 -0.55399,0.70556 -0.097,0 -0.006,-0.3175 0.20122,-0.70556 z m 121.00278,0 c -0.20768,-0.38805 -0.29822,-0.70555 -0.20121,-0.70555 0.097,0 0.34631,0.3175 0.55399,0.70555 0.20768,0.38806 0.29823,0.70556 0.20122,0.70556 -0.097,0 -0.34632,-0.3175 -0.554,-0.70556 z m -130.88056,-0.35278 c 0.20768,-0.38805 0.45698,-0.70555 0.55399,-0.70555 0.097,0 0.006,0.3175 -0.20121,0.70555 -0.20768,0.38806 -0.45698,0.70556 -0.554,0.70556 -0.097,0 -0.006,-0.3175 0.20122,-0.70556 z m 140.75834,0 c -0.20768,-0.38805 -0.29823,-0.70555 -0.20121,-0.70555 0.097,0 0.34631,0.3175 0.55399,0.70555 0.20768,0.38806 0.29823,0.70556 0.20121,0.70556 -0.097,0 -0.34631,-0.3175 -0.55399,-0.70556 z M -270.0514,105.2329 c 0,-0.0733 0.27781,-0.35106 0.61736,-0.61736 0.55953,-0.43881 0.57201,-0.42633 0.1332,0.1332 -0.46086,0.58764 -0.75056,0.77451 -0.75056,0.48416 z m 119.1939,-0.48416 c -0.43881,-0.55953 -0.42633,-0.57201 0.1332,-0.1332 0.58763,0.46086 0.77451,0.75056 0.48416,0.75056 -0.0733,0 -0.35107,-0.27781 -0.61736,-0.61736 z m -117.43001,-1.98528 c 0,-0.0733 0.27781,-0.35107 0.61736,-0.61736 0.55953,-0.43881 0.57201,-0.42633 0.1332,0.13319 -0.46086,0.58764 -0.75056,0.77452 -0.75056,0.48417 z m 115.66612,-0.48417 c -0.43881,-0.55952 -0.42633,-0.572 0.1332,-0.13319 0.58764,0.46086 0.77451,0.75055 0.48416,0.75055 -0.0733,0 -0.35106,-0.27781 -0.61736,-0.61736 z m -130.48279,-1.4993 c 0.20768,-0.38806 0.45698,-0.70556 0.554,-0.70556 0.097,0 0.006,0.3175 -0.20122,0.70556 -0.20768,0.38805 -0.45698,0.70555 -0.55399,0.70555 -0.097,0 -0.006,-0.3175 0.20121,-0.70555 z m 16.40417,0 c 0.35119,-0.38806 0.7179,-0.70556 0.81491,-0.70556 0.097,0 -0.11094,0.3175 -0.46213,0.70556 -0.35119,0.38805 -0.7179,0.70555 -0.81491,0.70555 -0.097,0 0.11094,-0.3175 0.46213,-0.70555 z m 112.85538,-0.0882 -0.67204,-0.793747 0.79375,0.672037 c 0.43657,0.36962 0.79375,0.72681 0.79375,0.79375 0,0.28231 -0.28391,0.0739 -0.91546,-0.67204 z m -116.03038,-1.675692 c 0.35119,-0.388055 0.7179,-0.705555 0.81491,-0.705555 0.097,0 -0.11094,0.3175 -0.46213,0.705555 -0.35119,0.388056 -0.7179,0.705556 -0.81491,0.705556 -0.097,0 0.11094,-0.3175 0.46213,-0.705556 z m 4.05695,0.595168 c 0,-0.06071 0.51593,-0.57665 1.14652,-1.146528 l 1.14653,-1.03614 -1.03614,1.146528 c -0.96583,1.068726 -1.25691,1.308682 -1.25691,1.03614 z m 110.22087,-1.03614 -1.03614,-1.146528 1.14652,1.03614 c 0.63059,0.569878 1.14653,1.085815 1.14653,1.146528 0,0.272542 -0.29109,0.0326 -1.25691,-1.03614 z m 4.92756,0.352778 -0.67204,-0.79375 0.79375,0.672038 c 0.43657,0.369619 0.79375,0.726807 0.79375,0.79375 0,0.282311 -0.28391,0.07389 -0.91546,-0.672038 z m -125.73177,0.307777 c 0,-0.07325 0.27781,-0.351066 0.61736,-0.617361 0.55953,-0.438809 0.57201,-0.426332 0.1332,0.133195 -0.46086,0.58764 -0.75056,0.774517 -0.75056,0.484166 z m 131.8939,-0.484166 c -0.43881,-0.559527 -0.42633,-0.572004 0.1332,-0.133195 0.33954,0.266295 0.61736,0.544107 0.61736,0.617361 0,0.290351 -0.2897,0.103474 -0.75056,-0.484166 z M -275.34306,97.82454 c 0,-0.07325 0.27781,-0.351067 0.61736,-0.617361 0.55952,-0.43881 0.572,-0.426332 0.13319,0.133195 -0.46086,0.587639 -0.75055,0.774516 -0.75055,0.484166 z m 7.05555,-0.74875 c 0.4557,-0.485069 0.90792,-0.881944 1.00493,-0.881944 0.097,0 -0.19645,0.396875 -0.65215,0.881944 -0.4557,0.48507 -0.90792,0.881945 -1.00493,0.881945 -0.097,0 0.19645,-0.396875 0.65215,-0.881945 z m 116.0372,-0.08819 -0.85525,-0.970139 0.97014,0.855243 c 0.53358,0.470387 0.97014,0.906949 0.97014,0.970139 0,0.276676 -0.28568,0.0515 -1.08503,-0.855243 z m 6.68448,0.352778 c -0.43881,-0.559527 -0.42633,-0.572005 0.13319,-0.133195 0.58764,0.460858 0.77452,0.750556 0.48417,0.750556 -0.0733,0 -0.35107,-0.277813 -0.61736,-0.617361 z M -261.23195,94.60635 c 1.24997,-1.261181 2.35204,-2.293056 2.44906,-2.293056 0.097,0 -0.84632,1.031875 -2.09628,2.293056 -1.24997,1.26118 -2.35205,2.293056 -2.44907,2.293056 -0.097,0 0.84632,-1.031876 2.09629,-2.293056 z m 101.94259,-0.08819 -2.28286,-2.38125 2.38125,2.282864 c 1.30969,1.255575 2.38125,2.327138 2.38125,2.38125 0,0.259652 -0.35921,-0.07106 -2.47964,-2.282864 z m -120.99259,1.895278 c 0,-0.07325 0.27781,-0.351067 0.61736,-0.617361 0.55952,-0.43881 0.572,-0.426332 0.13319,0.133195 -0.46086,0.587639 -0.75055,0.774516 -0.75055,0.484166 z m 5.99722,0 c 0,-0.07325 0.27781,-0.351067 0.61736,-0.617361 0.55953,-0.43881 0.572,-0.426332 0.13319,0.133195 -0.46085,0.587639 -0.75055,0.774516 -0.75055,0.484166 z m 127.66056,-0.484166 c -0.43881,-0.559527 -0.42633,-0.572005 0.1332,-0.133195 0.58764,0.460858 0.77452,0.750556 0.48417,0.750556 -0.0733,0 -0.35107,-0.277813 -0.61737,-0.617361 z m 5.99723,0 c -0.43881,-0.559527 -0.42634,-0.572005 0.13319,-0.133195 0.58764,0.460858 0.77452,0.750556 0.48417,0.750556 -0.0733,0 -0.35107,-0.277813 -0.61736,-0.617361 z M -263.87779,92.31329 c 1.933,-1.940278 3.59392,-3.527778 3.69093,-3.527778 0.097,0 -1.40515,1.5875 -3.33815,3.527778 -1.93299,1.940278 -3.59392,3.527778 -3.69093,3.527778 -0.097,0 1.40516,-1.5875 3.33815,-3.527778 z m 107.23784,-0.08819 -3.52116,-3.615973 3.61597,3.52116 c 1.98879,1.936637 3.61597,3.563825 3.61597,3.615973 0,0.255188 -0.44031,-0.162631 -3.71078,-3.52116 z m -115.88089,2.028472 c 0.4557,-0.485069 0.90792,-0.881944 1.00493,-0.881944 0.097,0 -0.19645,0.396875 -0.65215,0.881944 -0.45571,0.48507 -0.90792,0.881945 -1.00494,0.881945 -0.097,0 0.19646,-0.396875 0.65216,-0.881945 z m 124.50386,-0.08819 -0.85524,-0.970139 0.97014,0.855242 c 0.53357,0.470387 0.97014,0.90695 0.97014,0.970139 0,0.276677 -0.28568,0.0515 -1.08504,-0.855242 z m -129.97192,-0.79375 c 0.35119,-0.388056 0.7179,-0.705556 0.81491,-0.705556 0.097,0 -0.11094,0.3175 -0.46213,0.705556 -0.35119,0.388055 -0.7179,0.705555 -0.81491,0.705555 -0.097,0 0.11094,-0.3175 0.46213,-0.705555 z m 135.24529,-0.264584 c -0.43881,-0.559527 -0.42633,-0.572004 0.13319,-0.133195 0.58764,0.460859 0.77452,0.750556 0.48417,0.750556 -0.0733,0 -0.35107,-0.277812 -0.61736,-0.617361 z m -127.48418,-1.499306 c 0.75785,-0.776111 1.45729,-1.411111 1.55431,-1.411111 0.097,0 -0.44368,0.635 -1.20153,1.411111 -0.75785,0.776112 -1.45729,1.411112 -1.5543,1.411112 -0.097,0 0.44367,-0.635 1.20152,-1.411112 z m 119.92786,-0.08819 -1.39451,-1.499306 1.4993,1.394513 c 0.82462,0.766982 1.49931,1.441669 1.49931,1.499306 0,0.266905 -0.30722,-1.73e-4 -1.6041,-1.394513 z m -126.27786,0.08819 c 0.35119,-0.388055 0.7179,-0.705555 0.81491,-0.705555 0.097,0 -0.11094,0.3175 -0.46213,0.705555 -0.35119,0.388056 -0.71789,0.705556 -0.81491,0.705556 -0.097,0 0.11095,-0.3175 0.46213,-0.705556 z m 132.61094,-0.08819 -0.67204,-0.79375 0.79375,0.672038 c 0.43656,0.36962 0.79375,0.726807 0.79375,0.79375 0,0.282311 -0.28391,0.07389 -0.91546,-0.672038 z m -114.0901,0.330585 c 0,-0.06071 0.51594,-0.576651 1.14653,-1.146528 l 1.14652,-1.03614 -1.03614,1.146527 c -0.96582,1.068727 -1.25691,1.308683 -1.25691,1.036141 z m 94.69865,-1.036141 -1.03614,-1.146527 1.14652,1.03614 c 0.63059,0.569877 1.14653,1.085815 1.14653,1.146528 0,0.272542 -0.29109,0.0326 -1.25691,-1.036141 z m -112.33754,-0.374971 c 0,-0.06071 0.51594,-0.57665 1.14653,-1.146527 l 1.14652,-1.036141 -1.03614,1.146528 c -0.96582,1.068726 -1.25691,1.308682 -1.25691,1.03614 z m 129.79553,-1.212529 -0.85524,-0.970139 0.97013,0.855243 c 0.53358,0.470387 0.97014,0.90695 0.97014,0.970139 0,0.276677 -0.28568,0.0515 -1.08503,-0.855243 z m -109.15803,-0.08819 c 0.35119,-0.388056 0.71789,-0.705556 0.81491,-0.705556 0.097,0 -0.11095,0.3175 -0.46213,0.705556 -0.35119,0.388055 -0.7179,0.705555 -0.81491,0.705555 -0.097,0 0.11094,-0.3175 0.46213,-0.705555 z m 89.57204,-0.08819 -0.67203,-0.79375 0.79375,0.672039 c 0.74592,0.631549 0.95434,0.915461 0.67203,0.915461 -0.0669,0 -0.42413,-0.357187 -0.79375,-0.79375 z m -93.27621,-1.499305 c 0.4557,-0.48507 0.90792,-0.881945 1.00494,-0.881945 0.097,0 -0.19646,0.396875 -0.65216,0.881945 -0.4557,0.485069 -0.90792,0.881944 -1.00493,0.881944 -0.097,0 0.19645,-0.396875 0.65215,-0.881944 z m 4.93889,0.748749 c 0,-0.07325 0.27781,-0.351066 0.61736,-0.617361 0.55953,-0.438809 0.57201,-0.426332 0.1332,0.133195 -0.46086,0.58764 -0.75056,0.774517 -0.75056,0.484166 z m 86.73834,-0.484166 c -0.43881,-0.559527 -0.42633,-0.572004 0.1332,-0.133195 0.33954,0.266295 0.61736,0.544107 0.61736,0.617361 0,0.290351 -0.2897,0.103474 -0.75056,-0.484166 z m 5.30997,-0.352778 -0.85525,-0.970139 0.97014,0.855243 c 0.53358,0.470387 0.97014,0.906949 0.97014,0.970139 0,0.276677 -0.28568,0.0515 -1.08503,-0.855243 z m -108.98164,-2.38125 c 1.24997,-1.261181 2.35204,-2.293056 2.44906,-2.293056 0.097,0 -0.84632,1.031875 -2.09629,2.293056 -1.24996,1.261181 -2.35204,2.293056 -2.44906,2.293056 -0.097,0 0.84632,-1.031875 2.09629,-2.293056 z m 120.99259,-0.08819 -2.28286,-2.381251 2.38125,2.282864 c 1.30969,1.255575 2.38125,2.327138 2.38125,2.381251 0,0.259651 -0.35921,-0.07106 -2.47964,-2.282864 z m -114.4662,0.617361 c 0.75785,-0.776111 1.45729,-1.411111 1.5543,-1.411111 0.097,0 -0.44367,0.635 -1.20153,1.411111 -0.75785,0.776111 -1.45729,1.411111 -1.5543,1.411111 -0.097,0 0.44367,-0.635 1.20153,-1.411111 z m 107.93341,-0.08819 -1.39452,-1.499305 1.49931,1.394513 c 0.82462,0.766981 1.4993,1.441669 1.4993,1.499305 0,0.266905 -0.30721,-1.72e-4 -1.60409,-1.394513 z m -100.52508,0.440973 c 0.35119,-0.388056 0.7179,-0.705556 0.81491,-0.705556 0.097,0 -0.11095,0.3175 -0.46213,0.705556 -0.35119,0.388055 -0.7179,0.705555 -0.81491,0.705555 -0.097,0 0.11094,-0.3175 0.46213,-0.705555 z m 5.46806,0.57236 c 0,-0.07325 0.27781,-0.351066 0.61736,-0.617361 0.55952,-0.438809 0.572,-0.426332 0.13319,0.133195 -0.46086,0.58764 -0.75055,0.774517 -0.75055,0.484166 z m 81.79945,-0.484166 c -0.43881,-0.559527 -0.42634,-0.572004 0.13319,-0.133195 0.33955,0.266295 0.61736,0.544107 0.61736,0.617361 0,0.290351 -0.2897,0.103474 -0.75055,-0.484166 z m 5.83231,-0.176389 -0.67203,-0.79375 0.79375,0.672038 c 0.74592,0.63155 0.95434,0.915462 0.67203,0.915462 -0.0669,0 -0.42413,-0.357187 -0.79375,-0.79375 z m -86.22065,-0.416147 c 0,-0.09701 0.3175,-0.346312 0.70555,-0.553992 0.38806,-0.20768 0.70556,-0.298228 0.70556,-0.201214 0,0.09701 -0.3175,0.346312 -0.70556,0.553992 -0.38805,0.20768 -0.70555,0.298228 -0.70555,0.201214 z m 78.82507,-0.397066 c -0.65759,-0.526835 -0.65326,-0.533347 0.10896,-0.163974 0.43656,0.211557 0.79375,0.458438 0.79375,0.548626 0,0.269952 -0.18295,0.191995 -0.90271,-0.384652 z m -90.46674,-1.744426 c 0.4557,-0.485069 0.90792,-0.881944 1.00493,-0.881944 0.097,0 -0.19645,0.396875 -0.65215,0.881944 -0.4557,0.48507 -0.90792,0.881945 -1.00494,0.881945 -0.097,0 0.19646,-0.396875 0.65216,-0.881945 z m 102.63164,-0.08819 -0.85524,-0.970139 0.97014,0.855242 c 0.90674,0.799356 1.13191,1.085036 0.85524,1.085036 -0.0632,0 -0.49975,-0.436563 -0.97014,-0.970139 z m -101.22053,-0.926945 c 0,-0.07326 0.27781,-0.351067 0.61736,-0.617361 0.55953,-0.43881 0.57201,-0.426332 0.1332,0.133194 -0.46086,0.58764 -0.75056,0.774517 -0.75056,0.484167 z m 99.43834,-0.484167 c -0.43881,-0.559526 -0.42633,-0.572004 0.1332,-0.133194 0.58764,0.460858 0.77451,0.750556 0.48416,0.750556 -0.0733,0 -0.35106,-0.277813 -0.61736,-0.617362 z m -106.4939,0.154196 c 0,-0.06071 0.51594,-0.576651 1.14653,-1.146528 l 1.14653,-1.03614 -1.03614,1.146528 c -0.96583,1.068726 -1.25692,1.308682 -1.25692,1.03614 z m 113.0431,-1.03614 -1.03614,-1.146528 1.14653,1.03614 c 0.63059,0.569877 1.14652,1.085815 1.14652,1.146528 0,0.272542 -0.29108,0.0326 -1.25691,-1.03614 z m -104.57643,0.307777 c 0,-0.07325 0.27781,-0.351066 0.61736,-0.617361 0.55953,-0.43881 0.57201,-0.426332 0.1332,0.133195 -0.46086,0.58764 -0.75056,0.774517 -0.75056,0.484166 z m 96.61612,-0.484166 c -0.43881,-0.559527 -0.42633,-0.572005 0.1332,-0.133195 0.33954,0.266295 0.61736,0.544107 0.61736,0.617361 0,0.290351 -0.2897,0.103474 -0.75056,-0.484166 z M -257.3514,80.18565 c 0,-0.07325 0.27782,-0.351067 0.61736,-0.617361 0.55953,-0.43881 0.57201,-0.426332 0.1332,0.133195 -0.46086,0.587639 -0.75056,0.774516 -0.75056,0.484166 z m 93.7939,-0.484166 c -0.43881,-0.559527 -0.42633,-0.572005 0.13319,-0.133195 0.33955,0.266294 0.61737,0.544107 0.61737,0.617361 0,0.29035 -0.2897,0.103473 -0.75056,-0.484166 z m -100.67306,-0.440973 c 0.35118,-0.388055 0.71789,-0.705555 0.81491,-0.705555 0.097,0 -0.11095,0.3175 -0.46214,0.705555 -0.35118,0.388056 -0.71789,0.705556 -0.81491,0.705556 -0.097,0 0.11095,-0.3175 0.46214,-0.705556 z m 16.75694,0.553992 c 0,-0.09701 0.3175,-0.346311 0.70556,-0.553992 0.38805,-0.20768 0.70555,-0.298227 0.70555,-0.201214 0,0.09701 -0.3175,0.346312 -0.70555,0.553992 -0.38806,0.20768 -0.70556,0.298228 -0.70556,0.201214 z m 73.88618,-0.397066 c -0.65758,-0.526834 -0.65326,-0.533347 0.10897,-0.163974 0.43656,0.211557 0.79375,0.458438 0.79375,0.548626 0,0.269952 -0.18296,0.191996 -0.90272,-0.384652 z m 17.27337,-0.24512 -0.67204,-0.79375 0.79375,0.672038 c 0.43656,0.369619 0.79375,0.726807 0.79375,0.79375 0,0.28231 -0.28391,0.07389 -0.91546,-0.672038 z m -106.68177,-0.750556 c 0,-0.07325 0.27781,-0.351067 0.61736,-0.617361 0.55953,-0.43881 0.572,-0.426332 0.13319,0.133195 -0.46085,0.587639 -0.75055,0.774516 -0.75055,0.484166 z m 105.08278,-0.484166 c -0.43881,-0.559527 -0.42633,-0.572005 0.1332,-0.133195 0.33955,0.266294 0.61736,0.544107 0.61736,0.617361 0,0.29035 -0.2897,0.103473 -0.75056,-0.484166 z m -102.26056,-1.632501 c 0,-0.07325 0.27781,-0.351067 0.61736,-0.617361 0.55953,-0.43881 0.57201,-0.426332 0.1332,0.133195 -0.46086,0.587639 -0.75056,0.774516 -0.75056,0.484166 z m 99.43834,-0.484166 c -0.43881,-0.559527 -0.42633,-0.572005 0.1332,-0.133195 0.58764,0.460858 0.77451,0.750556 0.48416,0.750556 -0.0733,0 -0.35106,-0.277813 -0.61736,-0.617361 z m -89.56056,-0.239759 c 0,-0.09701 0.3175,-0.346311 0.70556,-0.553991 0.38805,-0.207681 0.70555,-0.298228 0.70555,-0.201214 0,0.09701 -0.3175,0.346311 -0.70555,0.553991 -0.38806,0.207681 -0.70556,0.298228 -0.70556,0.201214 z m 79.53063,-0.397065 c -0.65759,-0.526835 -0.65326,-0.533347 0.10896,-0.163975 0.43656,0.211557 0.79375,0.458438 0.79375,0.548626 0,0.269953 -0.18296,0.191996 -0.90271,-0.384651 z m -40.46049,-1.823237 c 0.63059,-0.07825 1.66247,-0.07825 2.29306,0 0.63059,0.07826 0.11465,0.142286 -1.14653,0.142286 -1.26118,0 -1.77712,-0.06403 -1.14653,-0.142286 z m -38.71736,-3.445616 c 0,-0.241392 2.16002,-1.312305 2.32141,-1.150924 0.0765,0.07655 -0.41446,0.403183 -1.09112,0.725862 -0.67666,0.322675 -1.23029,0.513955 -1.23029,0.425062 z m 77.96389,-0.708907 c -0.48507,-0.277291 -0.71385,-0.509792 -0.5084,-0.516664 0.20545,-0.0069 0.6817,0.220574 1.05834,0.505446 0.871,0.658791 0.5928,0.664467 -0.54994,0.01122 z m -47.33837,-3.945153 c 0.25466,-0.101907 0.55893,-0.08938 0.67616,0.02783 0.11722,0.117225 -0.0911,0.200604 -0.46302,0.185286 -0.41097,-0.01693 -0.49456,-0.100521 -0.21314,-0.213134 z m 17.99167,0 c 0.25466,-0.101907 0.55893,-0.08938 0.67616,0.02783 0.11722,0.117225 -0.0911,0.200604 -0.46302,0.185286 -0.41097,-0.01693 -0.49456,-0.100521 -0.21314,-0.213134 z m -14.11111,-0.352778 c 0.25466,-0.101907 0.55893,-0.08938 0.67616,0.02783 0.11722,0.117225 -0.0911,0.200604 -0.46303,0.185286 -0.41096,-0.01693 -0.49456,-0.10052 -0.21313,-0.213134 z m 10.23055,0 c 0.25466,-0.101907 0.55894,-0.08938 0.67616,0.02783 0.11723,0.117225 -0.0911,0.200604 -0.46302,0.185286 -0.41097,-0.01693 -0.49456,-0.10052 -0.21314,-0.213134 z m -11.64166,-4.586111 c 0.25465,-0.101907 0.55893,-0.08938 0.67615,0.02783 0.11723,0.117224 -0.0911,0.200603 -0.46302,0.185286 -0.41097,-0.01693 -0.49456,-0.100521 -0.21313,-0.213135 z m 13.05277,0 c 0.25466,-0.101907 0.55894,-0.08938 0.67616,0.02783 0.11723,0.117224 -0.0911,0.200603 -0.46302,0.185286 -0.41097,-0.01693 -0.49456,-0.100521 -0.21314,-0.213135 z"
         id="path3888"
         inkscape:connector-curvature="0" />
      <path
         style="fill:#030303;stroke-width:0.35277781"
         d="m -219.075,230.56405 c -22.19755,-2.40124 -43.18653,-13.80393 -57.28416,-31.12077 -8.03248,-9.86671 -14.36308,-23.00845 -17.1087,-35.5161 -1.49075,-6.79111 -1.80233,-9.96235 -1.80233,-18.34444 0,-4.61532 0.19081,-9.26638 0.45589,-11.1125 3.07122,-21.38962 13.85295,-41.02696 29.78633,-54.251478 12.45524,-10.337699 27.63264,-17.044555 43.8363,-19.371157 4.16263,-0.59769 18.06237,-0.59769 22.225,0 16.20366,2.326602 31.38106,9.033458 43.8363,19.371157 15.93338,13.224518 26.71511,32.861858 29.78633,54.251478 0.26508,1.84612 0.45589,6.49718 0.45589,11.1125 0,4.61532 -0.19081,9.26637 -0.45589,11.1125 -2.3266,16.20366 -9.03346,31.38106 -19.37115,43.8363 -12.94632,15.59819 -32.01952,26.26883 -52.84037,29.56191 -4.27692,0.67645 -17.03699,0.9555 -21.51944,0.4706 z m 21.87222,-5.23106 c 17.15762,-3.00375 31.35491,-10.16668 43.34253,-21.86754 4.79808,-4.6833 7.72779,-8.1902 11.18039,-13.3831 6.16152,-9.26724 10.25731,-19.74992 12.37881,-31.68209 0.68679,-3.86276 0.80493,-5.74404 0.80493,-12.81752 0,-9.27343 -0.53461,-13.42394 -2.78696,-21.63696 -5.97321,-21.7809 -21.3739,-40.477713 -41.7139,-50.641735 -6.92604,-3.460976 -14.76724,-5.988611 -23.26467,-7.499428 -3.86276,-0.686788 -5.74404,-0.80493 -12.81752,-0.80493 -7.07348,0 -8.95476,0.118142 -12.81752,0.80493 -17.30912,3.07751 -31.41073,10.191574 -43.4014,21.895408 -4.79808,4.683299 -7.72779,8.190206 -11.18039,13.383105 -6.16152,9.26724 -10.25731,19.74992 -12.37881,31.68209 -0.68679,3.86276 -0.80493,5.74403 -0.80493,12.81752 0,9.27342 0.5346,13.42394 2.78696,21.63696 5.98353,21.81852 21.36626,40.47244 41.7945,50.68226 8.43646,4.21645 18.93634,7.1909 29.12242,8.24992 3.77206,0.39218 15.6503,-0.10019 19.75556,-0.81889 z m -22.04861,-11.14843 c -34.43572,-4.77831 -59.97223,-33.98936 -59.97223,-68.60182 0,-11.00665 2.91793,-22.95263 7.84143,-32.10278 1.72541,-3.20661 1.5573,-3.01341 2.17556,-2.5003 0.43285,0.35923 0.17151,1.1193 -1.74574,5.07736 -9.25532,19.1071 -9.19371,40.36142 0.172,59.33544 4.97384,10.07652 11.60431,18.10544 20.15521,24.4062 24.47133,18.03179 56.58817,18.05335 81.01863,0.0544 2.95543,-2.17739 3.28666,-2.33786 3.6035,-1.74584 0.29872,0.55817 -0.065,0.96004 -2.5284,2.79389 -8.71293,6.48611 -18.93231,10.92017 -29.5533,12.82282 -5.36634,0.96133 -15.90538,1.19068 -21.16666,0.46062 z m 56.67913,-11.99964 -0.96061,-1.2039 4.16161,-4.15122 c 6.45376,-6.43764 10.40269,-12.02728 14.39724,-20.379 4.81303,-10.06301 6.94022,-19.52411 6.94022,-30.86806 0,-11.34396 -2.12719,-20.80505 -6.94022,-30.86806 -3.9367,-8.23077 -7.92964,-13.9159 -14.12542,-20.111675 -6.19577,-6.195777 -11.8809,-10.188717 -20.11167,-14.125414 -10.06301,-4.813036 -19.52411,-6.940219 -30.86806,-6.940219 -11.34396,0 -20.80505,2.127183 -30.86806,6.940219 -8.23077,3.936697 -13.9159,7.929637 -20.11167,14.125414 -11.07276,11.072755 -18.06071,25.039835 -20.4757,40.925565 -0.78987,5.19572 -0.78987,14.91262 0,20.10834 0.9096,5.98334 2.60656,12.25577 4.6499,17.18728 0.45985,1.10982 0.83608,2.09793 0.83608,2.19581 0,0.27891 -2.02312,1.25441 -2.60156,1.25441 -1.14989,0 -4.65076,-10.85366 -6.03084,-18.69723 -0.80712,-4.58723 -1.09455,-14.40194 -0.56889,-19.42581 1.445,-13.81035 6.52184,-26.84868 14.78038,-37.95892 2.97818,-4.006559 10.99351,-12.021893 15.00007,-15.000072 27.11003,-20.151592 63.67055,-20.151592 90.78058,0 4.00656,2.978179 12.02189,10.993513 15.00007,15.000072 20.14981,27.10762 20.1419,63.88402 -0.0195,90.78058 -2.33714,3.11788 -9.27301,10.54285 -10.99135,11.76641 l -0.91196,0.64937 -0.96061,-1.20389 z"
         id="path3886"
         inkscape:connector-curvature="0" />
    </g>
  </g>
</svg>
