<?xml version="1.0" encoding="UTF-8" standalone="no"?>
<!-- Created with Inkscape (http://www.inkscape.org/) -->

<svg
   xmlns:dc="http://purl.org/dc/elements/1.1/"
   xmlns:cc="http://creativecommons.org/ns#"
   xmlns:rdf="http://www.w3.org/1999/02/22-rdf-syntax-ns#"
   xmlns:svg="http://www.w3.org/2000/svg"
   xmlns="http://www.w3.org/2000/svg"
   xmlns:sodipodi="http://sodipodi.sourceforge.net/DTD/sodipodi-0.dtd"
   xmlns:inkscape="http://www.inkscape.org/namespaces/inkscape"
   width="210mm"
   height="297mm"
   viewBox="0 0 210 297"
   version="1.1"
   id="svg3786"
   inkscape:version="0.92.3 (2405546, 2018-03-11)"
   sodipodi:docname="eyes.svg">
  <defs
     id="defs3780" />
  <sodipodi:namedview
     id="base"
     pagecolor="#ffffff"
     bordercolor="#666666"
     borderopacity="1.0"
     inkscape:pageopacity="0.0"
     inkscape:pageshadow="2"
     inkscape:zoom="0.35"
     inkscape:cx="23.417026"
     inkscape:cy="592.04468"
     inkscape:document-units="mm"
     inkscape:current-layer="layer1"
     showgrid="false"
     inkscape:window-width="1440"
     inkscape:window-height="837"
     inkscape:window-x="-8"
     inkscape:window-y="-8"
     inkscape:window-maximized="1" />
  <metadata
     id="metadata3783">
    <rdf:RDF>
      <cc:Work
         rdf:about="">
        <dc:format>image/svg+xml</dc:format>
        <dc:type
           rdf:resource="http://purl.org/dc/dcmitype/StillImage" />
        <dc:title></dc:title>
      </cc:Work>
    </rdf:RDF>
  </metadata>
  <g
     inkscape:label="Capa 1"
     inkscape:groupmode="layer"
     id="layer1">
    <g
       id="g3901"
       transform="matrix(0.55103294,0,0,0.55103294,235.91941,87.159703)">
      <path
         style="fill:#5d5d5d;stroke-width:0.35277781"
         d="m -231.76239,163.7344 c 0.33955,-0.0887 0.89517,-0.0887 1.23472,0 0.33955,0.0887 0.0617,0.16134 -0.61736,0.16134 -0.6791,0 -0.95691,-0.0726 -0.61736,-0.16134 z m 5.64444,0 c 0.33955,-0.0887 0.89518,-0.0887 1.23472,0 0.33955,0.0887 0.0617,0.16134 -0.61736,0.16134 -0.67909,0 -0.95691,-0.0726 -0.61736,-0.16134 z m -3.70417,-3.89568 c 0.82462,-0.0743 2.174,-0.0743 2.99862,0 0.82461,0.0743 0.14993,0.13504 -1.49931,0.13504 -1.64924,0 -2.32392,-0.0608 -1.49931,-0.13504 z m -5.26961,-0.33546 c 0.25466,-0.10191 0.55893,-0.0894 0.67616,0.0278 0.11722,0.11722 -0.0911,0.2006 -0.46303,0.18528 -0.41096,-0.0169 -0.49456,-0.10052 -0.21313,-0.21313 z m 13.05278,0 c 0.25465,-0.10191 0.55893,-0.0894 0.67615,0.0278 0.11723,0.11722 -0.0911,0.2006 -0.46302,0.18528 -0.41097,-0.0169 -0.49456,-0.10052 -0.21313,-0.21313 z m -49.34945,-13.42915 -0.85525,-0.97014 0.97014,0.85524 c 0.90674,0.79936 1.13192,1.08504 0.85525,1.08504 -0.0632,0 -0.49976,-0.43657 -0.97014,-0.97014 z m 81.82615,-0.35278 c -0.43881,-0.55953 -0.42633,-0.57201 0.13319,-0.1332 0.33955,0.2663 0.61736,0.54411 0.61736,0.61737 0,0.29035 -0.28969,0.10347 -0.75055,-0.48417 z m -78.98928,-2.46945 -1.92823,-2.02847 2.02848,1.92823 c 1.11565,1.06052 2.02847,1.97334 2.02847,2.02847 0,0.26185 -0.33734,-0.0437 -2.12872,-1.92823 z m 85.38428,0.48417 c 0,-0.0733 0.27781,-0.35107 0.61736,-0.61736 0.55953,-0.43881 0.57201,-0.42633 0.1332,0.13319 -0.46086,0.58764 -0.75056,0.77452 -0.75056,0.48417 z m -47.36042,-20.91433 c 0.24253,-0.0979 0.63941,-0.0979 0.88194,0 0.24254,0.0979 0.0441,0.17794 -0.44097,0.17794 -0.48507,0 -0.68351,-0.0801 -0.44097,-0.17794 z m 4.58611,0 c 0.24254,-0.0979 0.63941,-0.0979 0.88195,0 0.24253,0.0979 0.0441,0.17794 -0.44098,0.17794 -0.48507,0 -0.6835,-0.0801 -0.44097,-0.17794 z m -16.32923,-5.85178 -1.75063,-1.85209 1.85208,1.75063 c 1.72099,1.62672 2.01387,1.95354 1.75063,1.95354 -0.0558,0 -0.88924,-0.83344 -1.85208,-1.85208 z m 28.58826,0.0882 c 0.95555,-0.97014 1.81674,-1.76389 1.91376,-1.76389 0.097,0 -0.60543,0.79375 -1.56098,1.76389 -0.95555,0.97014 -1.81674,1.76389 -1.91376,1.76389 -0.097,0 0.60543,-0.79375 1.56098,-1.76389 z m 45.71258,-8.31967 c 0.0169,-0.41097 0.10052,-0.49456 0.21313,-0.21314 0.10191,0.25466 0.0894,0.55893 -0.0278,0.67616 -0.11723,0.11722 -0.20061,-0.0911 -0.18529,-0.46302 z m -3.88056,-0.70556 c 0.0169,-0.41097 0.10052,-0.49456 0.21314,-0.21314 0.1019,0.25466 0.0894,0.55894 -0.0278,0.67616 -0.11722,0.11723 -0.2006,-0.0911 -0.18528,-0.46302 z m -76.17216,-2.96921 c 0,-0.48507 0.0801,-0.68351 0.17794,-0.44098 0.0979,0.24254 0.0979,0.63941 0,0.88195 -0.0979,0.24253 -0.17794,0.0441 -0.17794,-0.44097 z m 40.21667,0 c 0,-0.48507 0.0801,-0.68351 0.17794,-0.44098 0.0979,0.24254 0.0979,0.63941 0,0.88195 -0.0979,0.24253 -0.17794,0.0441 -0.17794,-0.44097 z m -40.21667,-4.58611 c 0,-0.485074 0.0801,-0.683511 0.17794,-0.44098 0.0979,0.24254 0.0979,0.63941 0,0.88195 -0.0979,0.24253 -0.17794,0.0441 -0.17794,-0.44097 z m 40.21667,0 c 0,-0.485074 0.0801,-0.683511 0.17794,-0.44098 0.0979,0.24254 0.0979,0.63941 0,0.88195 -0.0979,0.24253 -0.17794,0.0441 -0.17794,-0.44097 z m -77.73296,-1.299324 c 0.25466,-0.101907 0.55893,-0.08938 0.67616,0.02783 0.11722,0.117225 -0.0911,0.200604 -0.46302,0.185286 -0.41097,-0.01693 -0.49456,-0.10052 -0.21314,-0.213134 z m 113.68845,-0.670355 c 0.0169,-0.410969 0.10052,-0.494559 0.21314,-0.213138 0.1019,0.25466 0.0894,0.558934 -0.0278,0.676159 -0.11722,0.117224 -0.2006,-0.09114 -0.18528,-0.463021 z m 3.88056,-0.705556 c 0.0169,-0.410968 0.10052,-0.494559 0.21313,-0.213138 0.10191,0.25466 0.0894,0.558934 -0.0278,0.676159 -0.11723,0.117225 -0.20061,-0.09114 -0.18529,-0.463021 z m -116.76946,-1.058333 c 0.0169,-0.410969 0.10052,-0.494559 0.21314,-0.213138 0.1019,0.25466 0.0894,0.558934 -0.0278,0.676159 -0.11722,0.117224 -0.2006,-0.09114 -0.18528,-0.463021 z m 42.48188,-8.260882 c 0.95555,-0.970139 1.81674,-1.763889 1.91375,-1.763889 0.097,0 -0.60542,0.79375 -1.56098,1.763889 -0.95555,0.970139 -1.81674,1.763889 -1.91375,1.763889 -0.097,0 0.60543,-0.79375 1.56098,-1.763889 z m 28.56174,-0.08819 -1.75063,-1.852084 1.85208,1.750628 c 1.72099,1.626715 2.01387,1.953539 1.75063,1.953539 -0.0558,0 -0.88924,-0.833437 -1.85208,-1.852083 z m -16.83188,-5.789888 c 0.24253,-0.09786 0.63941,-0.09786 0.88194,0 0.24254,0.09786 0.0441,0.177937 -0.44097,0.177937 -0.48507,0 -0.68351,-0.08007 -0.44097,-0.177937 z m 4.58611,0 c 0.24254,-0.09786 0.63941,-0.09786 0.88195,0 0.24253,0.09786 0.0441,0.177937 -0.44098,0.177937 -0.48507,0 -0.6835,-0.08007 -0.44097,-0.177937 z m -42.59792,-19.345531 c 1.0539,-1.067153 1.99555,-1.940278 2.09257,-1.940278 0.097,0 -0.6859,0.873125 -1.73979,1.940278 -1.0539,1.067153 -1.99555,1.940278 -2.09257,1.940278 -0.097,0 0.6859,-0.873125 1.73979,-1.940278 z m 85.68001,-0.08819 c -0.43881,-0.559527 -0.42633,-0.572005 0.13319,-0.133195 0.33955,0.266294 0.61736,0.544107 0.61736,0.617361 0,0.29035 -0.28969,0.103473 -0.75055,-0.484166 z m -88.50223,-2.734028 c 0.4557,-0.48507 0.90792,-0.881945 1.00493,-0.881945 0.097,0 -0.19645,0.396875 -0.65215,0.881945 -0.4557,0.485069 -0.90792,0.881944 -1.00494,0.881944 -0.097,0 0.19646,-0.396875 0.65216,-0.881944 z m 82.85778,-2.910417 c -0.43881,-0.559527 -0.42633,-0.572005 0.1332,-0.133195 0.33955,0.266294 0.61736,0.544107 0.61736,0.617361 0,0.29035 -0.2897,0.103473 -0.75056,-0.484166 z m -46.58781,-10.559737 c 0.25466,-0.101907 0.55893,-0.08938 0.67616,0.02783 0.11722,0.117225 -0.0911,0.200604 -0.46303,0.185286 -0.41096,-0.01693 -0.49456,-0.10052 -0.21313,-0.213134 z m 13.05278,0 c 0.25465,-0.101907 0.55893,-0.08938 0.67615,0.02783 0.11723,0.117225 -0.0911,0.200604 -0.46302,0.185286 -0.41097,-0.01693 -0.49456,-0.10052 -0.21313,-0.213134 z m -7.78317,-0.370099 c 0.82462,-0.07427 2.174,-0.07427 2.99862,0 0.82461,0.07427 0.14993,0.135043 -1.49931,0.135043 -1.64924,0 -2.32392,-0.06077 -1.49931,-0.135043 z m -1.94027,-3.865429 c 0.33955,-0.08873 0.89517,-0.08873 1.23472,0 0.33955,0.08873 0.0617,0.161336 -0.61736,0.161336 -0.6791,0 -0.95691,-0.0726 -0.61736,-0.161336 z m 5.64444,0 c 0.33955,-0.08873 0.89518,-0.08873 1.23472,0 0.33955,0.08873 0.0617,0.161336 -0.61736,0.161336 -0.67909,0 -0.95691,-0.0726 -0.61736,-0.161336 z"
         id="path3905"
         inkscape:connector-curvature="0" />
      <path
         style="fill:#000000;stroke-width:0.35277781"
         d="m -233.55288,163.59574 c -24.67059,-2.13442 -45.93537,-19.52545 -52.78774,-43.17155 -0.49284,-1.70071 -0.89608,-3.21925 -0.89608,-3.37451 0,-0.23553 2.24329,-0.82035 3.30496,-0.86159 0.1685,-0.007 0.73596,1.41685 1.26104,3.1631 2.73227,9.08677 7.64487,17.31509 14.31801,23.98187 4.4626,4.45834 8.96059,7.6734 14.80627,10.58317 7.19185,3.57985 12.65976,5.11473 20.90208,5.86734 8.70721,0.79505 19.03915,-0.95585 27.03556,-4.58159 l 2.2356,-1.01368 0.75435,1.55269 c 0.4149,0.85398 0.75436,1.68533 0.75436,1.84744 0,0.50251 -7.32219,3.24086 -11.46059,4.28603 -6.66145,1.68237 -13.72761,2.28367 -20.22782,1.72128 z m 45.0249,-16.92085 -1.28256,-1.54402 3.10001,-3.24267 c 5.39581,-5.64412 9.81813,-13.13368 12.36686,-20.94427 2.09116,-6.40837 2.6417,-10.08549 2.6417,-17.64413 0,-4.873454 -0.16667,-7.419872 -0.65807,-10.054169 -1.41794,-7.601283 -4.62317,-15.383635 -9.0803,-22.047103 -2.56666,-3.837214 -8.40116,-10.030419 -12.16621,-12.914219 -2.60008,-1.991497 -2.60093,-1.992718 -2.0521,-2.918283 1.47412,-2.485969 1.24941,-2.474807 4.27767,-0.212478 8.09684,6.048901 15.59054,15.971549 19.46564,25.775082 8.6804,21.96029 3.89085,46.72774 -12.40814,64.16438 l -2.92195,3.1259 z m -41.73511,-23.84549 c -8.1482,-1.23568 -14.63146,-6.87809 -16.96771,-14.7671 -0.83354,-2.81467 -0.83425,-7.7707 -0.001,-10.564892 2.08323,-6.990159 7.19092,-12.103962 14.147,-14.163938 2.81603,-0.833942 7.7673,-0.833942 10.58333,0 3.56524,1.055811 6.62231,2.886831 9.09344,5.446484 3.81041,3.946892 5.67889,8.550135 5.67889,13.990676 0,8.99463 -5.86686,16.81084 -14.5286,19.35597 -2.00948,0.59046 -6.27573,0.96502 -8.00484,0.7028 z m -58.22564,-26.144186 c 0.1327,-1.309687 0.64151,-4.194394 1.13069,-6.410456 5.47968,-24.823944 25.59293,-43.365681 50.94628,-46.96569 3.77513,-0.536046 12.34253,-0.544781 16.0583,-0.01637 3.02222,0.429779 9.55805,1.922459 9.89558,2.259997 0.11013,0.110127 -0.0302,0.884841 -0.31192,1.721584 -0.60307,1.791399 -0.60855,1.792076 -5.55856,0.685535 -9.64219,-2.15544 -20.33091,-1.606391 -29.87828,1.534767 -4.07468,1.340605 -11.46414,5.142266 -15.26689,7.854379 -12.3398,8.80071 -20.96047,23.202581 -23.00427,38.431403 l -0.44102,3.2861 h -1.9056 -1.90559 z"
         id="path3903"
         inkscape:connector-curvature="0" />
    </g>
  </g>
</svg>
