<?xml version="1.0" encoding="UTF-8" standalone="no"?>
<!-- Created with Inkscape (http://www.inkscape.org/) -->

<svg
   xmlns:dc="http://purl.org/dc/elements/1.1/"
   xmlns:cc="http://creativecommons.org/ns#"
   xmlns:rdf="http://www.w3.org/1999/02/22-rdf-syntax-ns#"
   xmlns:svg="http://www.w3.org/2000/svg"
   xmlns="http://www.w3.org/2000/svg"
   xmlns:sodipodi="http://sodipodi.sourceforge.net/DTD/sodipodi-0.dtd"
   xmlns:inkscape="http://www.inkscape.org/namespaces/inkscape"
   width="210mm"
   height="297mm"
   viewBox="0 0 210 297"
   version="1.1"
   id="svg3786"
   inkscape:version="0.92.3 (2405546, 2018-03-11)"
   sodipodi:docname="innerrings.svg">
  <defs
     id="defs3780" />
  <sodipodi:namedview
     id="base"
     pagecolor="#ffffff"
     bordercolor="#666666"
     borderopacity="1.0"
     inkscape:pageopacity="0.0"
     inkscape:pageshadow="2"
     inkscape:zoom="0.35"
     inkscape:cx="23.417026"
     inkscape:cy="592.04468"
     inkscape:document-units="mm"
     inkscape:current-layer="layer1"
     showgrid="false"
     inkscape:window-width="1440"
     inkscape:window-height="837"
     inkscape:window-x="-8"
     inkscape:window-y="-8"
     inkscape:window-maximized="1" />
  <metadata
     id="metadata3783">
    <rdf:RDF>
      <cc:Work
         rdf:about="">
        <dc:format>image/svg+xml</dc:format>
        <dc:type
           rdf:resource="http://purl.org/dc/dcmitype/StillImage" />
        <dc:title></dc:title>
      </cc:Work>
    </rdf:RDF>
  </metadata>
  <g
     inkscape:label="Capa 1"
     inkscape:groupmode="layer"
     id="layer1">
    <g
       id="g3867"
       transform="matrix(0.57704573,0,0,0.57704573,224.43387,66.551961)">
      <path
         style="fill:#5c5c5c;stroke-width:0.35277781"
         d="m -202.88459,241.4925 c -0.10539,-0.27465 -0.1242,-0.94933 -0.0418,-1.4993 0.1273,-0.84946 0.1578,-0.80285 0.2027,0.30974 l 0.0529,1.30968 3.26319,0.11641 3.2632,0.11641 -3.27427,0.0732 c -2.54826,0.057 -3.31675,-0.0375 -3.46589,-0.42616 z m -6.90793,-0.0944 c 0.25466,-0.10191 0.55893,-0.0894 0.67616,0.0278 0.11722,0.11723 -0.0911,0.20061 -0.46303,0.18529 -0.41096,-0.0169 -0.49455,-0.10052 -0.21313,-0.21314 z m 4.05601,-1.69929 c 0.002,-1.16417 0.0678,-1.59789 0.14636,-0.96382 0.0785,0.63406 0.0769,1.58656 -0.004,2.11666 -0.0805,0.5301 -0.14474,0.0113 -0.14276,-1.15284 z m 13.93566,1.69929 c 0.25465,-0.10191 0.55893,-0.0894 0.67615,0.0278 0.11723,0.11723 -0.0911,0.20061 -0.46302,0.18529 -0.41097,-0.0169 -0.49456,-0.10052 -0.21313,-0.21314 z m -26.32342,-1.69929 c 0.007,-0.58209 0.0863,-0.7775 0.1757,-0.43426 0.0894,0.34324 0.0836,0.81949 -0.0131,1.05833 -0.0966,0.23884 -0.16982,-0.042 -0.16263,-0.62407 z m 27.52974,-0.17639 c 0,-0.6791 0.0726,-0.95691 0.16133,-0.61736 0.0887,0.33955 0.0887,0.89517 0,1.23472 -0.0887,0.33955 -0.16133,0.0617 -0.16133,-0.61736 z m 2.80915,-0.88195 c 0.007,-0.58208 0.0863,-0.7775 0.1757,-0.43426 0.0894,0.34325 0.0836,0.8195 -0.0131,1.05834 -0.0966,0.23884 -0.16982,-0.042 -0.16263,-0.62408 z m -33.20204,-0.0294 c 0.0169,-0.41097 0.10053,-0.49456 0.21314,-0.21314 0.10191,0.25466 0.0894,0.55893 -0.0278,0.67616 -0.11723,0.11722 -0.20061,-0.0911 -0.18529,-0.46302 z m 3.20285,-1.20534 c 0,-0.48507 0.0801,-0.68351 0.17794,-0.44097 0.0979,0.24253 0.0979,0.63941 0,0.88194 -0.0979,0.24254 -0.17794,0.0441 -0.17794,-0.44097 z m -2.85007,-0.55856 c 0.0169,-0.41097 0.10052,-0.49456 0.21314,-0.21314 0.1019,0.25466 0.0894,0.55893 -0.0278,0.67616 -0.11722,0.11722 -0.2006,-0.0911 -0.18528,-0.46302 z m 29.68733,-0.85255 c 0,-0.6791 0.0726,-0.95691 0.16134,-0.61736 0.0887,0.33955 0.0887,0.89517 0,1.23472 -0.0887,0.33955 -0.16134,0.0617 -0.16134,-0.61736 z m 2.80915,-0.17639 c 0.007,-0.58208 0.0863,-0.7775 0.1757,-0.43426 0.0894,0.34324 0.0836,0.81949 -0.0131,1.05834 -0.0966,0.23884 -0.16981,-0.042 -0.16262,-0.62408 z m -29.29363,-0.52917 c 0,-0.48507 0.0801,-0.6835 0.17794,-0.44097 0.0979,0.24254 0.0979,0.63941 0,0.88195 -0.0979,0.24253 -0.17794,0.0441 -0.17794,-0.44098 z m -2.85007,-0.20578 c 0.0169,-0.41097 0.10052,-0.49456 0.21313,-0.21314 0.10191,0.25466 0.0894,0.55893 -0.0278,0.67616 -0.11722,0.11722 -0.2006,-0.0911 -0.18529,-0.46302 z m 14.89813,-2.44005 c 0.002,-1.16417 0.0678,-1.59789 0.14636,-0.96382 0.0785,0.63407 0.0769,1.58657 -0.004,2.11667 -0.0805,0.5301 -0.14474,0.0113 -0.14276,-1.15285 z m -14.54535,0.67616 c 0.0169,-0.41097 0.10052,-0.49456 0.21313,-0.21314 0.10191,0.25466 0.0894,0.55894 -0.0278,0.67616 -0.11723,0.11722 -0.20061,-0.0911 -0.18529,-0.46302 z m 2.85007,-0.14699 c 0,-0.48507 0.0801,-0.68351 0.17794,-0.44097 0.0979,0.24253 0.0979,0.6394 0,0.88194 -0.0979,0.24253 -0.17794,0.0441 -0.17794,-0.44097 z m 28.58808,-0.17639 c 0.007,-0.58208 0.0862,-0.7775 0.17569,-0.43426 0.0894,0.34324 0.0836,0.81949 -0.0131,1.05833 -0.0966,0.23884 -0.16981,-0.042 -0.16262,-0.62407 z m -2.80916,-0.52917 c 0,-0.6791 0.0726,-0.95691 0.16134,-0.61736 0.0887,0.33955 0.0887,0.89517 0,1.23472 -0.0887,0.33955 -0.16134,0.0617 -0.16134,-0.61736 z m 30.12424,0.16275 c -0.34042,-0.88712 -0.23999,-1.11603 0.17587,-0.40087 0.20592,0.3541 0.30008,0.71813 0.20925,0.80896 -0.0908,0.0908 -0.26414,-0.0928 -0.38512,-0.40809 z m -41.39889,-1.57386 c 0,-0.87312 0.0688,-1.23031 0.15288,-0.79375 0.0841,0.43656 0.0841,1.15094 0,1.5875 -0.0841,0.43656 -0.15288,0.0794 -0.15288,-0.79375 z m -17.00156,0.49977 c 0.0169,-0.41097 0.10052,-0.49456 0.21313,-0.21314 0.10191,0.25466 0.0894,0.55894 -0.0278,0.67616 -0.11723,0.11723 -0.20061,-0.0911 -0.18529,-0.46302 z m 2.82222,-0.35278 c 0.0169,-0.41097 0.10052,-0.49456 0.21313,-0.21314 0.10191,0.25466 0.0894,0.55894 -0.0278,0.67616 -0.11723,0.11723 -0.2006,-0.0911 -0.18529,-0.46302 z m 27.89729,-0.85255 c 0,-0.48506 0.0801,-0.6835 0.17794,-0.44097 0.0979,0.24254 0.0979,0.63941 0,0.88195 -0.0979,0.24253 -0.17794,0.0441 -0.17794,-0.44098 z m -30.36674,-0.55856 c 0.0169,-0.41097 0.10052,-0.49456 0.21314,-0.21314 0.10191,0.25466 0.0894,0.55894 -0.0278,0.67616 -0.11722,0.11723 -0.2006,-0.0911 -0.18528,-0.46302 z m 2.88879,-0.64692 c 0.0451,-0.37198 0.3201,-0.74126 0.61114,-0.82061 0.34035,-0.0928 0.39069,-0.0403 0.14109,0.14715 -0.21344,0.1603 -0.48845,0.52957 -0.61114,0.82061 -0.15673,0.37181 -0.19869,0.32805 -0.14109,-0.14715 z m 9.69517,0.26629 c 0.24253,-0.0979 0.63941,-0.0979 0.88194,0 0.24254,0.0979 0.0441,0.17794 -0.44097,0.17794 -0.48507,0 -0.68351,-0.0801 -0.44097,-0.17794 z m 11.28889,0 c 0.24253,-0.0979 0.63941,-0.0979 0.88194,0 0.24254,0.0979 0.0441,0.17794 -0.44097,0.17794 -0.48507,0 -0.68351,-0.0801 -0.44097,-0.17794 z m -54.0632,-1.53025 c 0.30101,-0.58208 0.62666,-1.05833 0.72367,-1.05833 0.097,0 -0.0699,0.47625 -0.37089,1.05833 -0.30101,0.58208 -0.62666,1.05833 -0.72368,1.05833 -0.097,0 0.0699,-0.47625 0.3709,-1.05833 z m 102.28036,-1.05833 c 0,-0.45694 0.11928,-0.57621 0.34774,-0.34774 0.22847,0.22846 0.22847,0.46701 0,0.69547 -0.22846,0.22847 -0.34774,0.1092 -0.34774,-0.34773 z m -99.45814,-4.23334 c 0.30101,-0.58208 0.62666,-1.05833 0.72368,-1.05833 0.097,0 -0.0699,0.47625 -0.3709,1.05833 -0.30101,0.58209 -0.62666,1.05834 -0.72367,1.05834 -0.097,0 0.0699,-0.47625 0.37089,-1.05834 z m -14.2875,0.21959 c 0,-0.0733 0.27781,-0.35107 0.61736,-0.61736 0.55953,-0.43881 0.57201,-0.42634 0.1332,0.13319 -0.46086,0.58764 -0.75056,0.77452 -0.75056,0.48417 z m 113.59445,-1.27792 c -0.20768,-0.38806 -0.29822,-0.70556 -0.20121,-0.70556 0.097,0 0.34631,0.3175 0.55399,0.70556 0.20768,0.38806 0.29823,0.70556 0.20122,0.70556 -0.097,0 -0.34632,-0.3175 -0.554,-0.70556 z m -115.71112,-0.83875 c 0,-0.0733 0.27782,-0.35107 0.61737,-0.61736 0.55952,-0.43881 0.572,-0.42633 0.13319,0.13319 -0.46086,0.58764 -0.75056,0.77452 -0.75056,0.48417 z m 1.05834,-1.41111 c 0,-0.0733 0.27781,-0.35107 0.61736,-0.61736 0.55953,-0.43881 0.572,-0.42633 0.13319,0.13319 -0.46085,0.58764 -0.75055,0.77452 -0.75055,0.48417 z m 112.8889,-0.57236 c -0.20768,-0.38806 -0.29823,-0.70556 -0.20122,-0.70556 0.097,0 0.34631,0.3175 0.55399,0.70556 0.20768,0.38805 0.29823,0.70555 0.20122,0.70555 -0.097,0 -0.34631,-0.3175 -0.55399,-0.70555 z m -108.65557,-0.48598 c 0,-0.0732 0.27781,-0.35106 0.61736,-0.61736 0.55953,-0.43881 0.57201,-0.42633 0.1332,0.1332 -0.46086,0.58764 -0.75056,0.77452 -0.75056,0.48416 z m -3.175,-0.35277 c 0,-0.0733 0.27781,-0.35107 0.61736,-0.61736 0.55953,-0.43881 0.57201,-0.42634 0.1332,0.13319 -0.46086,0.58764 -0.75056,0.77452 -0.75056,0.48417 z m 125.5439,-0.48417 c -0.43881,-0.55953 -0.42633,-0.572 0.13319,-0.13319 0.58764,0.46085 0.77452,0.75055 0.48417,0.75055 -0.0733,0 -0.35107,-0.27781 -0.61736,-0.61736 z m -124.48557,-0.92694 c 0,-0.0733 0.27782,-0.35107 0.61737,-0.61737 0.55952,-0.43881 0.572,-0.42633 0.13319,0.1332 -0.46086,0.58764 -0.75056,0.77452 -0.75056,0.48417 z m 123.07446,-0.83695 c -0.43881,-0.55953 -0.42633,-0.572 0.13319,-0.13319 0.33955,0.26629 0.61736,0.5441 0.61736,0.61736 0,0.29035 -0.28969,0.10347 -0.75055,-0.48417 z m -135.35991,-1.60995 -0.76678,-0.8162 1.14625,-1.03588 1.14626,-1.03589 -0.96549,1.07279 -0.96549,1.07278 0.7793,0.7793 c 0.42862,0.42862 0.69233,0.7793 0.58602,0.7793 -0.10631,0 -0.53835,-0.36729 -0.96007,-0.8162 z m 16.87157,0.68301 c 0,-0.0733 0.27781,-0.35107 0.61736,-0.61736 0.55952,-0.43881 0.572,-0.42634 0.13319,0.13319 -0.46086,0.58764 -0.75055,0.77452 -0.75055,0.48417 z m 125.94167,-0.74875 c 0.4557,-0.48507 0.90792,-0.88195 1.00494,-0.88195 0.097,0 -0.19646,0.39688 -0.65216,0.88195 -0.4557,0.48507 -0.90792,0.88194 -1.00493,0.88194 -0.097,0 0.19645,-0.39687 0.65215,-0.88194 z m -9.02935,-0.26459 -0.67204,-0.79375 0.79375,0.67204 c 0.74593,0.63155 0.95435,0.91546 0.67204,0.91546 -0.0669,0 -0.42413,-0.35718 -0.79375,-0.79375 z m -119.73455,0.30778 c 0,-0.0733 0.27782,-0.35107 0.61736,-0.61736 0.55953,-0.43881 0.57201,-0.42633 0.1332,0.13319 -0.46086,0.58764 -0.75056,0.77452 -0.75056,0.48417 z m 1.05834,-1.41111 c 0,-0.0733 0.27781,-0.35107 0.61736,-0.61736 0.55952,-0.43881 0.572,-0.42633 0.13319,0.13319 -0.46086,0.58764 -0.75055,0.77452 -0.75055,0.48417 z m 117.2651,-0.66056 -0.67204,-0.79375 0.79375,0.67204 c 0.74593,0.63155 0.95435,0.91546 0.67204,0.91546 -0.0669,0 -0.42413,-0.35718 -0.79375,-0.79375 z m -131.02344,-5.02708 c 2.41953,-2.42535 4.47851,-4.40972 4.57553,-4.40972 0.097,0 -1.80323,1.98437 -4.22275,4.40972 -2.41952,2.42535 -4.47851,4.40972 -4.57552,4.40972 -0.097,0 1.80322,-1.98437 4.22274,-4.40972 z m 129.61233,3.2632 -0.67204,-0.79375 0.79375,0.67203 c 0.74593,0.63155 0.95435,0.91547 0.67204,0.91547 -0.0669,0 -0.42413,-0.35719 -0.79375,-0.79375 z m -126.7901,-2.20487 c 1.24996,-1.26118 2.35204,-2.29305 2.44906,-2.29305 0.097,0 -0.84632,1.03187 -2.09629,2.29305 -1.24997,1.26118 -2.35204,2.29306 -2.44906,2.29306 -0.097,0 0.84632,-1.03188 2.09629,-2.29306 z m 142.18705,-0.68697 -1.5699,-1.78247 1.72927,1.66332 c 0.9511,0.91482 1.65755,1.71693 1.5699,1.78247 -0.0876,0.0655 -0.86582,-0.68297 -1.72927,-1.66332 z m -152.44431,0.59878 -0.85525,-0.97014 0.97014,0.85524 c 0.90674,0.79936 1.13192,1.08504 0.85525,1.08504 -0.0632,0 -0.49976,-0.43656 -0.97014,-0.97014 z m 155.55671,-1.76389 c -0.43881,-0.55953 -0.42633,-0.572 0.1332,-0.13319 0.33954,0.26629 0.61736,0.5441 0.61736,0.61736 0,0.29035 -0.2897,0.10347 -0.75056,-0.48417 z m -141.11112,-1.05833 c -0.43881,-0.55953 -0.42633,-0.57201 0.13319,-0.1332 0.33955,0.2663 0.61736,0.54411 0.61736,0.61736 0,0.29035 -0.28969,0.10348 -0.75055,-0.48416 z m 126.16306,-0.0882 c 0.35119,-0.38805 0.7179,-0.70555 0.81491,-0.70555 0.097,0 -0.11094,0.3175 -0.46213,0.70555 -0.35118,0.38806 -0.71789,0.70556 -0.81491,0.70556 -0.097,0 0.11095,-0.3175 0.46213,-0.70556 z m 12.33063,-1.14652 -1.39451,-1.49931 1.4993,1.39451 c 1.39434,1.29688 1.66142,1.6041 1.39451,1.6041 -0.0576,0 -0.73232,-0.67469 -1.4993,-1.4993 z m -5.46165,-1.23473 -2.28286,-2.38125 2.38125,2.28287 c 2.2118,2.12042 2.54251,2.47963 2.28286,2.47963 -0.0541,0 -1.12568,-1.07156 -2.38125,-2.38125 z m 2.10787,-1.76389 -1.21573,-1.32291 1.32291,1.21573 c 0.72761,0.66865 1.32292,1.26396 1.32292,1.32292 0,0.26938 -0.29853,0.0156 -1.4301,-1.21574 z m -153.43936,0.13139 c 0,-0.0733 0.27782,-0.35106 0.61736,-0.61736 0.55953,-0.43881 0.57201,-0.42633 0.1332,0.1332 -0.46086,0.58764 -0.75056,0.77451 -0.75056,0.48416 z m 12.84288,-1.36611 -0.67204,-0.79375 0.79375,0.67204 c 0.74592,0.63155 0.95435,0.91546 0.67204,0.91546 -0.067,0 -0.42414,-0.35719 -0.79375,-0.79375 z m -10.9026,-0.26458 c 0.35119,-0.38806 0.7179,-0.70556 0.81491,-0.70556 0.097,0 -0.11094,0.3175 -0.46213,0.70556 -0.35119,0.38805 -0.7179,0.70555 -0.81491,0.70555 -0.097,0 0.11094,-0.3175 0.46213,-0.70555 z m -4.40972,-0.1332 c 0,-0.0733 0.27781,-0.35106 0.61736,-0.61736 0.55953,-0.43881 0.572,-0.42633 0.13319,0.1332 -0.46085,0.58764 -0.75055,0.77451 -0.75055,0.48416 z m 6.17361,-1.27791 c 0.35119,-0.38806 0.7179,-0.70556 0.81491,-0.70556 0.097,0 -0.11095,0.3175 -0.46213,0.70556 -0.35119,0.38805 -0.7179,0.70555 -0.81491,0.70555 -0.097,0 0.11094,-0.3175 0.46213,-0.70555 z m -4.7625,0.21958 c 0,-0.0733 0.27781,-0.35107 0.61736,-0.61736 0.55953,-0.43881 0.57201,-0.42633 0.1332,0.13319 -0.46086,0.58764 -0.75056,0.77452 -0.75056,0.48417 z m 1.41111,-1.05833 c 0,-0.0733 0.27781,-0.35107 0.61736,-0.61736 0.55953,-0.43881 0.57201,-0.42634 0.1332,0.13319 -0.46086,0.58764 -0.75056,0.77452 -0.75056,0.48417 z m 4.58611,0 c 0,-0.0733 0.27781,-0.35107 0.61736,-0.61736 0.55953,-0.43881 0.57201,-0.42634 0.1332,0.13319 -0.46086,0.58764 -0.75056,0.77452 -0.75056,0.48417 z m 162.06789,-0.66056 -0.67204,-0.79375 0.79375,0.67204 c 0.74593,0.63155 0.95435,0.91546 0.67204,0.91546 -0.067,0 -0.42413,-0.35719 -0.79375,-0.79375 z m -165.24289,-0.39778 c 0,-0.0733 0.27781,-0.35106 0.61736,-0.61736 0.55953,-0.43881 0.57201,-0.42633 0.1332,0.1332 -0.46086,0.58764 -0.75056,0.77451 -0.75056,0.48416 z m 4.93889,-0.35277 c 0,-0.0733 0.27781,-0.35107 0.61736,-0.61737 0.55953,-0.43881 0.57201,-0.42633 0.1332,0.1332 -0.46086,0.58764 -0.75056,0.77452 -0.75056,0.48417 z m -3.52778,-0.70556 c 0,-0.0733 0.27782,-0.35107 0.61736,-0.61736 0.55953,-0.43881 0.57201,-0.42633 0.1332,0.13319 -0.46086,0.58764 -0.75056,0.77452 -0.75056,0.48417 z m 5.29167,-0.21958 c -0.31795,-0.20548 -0.36147,-0.34413 -0.10902,-0.34738 0.23109,-0.003 0.51827,0.15335 0.63819,0.34738 0.27068,0.43798 0.14856,0.43798 -0.52917,0 z m 154.82446,-0.97014 c -0.43881,-0.55953 -0.42634,-0.57201 0.13319,-0.1332 0.33955,0.2663 0.61736,0.54411 0.61736,0.61736 0,0.29035 -0.2897,0.10348 -0.75055,-0.48416 z m 5.13951,0.0687 c -0.65759,-0.52684 -0.65326,-0.53335 0.10896,-0.16398 0.43656,0.21156 0.79375,0.45844 0.79375,0.54863 0,0.26995 -0.18295,0.192 -0.90271,-0.38465 z m -163.84453,0.0627 c 0,-0.0733 0.27782,-0.35107 0.61737,-0.61736 0.55952,-0.43881 0.572,-0.42634 0.13319,0.13319 -0.46086,0.58764 -0.75056,0.77452 -0.75056,0.48417 z m 155.17724,-2.60084 c -0.43881,-0.55952 -0.42633,-0.572 0.13319,-0.13319 0.33955,0.26629 0.61736,0.54411 0.61736,0.61736 0,0.29035 -0.28969,0.10347 -0.75055,-0.48417 z m -169.64113,-1.98528 c 0,-0.0733 0.27782,-0.35106 0.61737,-0.61736 0.55952,-0.43881 0.572,-0.42633 0.13319,0.1332 -0.46086,0.58764 -0.75056,0.77451 -0.75056,0.48416 z m 4.58612,-2.84059 c 0,-0.097 0.3175,-0.34631 0.70555,-0.55399 0.38806,-0.20768 0.70556,-0.29823 0.70556,-0.20121 0,0.097 -0.3175,0.34631 -0.70556,0.55399 -0.38805,0.20768 -0.70555,0.29823 -0.70555,0.20121 z m -4.58612,-0.71226 c 0,-0.097 0.47625,-0.42267 1.05834,-0.72367 0.58208,-0.30101 1.05833,-0.46791 1.05833,-0.3709 0,0.097 -0.47625,0.42267 -1.05833,0.72367 -0.58209,0.30101 -1.05834,0.46792 -1.05834,0.3709 z m 7.05556,-0.69885 c 0,-0.097 0.3175,-0.34631 0.70556,-0.55399 0.38805,-0.20768 0.70555,-0.29823 0.70555,-0.20121 0,0.097 -0.3175,0.34631 -0.70555,0.55399 -0.38806,0.20768 -0.70556,0.29823 -0.70556,0.20121 z m 177.99908,-1.50891 c -0.19144,-0.50278 -0.15092,-0.5433 0.19749,-0.19749 0.24109,0.2393 0.34948,0.52396 0.24087,0.63258 -0.10862,0.10861 -0.30588,-0.0872 -0.43836,-0.43509 z m -175.25854,-0.16284 c 0.205,-0.205 0.58096,-0.30331 0.83547,-0.21848 0.26421,0.0881 0.1043,0.24798 -0.37273,0.37273 -0.58679,0.15345 -0.72453,0.10754 -0.46274,-0.15425 z m -5.20998,-0.0988 c 0,-0.097 0.47625,-0.42267 1.05833,-0.72368 0.58208,-0.30101 1.05833,-0.46791 1.05833,-0.37089 0,0.097 -0.47625,0.42266 -1.05833,0.72367 -0.58208,0.30101 -1.05833,0.46791 -1.05833,0.3709 z m 181.68057,-2.44982 c 0,-0.0763 0.24636,-0.23319 0.54749,-0.34874 0.31394,-0.12047 0.45554,-0.0613 0.33195,0.13864 -0.20717,0.33522 -0.87944,0.49582 -0.87944,0.2101 z m -4.58612,-2.15441 c -0.48507,-0.27729 -0.72319,-0.50417 -0.52916,-0.50417 0.19403,0 0.74965,0.22688 1.23472,0.50417 0.48507,0.27729 0.72319,0.50416 0.52917,0.50416 -0.19403,0 -0.74966,-0.22687 -1.23473,-0.50416 z m -7.14963,-0.22017 c 0.23931,-0.24109 0.52396,-0.34949 0.63258,-0.24087 0.10862,0.10862 -0.0872,0.30588 -0.43509,0.43836 -0.50278,0.19144 -0.5433,0.15092 -0.19749,-0.19749 z m 2.21074,-2.07289 c -0.29104,-0.18809 -0.37041,-0.34197 -0.17638,-0.34197 0.19402,0 0.5909,0.15388 0.88194,0.34197 0.29104,0.18809 0.37042,0.34197 0.17639,0.34197 -0.19403,0 -0.5909,-0.15388 -0.88195,-0.34197 z m -172.57449,-5.53265 c 0.25466,-0.10191 0.55894,-0.0894 0.67616,0.0278 0.11723,0.11723 -0.0911,0.20061 -0.46302,0.18529 -0.41097,-0.0169 -0.49456,-0.10052 -0.21314,-0.21314 z m 186.68561,-1.52291 c -0.31796,-0.20547 -0.36147,-0.34413 -0.10902,-0.34737 0.23109,-0.003 0.51827,0.15335 0.63818,0.34737 0.27069,0.43799 0.14857,0.43799 -0.52916,0 z m 0.99218,-3.0632 c 0.254664,-0.10191 0.558939,-0.0894 0.676163,0.0278 0.117225,0.11722 -0.09114,0.2006 -0.463021,0.18529 -0.410972,-0.0169 -0.494562,-0.10052 -0.213142,-0.21314 z m -12.02237,-0.50835 c 0.2393,-0.2411 0.52396,-0.34949 0.63258,-0.24087 0.10861,0.10862 -0.0872,0.30588 -0.4351,0.43836 -0.50277,0.19144 -0.54329,0.15092 -0.19748,-0.19749 z m -191.1115,-5.0127 c 0,-0.32684 0.27419,-0.58557 0.61737,-0.58257 0.35231,0.003 0.4659,0.11844 0.26458,0.26869 -0.19403,0.14481 -0.47184,0.40696 -0.61736,0.58256 -0.14552,0.1756 -0.26459,0.0547 -0.26459,-0.26868 z m 4.87275,-1.53451 c 0.25466,-0.10191 0.55893,-0.0894 0.67616,0.0278 0.11722,0.11723 -0.0911,0.20061 -0.46302,0.18529 -0.41097,-0.0169 -0.49456,-0.10052 -0.21314,-0.21313 z m 1.41111,-0.35278 c 0.25466,-0.1019 0.55893,-0.0894 0.67616,0.0278 0.11722,0.11722 -0.0911,0.2006 -0.46302,0.18528 -0.41097,-0.0169 -0.49456,-0.10052 -0.21314,-0.21313 z m 3.175,-0.70555 c 0.25466,-0.10191 0.55893,-0.0894 0.67616,0.0278 0.11722,0.11723 -0.0911,0.2006 -0.46302,0.18529 -0.41097,-0.0169 -0.49456,-0.10052 -0.21314,-0.21314 z m 1.41111,-0.35278 c 0.25466,-0.10191 0.55893,-0.0894 0.67616,0.0278 0.11722,0.11723 -0.0911,0.20061 -0.46302,0.18529 -0.41097,-0.0169 -0.49456,-0.10052 -0.21314,-0.21314 z m -9.87778,-0.70556 c 0.25466,-0.1019 0.55893,-0.0894 0.67616,0.0278 0.11723,0.11722 -0.0911,0.2006 -0.46302,0.18528 -0.41097,-0.0169 -0.49456,-0.10052 -0.21314,-0.21313 z m 1.76389,-0.35277 c 0.25466,-0.10191 0.55893,-0.0894 0.67616,0.0278 0.11722,0.11722 -0.0911,0.2006 -0.46302,0.18529 -0.41097,-0.0169 -0.49456,-0.10053 -0.21314,-0.21314 z m 1.76389,-0.35278 c 0.25466,-0.10191 0.55893,-0.0894 0.67616,0.0278 0.11722,0.11723 -0.0911,0.20061 -0.46302,0.18529 -0.41097,-0.0169 -0.49456,-0.10052 -0.21314,-0.21314 z m 1.76389,-0.35278 c 0.25466,-0.10191 0.55893,-0.0894 0.67616,0.0278 0.11722,0.11723 -0.0911,0.20061 -0.46302,0.18529 -0.41097,-0.0169 -0.49456,-0.10052 -0.21314,-0.21313 z m 1.76389,-0.35278 c 0.25466,-0.1019 0.55893,-0.0894 0.67616,0.0278 0.11722,0.11722 -0.0911,0.2006 -0.46302,0.18528 -0.41097,-0.0169 -0.49456,-0.10052 -0.21314,-0.21313 z m 1.76389,-0.35278 c 0.25466,-0.1019 0.55893,-0.0894 0.67616,0.0278 0.11722,0.11722 -0.0911,0.2006 -0.46303,0.18528 -0.41096,-0.0169 -0.49455,-0.10052 -0.21313,-0.21313 z m 194.380568,-1.41111 c 0.25466,-0.1019 0.558934,-0.0894 0.676159,0.0278 0.117224,0.11722 -0.09114,0.2006 -0.463021,0.18528 -0.410969,-0.0169 -0.494559,-0.10052 -0.213138,-0.21313 z m -2.116668,-0.35277 c 0.25466,-0.10191 0.55894,-0.0894 0.67616,0.0278 0.11722,0.11722 -0.0911,0.2006 -0.46302,0.18529 -0.41097,-0.0169 -0.49456,-0.10053 -0.21314,-0.21314 z m -2.11667,-0.35278 c 0.25466,-0.10191 0.55894,-0.0894 0.67616,0.0278 0.11723,0.11723 -0.0911,0.20061 -0.46302,0.18529 -0.41097,-0.0169 -0.49456,-0.10052 -0.21314,-0.21314 z m -2.13871,-0.34543 c 0.24253,-0.0979 0.63941,-0.0979 0.88194,0 0.24254,0.0979 0.0441,0.17794 -0.44097,0.17794 -0.48507,0 -0.68351,-0.0801 -0.44097,-0.17794 z m -2.11667,-0.35278 c 0.24254,-0.0979 0.63941,-0.0979 0.88195,0 0.24253,0.0979 0.0441,0.17794 -0.44098,0.17794 -0.48507,0 -0.6835,-0.0801 -0.44097,-0.17794 z m 9.172225,-1.41111 c 0.242535,-0.0979 0.63941,-0.0979 0.881944,0 0.242535,0.0979 0.0441,0.17794 -0.440972,0.17794 -0.485069,0 -0.683507,-0.0801 -0.440972,-0.17794 z m -2.469445,-0.35278 c 0.24254,-0.0979 0.63941,-0.0979 0.881945,0 0.242535,0.0979 0.0441,0.17794 -0.440975,0.17794 -0.48507,0 -0.6835,-0.0801 -0.44097,-0.17794 z m -2.46944,-0.35278 c 0.24253,-0.0979 0.63941,-0.0979 0.88194,0 0.24253,0.0979 0.0441,0.17794 -0.44097,0.17794 -0.48507,0 -0.68351,-0.0801 -0.44097,-0.17794 z m -2.46945,-0.35277 c 0.24254,-0.0979 0.63941,-0.0979 0.88195,0 0.24253,0.0979 0.0441,0.17793 -0.44098,0.17793 -0.48507,0 -0.6835,-0.0801 -0.44097,-0.17793 z m -2.57214,-0.49539 c -0.1279,-0.20694 -0.13727,-0.47152 -0.0208,-0.58797 0.11645,-0.11644 0.21172,-0.0381 0.21172,0.174 0,0.21214 0.27781,0.4583 0.61736,0.54703 0.55658,0.14546 0.55863,0.16537 0.0208,0.20226 -0.32809,0.0225 -0.70118,-0.12839 -0.82907,-0.33532 z m -197.35928,-3.94528 c -0.004,-0.4494 0.25855,-0.60623 0.96474,-0.57644 0.74358,0.0314 0.80537,0.0821 0.26458,0.2172 -0.38805,0.0969 -0.82219,0.35635 -0.96474,0.57644 -0.16448,0.25395 -0.26115,0.1746 -0.26458,-0.2172 z m 209.925246,-0.11759 c 0.01693,-0.41097 0.10052,-0.49456 0.213134,-0.21314 0.101907,0.25466 0.08938,0.55893 -0.02783,0.67616 -0.117225,0.11722 -0.200604,-0.0911 -0.185286,-0.46302 z m -205.781396,-0.74928 c 0.43883,-0.0844 1.07383,-0.0812 1.41111,0.007 0.33729,0.0883 -0.0218,0.15734 -0.79786,0.15342 -0.77611,-0.004 -1.05207,-0.0762 -0.61325,-0.16054 z m 4.23334,-0.35278 c 0.43882,-0.0844 1.07382,-0.0812 1.41111,0.007 0.33728,0.0883 -0.0218,0.15734 -0.79787,0.15342 -0.77611,-0.004 -1.05207,-0.0762 -0.61324,-0.16054 z m 189.58146,-2.21994 c 0,-0.48507 0.0801,-0.6835 0.17794,-0.44097 0.0979,0.24254 0.0979,0.63941 0,0.88195 -0.0979,0.24253 -0.17794,0.0441 -0.17794,-0.44098 z m -194.51815,-0.25567 c 0.63407,-0.0785 1.58657,-0.0769 2.11667,0.004 0.5301,0.0805 0.0113,0.14474 -1.15285,0.14276 -1.16416,-0.002 -1.59788,-0.0678 -0.96382,-0.14636 z m 6.34368,-0.34607 c 0.43657,-0.0841 1.15094,-0.0841 1.5875,0 0.43657,0.0841 0.0794,0.15288 -0.79375,0.15288 -0.87312,0 -1.23031,-0.0688 -0.79375,-0.15288 z m -10.00641,-5.0427 c 0,-2.42535 0.0564,-3.41754 0.12525,-2.20486 0.0689,1.21267 0.0689,3.19705 0,4.40972 -0.0689,1.21267 -0.12525,0.22049 -0.12525,-2.20486 z m 210.541176,3.35139 c 0.0072,-0.58209 0.08625,-0.7775 0.175697,-0.43426 0.08944,0.34324 0.08356,0.81949 -0.01309,1.05833 -0.09664,0.23884 -0.169816,-0.042 -0.162627,-0.62407 z m -8.785356,-1.14388 c 1.31776,-0.0681 3.38151,-0.0676 4.586115,0.001 1.204602,0.0687 0.126439,0.12437 -2.395925,0.12375 -2.52236,-7e-4 -3.50795,-0.0568 -2.19019,-0.12487 z m 5.965384,-2.46942 2.716855,-0.11993 0.126855,-2.01394 0.126856,-2.01394 0.06671,2.20486 0.0667,2.20486 -2.910417,-0.071 -2.910413,-0.071 z m -195.482074,-5.23554 c 0.0169,-0.41097 0.10052,-0.49456 0.21313,-0.21314 0.10191,0.25466 0.0894,0.55893 -0.0278,0.67616 -0.11723,0.11722 -0.20061,-0.0911 -0.18529,-0.46302 z m 185.94175,-0.147 c 0,-0.48507 0.0801,-0.6835 0.17794,-0.44097 0.0979,0.24254 0.0979,0.63941 0,0.88195 -0.0979,0.24253 -0.17794,0.0441 -0.17794,-0.44098 z m -189.58558,-0.60174 c 0.43657,-0.0841 1.15094,-0.0841 1.5875,0 0.43657,0.0841 0.0794,0.15288 -0.79375,0.15288 -0.87312,0 -1.23031,-0.0688 -0.79375,-0.15288 z m -5.4632,-0.35696 c 0.53624,-0.0811 1.32999,-0.0789 1.76389,0.005 0.43389,0.0837 -0.005,0.15008 -0.97499,0.14743 -0.97014,-0.003 -1.32515,-0.0712 -0.7889,-0.15225 z m 8.28543,-2.09716 c 0.24253,-0.0979 0.6394,-0.0979 0.88194,0 0.24253,0.0979 0.0441,0.17794 -0.44097,0.17794 -0.48507,0 -0.68351,-0.0801 -0.44097,-0.17794 z m 198.729946,-0.32492 c 0.01693,-0.41097 0.10052,-0.49456 0.213134,-0.21314 0.101907,0.25466 0.08938,0.55893 -0.02783,0.67616 -0.117225,0.11722 -0.200604,-0.0911 -0.185286,-0.46302 z m -202.434116,-0.0374 c 0.33955,-0.0887 0.89517,-0.0887 1.23472,0 0.33955,0.0887 0.0617,0.16134 -0.61736,0.16134 -0.6791,0 -0.95691,-0.0726 -0.61736,-0.16134 z m -3.88056,-0.35277 c 0.33955,-0.0887 0.89518,-0.0887 1.23472,0 0.33955,0.0887 0.0617,0.16133 -0.61736,0.16133 -0.67909,0 -0.95691,-0.0726 -0.61736,-0.16133 z m -2.99861,-0.34324 c 0.24254,-0.0979 0.63941,-0.0979 0.88195,0 0.24253,0.0979 0.0441,0.17794 -0.44098,0.17794 -0.48507,0 -0.6835,-0.0801 -0.44097,-0.17794 z m 197.22484,-1.41846 c 0.25466,-0.10191 0.55894,-0.0894 0.67616,0.0278 0.11723,0.11723 -0.0911,0.20061 -0.46302,0.18529 -0.41097,-0.0169 -0.49456,-0.10052 -0.21314,-0.21313 z m 2.6305,-0.35626 c 0.34324,-0.0895 0.81949,-0.0836 1.05833,0.0131 0.23885,0.0966 -0.042,0.16981 -0.62407,0.16262 -0.58208,-0.007 -0.7775,-0.0863 -0.43426,-0.17569 z m 2.82222,-0.35278 c 0.34325,-0.0894 0.8195,-0.0836 1.05834,0.0131 0.23884,0.0966 -0.042,0.16981 -0.62408,0.16262 -0.58208,-0.007 -0.7775,-0.0863 -0.43426,-0.17569 z m 3.175004,-0.35278 c 0.343242,-0.0894 0.819492,-0.0836 1.058333,0.0131 0.238841,0.0966 -0.04199,0.16982 -0.624074,0.16263 -0.582084,-0.007 -0.777501,-0.0863 -0.434259,-0.1757 z m 2.727314,-0.1083 c -0.317955,-0.20548 -0.361466,-0.34414 -0.109015,-0.34738 0.231084,-0.003 0.518266,0.15335 0.638182,0.34738 0.270687,0.43798 0.148562,0.43798 -0.529167,0 z m -10.671528,-1.64475 c 0.24253,-0.0979 0.63941,-0.0979 0.88194,0 0.24254,0.0979 0.0441,0.17793 -0.44097,0.17793 -0.48507,0 -0.6835,-0.0801 -0.44097,-0.17793 z m 2.46944,-0.35278 c 0.24254,-0.0979 0.63941,-0.0979 0.88195,0 0.24253,0.0979 0.0441,0.17794 -0.44097,0.17794 -0.48507,0 -0.68351,-0.0801 -0.44098,-0.17794 z m 2.4915,-0.36013 c 0.25466,-0.1019 0.55893,-0.0894 0.67616,0.0278 0.11722,0.11722 -0.0911,0.2006 -0.46302,0.18528 -0.41097,-0.0169 -0.49456,-0.10052 -0.21314,-0.21313 z m 2.09462,-0.34543 c 0.242531,-0.0979 0.639406,-0.0979 0.88194,0 0.242535,0.0979 0.0441,0.17794 -0.440972,0.17794 -0.485068,0 -0.683508,-0.0801 -0.440968,-0.17794 z m 2.469441,-0.35277 c 0.242534,-0.0979 0.639409,-0.0979 0.881944,0 0.242535,0.0979 0.0441,0.17793 -0.440972,0.17793 -0.48507,0 -0.683507,-0.0801 -0.440972,-0.17793 z m -196.122411,-4.59346 c 0.25466,-0.10191 0.55893,-0.0894 0.67616,0.0278 0.11722,0.11722 -0.0911,0.2006 -0.46302,0.18529 -0.41097,-0.0169 -0.49456,-0.10052 -0.21314,-0.21314 z m -1.76389,-0.35278 c 0.25466,-0.10191 0.55893,-0.0894 0.67616,0.0278 0.11722,0.11723 -0.0911,0.20061 -0.46302,0.18529 -0.41097,-0.0169 -0.49456,-0.10052 -0.21314,-0.21314 z m -1.76389,-0.35278 c 0.25466,-0.10191 0.55894,-0.0894 0.67616,0.0278 0.11722,0.11723 -0.0911,0.20061 -0.46302,0.18529 -0.41097,-0.0169 -0.49456,-0.10052 -0.21314,-0.21313 z m -1.41111,-0.35278 c 0.25466,-0.1019 0.55893,-0.0894 0.67616,0.0278 0.11722,0.11722 -0.0911,0.2006 -0.46302,0.18528 -0.41097,-0.0169 -0.49456,-0.10052 -0.21314,-0.21313 z m -1.76389,-0.35278 c 0.25466,-0.1019 0.55893,-0.0894 0.67616,0.0278 0.11722,0.11722 -0.0911,0.2006 -0.46302,0.18528 -0.41097,-0.0169 -0.49456,-0.10052 -0.21314,-0.21313 z m -1.76389,-0.35277 c 0.25466,-0.10191 0.55893,-0.0894 0.67616,0.0278 0.11723,0.11723 -0.0911,0.2006 -0.46302,0.18529 -0.41097,-0.0169 -0.49456,-0.10052 -0.21314,-0.21314 z m 9.525,-0.70556 c 0.25466,-0.10191 0.55894,-0.0894 0.67616,0.0278 0.11723,0.11722 -0.0911,0.2006 -0.46302,0.18528 -0.41097,-0.0169 -0.49456,-0.10052 -0.21314,-0.21313 z m -1.41111,-0.35278 c 0.25466,-0.1019 0.55894,-0.0894 0.67616,0.0278 0.11722,0.11722 -0.0911,0.2006 -0.46302,0.18528 -0.41097,-0.0169 -0.49456,-0.10052 -0.21314,-0.21313 z m -1.41111,-0.35277 c 0.25466,-0.10191 0.55893,-0.0894 0.67616,0.0278 0.11722,0.11722 -0.0911,0.2006 -0.46302,0.18529 -0.41097,-0.0169 -0.49456,-0.10053 -0.21314,-0.21314 z m 187.32502,-2.11667 c 0.25465,-0.10191 0.55893,-0.0894 0.67615,0.0278 0.11723,0.11723 -0.0911,0.20061 -0.46302,0.18529 -0.41097,-0.0169 -0.49456,-0.10052 -0.21313,-0.21314 z m 3.88055,-1.05833 c 0.25466,-0.10191 0.55893,-0.0894 0.67616,0.0278 0.11722,0.11722 -0.0911,0.2006 -0.46302,0.18529 -0.41097,-0.0169 -0.49456,-0.10053 -0.21314,-0.21314 z m 3.88056,-1.05834 c 0.25466,-0.10191 0.558931,-0.0894 0.676155,0.0278 0.117225,0.11722 -0.09114,0.2006 -0.463025,0.18528 -0.41096,-0.0169 -0.49455,-0.10052 -0.21313,-0.21313 z m -12.63386,-11.047902 c 0.29104,-0.188087 0.68792,-0.341972 0.88195,-0.341972 0.19402,0 0.11465,0.153885 -0.17639,0.341972 -0.29104,0.188087 -0.68792,0.341972 -0.88195,0.341972 -0.19403,0 -0.11465,-0.153885 0.17639,-0.341972 z m 5.64445,-2.469445 c 0.29104,-0.188087 0.68791,-0.341972 0.88194,-0.341972 0.19403,0 0.11465,0.153885 -0.17639,0.341972 -0.29104,0.188087 -0.68791,0.341973 -0.88194,0.341973 -0.19403,0 -0.11466,-0.153886 0.17639,-0.341973 z m -5.99723,-0.352778 c 0.29105,-0.188087 0.68792,-0.341972 0.88195,-0.341972 0.19403,0 0.11465,0.153885 -0.17639,0.341972 -0.29104,0.188087 -0.68792,0.341973 -0.88195,0.341973 -0.19402,0 -0.11465,-0.153886 0.17639,-0.341973 z m 6.52639,-3.064016 c 0.58209,-0.311474 1.17497,-0.741683 1.31752,-0.956014 0.18159,-0.273043 0.2608,-0.260403 0.26458,0.04222 0.005,0.409162 -1.7551,1.524444 -2.35833,1.49424 -0.15515,-0.0078 0.19415,-0.268969 0.77623,-0.580446 z m -178.52633,-2.423502 c -0.65759,-0.526835 -0.65326,-0.533347 0.10896,-0.163975 0.43656,0.211557 0.79375,0.458438 0.79375,0.548626 0,0.269953 -0.18296,0.191996 -0.90271,-0.384651 z m -3.175,-1.763889 c -0.65759,-0.526835 -0.65326,-0.533347 0.10896,-0.163975 0.43656,0.211557 0.79375,0.458438 0.79375,0.548626 0,0.269953 -0.18296,0.191996 -0.90271,-0.384651 z m 3.52777,-0.705556 c -0.65758,-0.526835 -0.65326,-0.533347 0.10897,-0.163975 0.43656,0.211558 0.79375,0.458439 0.79375,0.548626 0,0.269953 -0.18296,0.191996 -0.90272,-0.384651 z m 163.53328,-0.30849 c 0,-0.09701 0.3175,-0.346311 0.70556,-0.553992 0.38806,-0.20768 0.70556,-0.298227 0.70556,-0.201214 0,0.09701 -0.3175,0.346312 -0.70556,0.553992 -0.38806,0.20768 -0.70556,0.298228 -0.70556,0.201214 z m -170.74445,-0.906769 c -0.31796,-0.205479 -0.36147,-0.344132 -0.10902,-0.347377 0.23108,-0.0028 0.51827,0.153349 0.63818,0.347377 0.27069,0.437984 0.14856,0.437984 -0.52916,0 z m 2.97784,-1.254186 c -0.65759,-0.526834 -0.65326,-0.533347 0.10896,-0.163974 0.43656,0.211557 0.79375,0.458438 0.79375,0.548626 0,0.269952 -0.18295,0.191996 -0.90271,-0.384652 z m 170.58884,0.397066 c 0,-0.09701 0.3175,-0.346311 0.70555,-0.553992 0.38806,-0.20768 0.70556,-0.298227 0.70556,-0.201214 0,0.09701 -0.3175,0.346312 -0.70556,0.553992 -0.38805,0.20768 -0.70555,0.298228 -0.70555,0.201214 z m 2.82222,-1.763889 c 0,-0.09701 0.3175,-0.346311 0.70555,-0.553992 0.38806,-0.20768 0.70556,-0.298227 0.70556,-0.201214 0,0.09701 -0.3175,0.346312 -0.70556,0.553992 -0.38805,0.20768 -0.70555,0.298228 -0.70555,0.201214 z m -2.82222,-1.414434 c 0,-0.09701 1.15093,-0.946902 2.55764,-1.888642 2.90966,-1.947923 3.79312,-2.472299 3.26319,-1.936881 -0.55617,0.561936 -5.82083,4.021935 -5.82083,3.825523 z m 5.64444,-0.349455 c 0,-0.09701 0.3175,-0.346311 0.70556,-0.553992 0.38805,-0.20768 0.70555,-0.298228 0.70555,-0.201214 0,0.09701 -0.3175,0.346312 -0.70555,0.553992 -0.38806,0.20768 -0.70556,0.298228 -0.70556,0.201214 z m -162.67557,-1.876909 c -0.43881,-0.559526 -0.42633,-0.572004 0.1332,-0.133194 0.58764,0.460858 0.77451,0.750556 0.48416,0.750556 -0.0733,0 -0.35106,-0.277813 -0.61736,-0.617362 z m -1.41111,-1.058333 c -0.43881,-0.559527 -0.42633,-0.572004 0.1332,-0.133195 0.58764,0.460859 0.77451,0.750556 0.48416,0.750556 -0.0732,0 -0.35106,-0.277812 -0.61736,-0.617361 z m -1.41111,-1.058333 c -0.43881,-0.559527 -0.42633,-0.572005 0.1332,-0.133195 0.58763,0.460858 0.77451,0.750556 0.48416,0.750556 -0.0732,0 -0.35107,-0.277813 -0.61736,-0.617361 z m 3.52778,-0.705556 c -0.43881,-0.559527 -0.42633,-0.572004 0.13319,-0.133195 0.58764,0.460859 0.77452,0.750556 0.48417,0.750556 -0.0732,0 -0.35107,-0.277812 -0.61736,-0.617361 z m -4.93889,-0.352778 c -0.43881,-0.559527 -0.42633,-0.572004 0.13319,-0.133195 0.58764,0.460859 0.77452,0.750556 0.48417,0.750556 -0.0732,0 -0.35107,-0.277812 -0.61736,-0.617361 z m 150.48206,-0.12488 c -0.13238,-0.214203 0.21096,-0.809515 0.76298,-1.322916 l 1.00368,-0.933454 -0.82076,0.944023 c -0.45141,0.519215 -0.71538,1.114527 -0.58659,1.322917 0.12879,0.208393 0.15479,0.378894 0.0578,0.378894 -0.097,0 -0.2847,-0.175257 -0.41709,-0.389464 z m -151.89317,-0.933453 c -0.43881,-0.559527 -0.42633,-0.572005 0.13319,-0.133195 0.58764,0.460858 0.77452,0.750556 0.48417,0.750556 -0.0733,0 -0.35107,-0.277813 -0.61736,-0.617361 z m 4.58611,0 c -0.43881,-0.559527 -0.42633,-0.572005 0.13319,-0.133195 0.58764,0.460858 0.77452,0.750556 0.48417,0.750556 -0.0732,0 -0.35107,-0.277813 -0.61736,-0.617361 z m -6.35,-1.411111 c -0.43881,-0.559527 -0.42633,-0.572005 0.13319,-0.133195 0.33955,0.266294 0.61737,0.544107 0.61737,0.617361 0,0.29035 -0.2897,0.103473 -0.75056,-0.484166 z m 4.58611,0 c -0.43881,-0.559527 -0.42633,-0.572005 0.1332,-0.133195 0.33954,0.266294 0.61736,0.544107 0.61736,0.617361 0,0.29035 -0.2897,0.103473 -0.75056,-0.484166 z m 9.39361,-0.79375 c 0.35119,-0.388056 0.7179,-0.705556 0.81491,-0.705556 0.097,0 -0.11094,0.3175 -0.46213,0.705556 -0.35119,0.388055 -0.7179,0.705555 -0.81491,0.705555 -0.097,0 0.11095,-0.3175 0.46213,-0.705555 z m 136.84427,-0.08819 -0.67203,-0.79375 0.78713,0.666048 c 0.68263,0.577621 0.86997,0.601042 1.41111,0.176389 0.56697,-0.444923 0.57975,-0.433257 0.13981,0.127702 -0.62996,0.803257 -0.85694,0.779223 -1.66602,-0.176389 z m 5.85435,-0.08819 c 0.45571,-0.48507 0.90792,-0.881945 1.00494,-0.881945 0.097,0 -0.19646,0.396875 -0.65216,0.881945 -0.4557,0.485069 -0.90792,0.881944 -1.00493,0.881944 -0.097,0 0.19645,-0.396875 0.65215,-0.881944 z m -158.39219,0.03023 c 0.22846,-0.228463 0.46701,-0.228463 0.69547,0 0.22847,0.228466 0.1092,0.34774 -0.34773,0.34774 -0.45693,0 -0.5762,-0.119274 -0.34774,-0.34774 z m 4.53607,-0.471206 c -0.43881,-0.559526 -0.42633,-0.572004 0.1332,-0.133194 0.58764,0.460858 0.77451,0.750556 0.48416,0.750556 -0.0732,0 -0.35106,-0.277813 -0.61736,-0.617362 z m 151.91585,-1.499305 c 0.75785,-0.776111 1.45729,-1.411112 1.5543,-1.411112 0.097,0 -0.44367,0.635001 -1.20153,1.411112 -0.75785,0.776111 -1.45728,1.411111 -1.5543,1.411111 -0.097,0 0.44368,-0.635 1.20153,-1.411111 z m -153.81867,-0.0083 c -0.53263,-0.58855 -0.56411,-0.789852 -0.17931,-1.146528 0.37118,-0.344053 0.41296,-0.337795 0.20405,0.03055 -0.15108,0.266389 5e-5,0.753547 0.3557,1.146528 0.34012,0.375832 0.53903,0.683327 0.44201,0.683327 -0.097,0 -0.46712,-0.32125 -0.82245,-0.713892 z m 158.22839,-0.168063 c 0.4557,-0.48507 0.90792,-0.881945 1.00493,-0.881945 0.097,0 -0.19645,0.396875 -0.65215,0.881945 -0.4557,0.485069 -0.90792,0.881944 -1.00494,0.881944 -0.097,0 0.19646,-0.396875 0.65216,-0.881944 z m -145.70354,-4.674306 -3.69786,-3.792362 3.79236,3.697863 c 2.0858,2.033828 3.79236,3.74039 3.79236,3.792362 0,0.254779 -0.4522,-0.175437 -3.88686,-3.697863 z m 147.82021,2.910417 c 0.4557,-0.48507 0.90792,-0.881945 1.00493,-0.881945 0.097,0 -0.19645,0.396875 -0.65216,0.881945 -0.4557,0.485069 -0.90792,0.881944 -1.00493,0.881944 -0.097,0 0.19646,-0.396875 0.65216,-0.881944 z m -2.83697,-1.322917 c 0.86502,-0.921632 1.61908,-1.675695 1.6757,-1.675695 0.26489,0 -0.0152,0.316735 -1.57276,1.778632 l -1.6757,1.572758 z m -12.89516,0 -0.67204,-0.79375 0.79375,0.672038 c 0.43656,0.36962 0.79375,0.726807 0.79375,0.79375 0,0.282311 -0.28391,0.07389 -0.91546,-0.672038 z m -128.56605,-1.940278 -1.92822,-2.028472 2.02847,1.928227 c 1.11566,1.060524 2.02847,1.973336 2.02847,2.028472 0,0.261849 -0.33733,-0.04371 -2.12872,-1.928227 z m -11.98239,-0.970139 c 0.4557,-0.485069 0.90792,-0.881944 1.00493,-0.881944 0.097,0 -0.19645,0.396875 -0.65215,0.881944 -0.4557,0.48507 -0.90792,0.881945 -1.00494,0.881945 -0.097,0 0.19646,-0.396875 0.65216,-0.881945 z m 154.65955,-0.264583 -0.67204,-0.79375 0.79375,0.672038 c 0.43656,0.369619 0.79375,0.726807 0.79375,0.79375 0,0.28231 -0.28391,0.07389 -0.91546,-0.672038 z m -14.60676,-0.02219 c 0,-0.06071 0.51593,-0.576651 1.14653,-1.146528 l 1.14652,-1.036141 -1.03614,1.146528 c -0.96583,1.068727 -1.25691,1.308683 -1.25691,1.036141 z m -2.64584,-0.947946 c 0.35119,-0.388056 0.7179,-0.705556 0.81491,-0.705556 0.097,0 -0.11094,0.3175 -0.46213,0.705556 -0.35119,0.388055 -0.71789,0.705555 -0.81491,0.705555 -0.097,0 0.11095,-0.3175 0.46213,-0.705555 z m -129.83549,-2.557639 -1.75063,-1.852084 1.85209,1.750628 c 1.72098,1.626715 2.01386,1.953539 1.75062,1.953539 -0.0558,0 -0.88924,-0.833437 -1.85208,-1.852083 z m 131.59938,0.440972 c 0.35119,-0.388056 0.7179,-0.705556 0.81491,-0.705556 0.097,0 -0.11094,0.3175 -0.46213,0.705556 -0.35119,0.388056 -0.7179,0.705556 -0.81491,0.705556 -0.097,0 0.11095,-0.3175 0.46213,-0.705556 z m 4.05695,-0.529167 c 0.6582,-0.679097 1.27611,-1.234722 1.37313,-1.234722 0.097,0 -0.36215,0.555625 -1.02035,1.234722 -0.65821,0.679098 -1.27612,1.234723 -1.37313,1.234723 -0.097,0 0.36214,-0.555625 1.02035,-1.234723 z m -2.64584,-1.234722 c 0.35119,-0.388056 0.7179,-0.705556 0.81491,-0.705556 0.097,0 -0.11094,0.3175 -0.46213,0.705556 -0.35118,0.388056 -0.71789,0.705556 -0.81491,0.705556 -0.097,0 0.11095,-0.3175 0.46213,-0.705556 z M -257.0436,59.341164 c -0.43881,-0.559527 -0.42634,-0.572005 0.13319,-0.133195 0.58764,0.460858 0.77452,0.750556 0.48417,0.750556 -0.0733,0 -0.35107,-0.277813 -0.61736,-0.617361 z m 127.72386,-0.352778 -0.85524,-0.970139 0.97014,0.855243 c 0.53357,0.470387 0.97014,0.906949 0.97014,0.970139 0,0.276676 -0.28568,0.0515 -1.08504,-0.855243 z m -3.1483,-0.617361 c 0.65821,-0.679097 1.27612,-1.234722 1.37313,-1.234722 0.097,0 -0.36214,0.555625 -1.02035,1.234722 -0.65821,0.679097 -1.27611,1.234722 -1.37313,1.234722 -0.097,0 0.36215,-0.555625 1.02035,-1.234722 z m -139.70001,0.74875 c 0,-0.07325 0.27781,-0.351067 0.61736,-0.617362 0.55953,-0.438809 0.57201,-0.426332 0.1332,0.133195 -0.46086,0.58764 -0.75056,0.774517 -0.75056,0.484167 z m 136.34862,-1.277917 c 0.35119,-0.388055 0.7179,-0.705555 0.81491,-0.705555 0.097,0 -0.11094,0.3175 -0.46213,0.705555 -0.35119,0.388056 -0.71789,0.705556 -0.81491,0.705556 -0.097,0 0.11095,-0.3175 0.46213,-0.705556 z m -122.98806,-0.970139 c -0.43881,-0.559527 -0.42633,-0.572004 0.13319,-0.133195 0.33955,0.266295 0.61736,0.544107 0.61736,0.617362 0,0.29035 -0.28969,0.103473 -0.75055,-0.484167 z m 105.87834,-0.22684 c 0,-0.07626 0.24637,-0.233186 0.54749,-0.348738 0.31394,-0.12047 0.45555,-0.06133 0.33196,0.138645 -0.20718,0.335213 -0.87945,0.495812 -0.87945,0.210093 z m 18.67154,-0.655104 c 0.38462,-0.510801 0.38462,-0.723922 0,-1.234723 -0.44271,-0.587964 -0.43276,-0.587964 0.20879,0 0.663,0.607611 0.663,0.627112 0,1.234723 -0.64155,0.587964 -0.6515,0.587964 -0.20879,0 z m -125.60822,-0.529167 c -0.43881,-0.559527 -0.42633,-0.572005 0.1332,-0.133195 0.33955,0.266294 0.61736,0.544107 0.61736,0.617361 0,0.290351 -0.2897,0.103474 -0.75056,-0.484166 z m 3.175,-0.352778 c -0.43881,-0.559527 -0.42633,-0.572004 0.1332,-0.133195 0.58764,0.460859 0.77452,0.750556 0.48417,0.750556 -0.0733,0 -0.35107,-0.277812 -0.61737,-0.617361 z m 105.17279,-0.08819 c 0.20768,-0.388056 0.45698,-0.705556 0.55399,-0.705556 0.097,0 0.006,0.3175 -0.20121,0.705556 -0.20768,0.388055 -0.45698,0.705555 -0.55399,0.705555 -0.097,0 -0.006,-0.3175 0.20121,-0.705555 z m -109.40612,-0.970139 c -0.43881,-0.559527 -0.42633,-0.572005 0.1332,-0.133195 0.58764,0.460858 0.77451,0.750556 0.48416,0.750556 -0.0732,0 -0.35106,-0.277813 -0.61736,-0.617361 z m 16.32367,-1.058334 c -0.38495,-0.899597 -0.37624,-0.920348 0.11977,-0.285351 0.29419,0.376633 0.5349,0.813195 0.5349,0.970139 0,0.53619 -0.2393,0.285877 -0.65467,-0.684788 z m 94.14078,0.264584 c 0.20768,-0.388056 0.45698,-0.705556 0.554,-0.705556 0.097,0 0.006,0.3175 -0.20122,0.705556 -0.20768,0.388055 -0.45698,0.705555 -0.55399,0.705555 -0.097,0 -0.006,-0.3175 0.20121,-0.705555 z m 1.05834,-1.763889 c 0.20768,-0.388056 0.45698,-0.705556 0.55399,-0.705556 0.097,0 0.006,0.3175 -0.20121,0.705556 -0.20768,0.388055 -0.45698,0.705555 -0.554,0.705555 -0.097,0 -0.006,-0.3175 0.20122,-0.705555 z m 4.23333,-1.411112 c 0.20768,-0.388055 0.45698,-0.705555 0.55399,-0.705555 0.097,0 0.006,0.3175 -0.20121,0.705555 -0.20768,0.388056 -0.45698,0.705556 -0.55399,0.705556 -0.097,0 -0.006,-0.3175 0.20121,-0.705556 z m -3.175,-0.352777 c 0.20768,-0.388056 0.45698,-0.705556 0.55399,-0.705556 0.097,0 0.006,0.3175 -0.20121,0.705556 -0.20768,0.388055 -0.45698,0.705555 -0.55399,0.705555 -0.097,0 -0.006,-0.3175 0.20121,-0.705555 z m -95.88543,-1.958291 c -0.62066,-1.25862 -1.12066,-2.40446 -1.11112,-2.546305 0.01,-0.141848 0.5755,0.829794 1.25767,2.159202 0.68217,1.329408 1.18217,2.475244 1.11111,2.546304 -0.0711,0.07106 -0.63701,-0.900578 -1.25766,-2.159201 z m 83.19624,1.076346 c 0,-0.194028 0.15388,-0.590903 0.34197,-0.881944 0.18808,-0.291042 0.34197,-0.370417 0.34197,-0.176389 0,0.194027 -0.15389,0.590902 -0.34197,0.881944 -0.18809,0.291042 -0.34197,0.370417 -0.34197,0.176389 z m -87.14693,-2.645833 c -0.39594,-0.776112 -0.64052,-1.411112 -0.5435,-1.411112 0.097,0 0.50034,0.635 0.89628,1.411112 0.39594,0.776111 0.64052,1.411111 0.54351,1.411111 -0.097,0 -0.50034,-0.635 -0.89629,-1.411111 z m 88.91081,-1.234723 c 0,-0.194028 0.15389,-0.590903 0.34198,-0.881944 0.18808,-0.291042 0.34197,-0.370417 0.34197,-0.176389 0,0.194028 -0.15389,0.590903 -0.34197,0.881944 -0.18809,0.291042 -0.34198,0.370417 -0.34198,0.176389 z m -59.24962,-1.08773 c 0.0169,-0.410969 0.10052,-0.494559 0.21313,-0.213138 0.10191,0.25466 0.0894,0.558931 -0.0278,0.676159 -0.11722,0.117224 -0.2006,-0.09114 -0.18529,-0.463021 z m 30.12014,0.182315 c -0.36197,-0.585685 -0.0371,-0.666901 0.46939,-0.117337 0.25019,0.271473 0.29924,0.493586 0.10901,0.493586 -0.19022,0 -0.4505,-0.169313 -0.5784,-0.376249 z m -18.24174,-0.562945 c 0.24253,-0.09786 0.63941,-0.09786 0.88194,0 0.24254,0.09786 0.0441,0.177938 -0.44097,0.177938 -0.48507,0 -0.68351,-0.08007 -0.44097,-0.177938 z m 11.28889,0 c 0.24253,-0.09786 0.63941,-0.09786 0.88194,0 0.24254,0.09786 0.0441,0.177938 -0.44097,0.177938 -0.48507,0 -0.68351,-0.08007 -0.44097,-0.177938 z m 4.40337,-0.824696 c 0,-0.679097 0.0726,-0.956909 0.16134,-0.617361 0.0887,0.339549 0.0887,0.895174 0,1.234723 -0.0887,0.339548 -0.16134,0.06174 -0.16134,-0.617362 z m 14.05712,0.49977 c 0.0169,-0.410968 0.10052,-0.494559 0.21313,-0.213138 0.10191,0.25466 0.0894,0.558931 -0.0278,0.676159 -0.11722,0.117225 -0.2006,-0.09114 -0.18529,-0.463021 z m -39.13049,-0.49977 c 0,-0.485069 0.0801,-0.683507 0.17794,-0.440972 0.0979,0.242535 0.0979,0.63941 0,0.881945 -0.0979,0.242534 -0.17794,0.0441 -0.17794,-0.440973 z m 11.31504,-0.352777 c 0,-0.679098 0.0726,-0.95691 0.16133,-0.617361 0.0887,0.339548 0.0887,0.895173 0,1.234722 -0.0887,0.339548 -0.16133,0.06174 -0.16133,-0.617361 z m -14.16511,-0.205786 c 0.0169,-0.410969 0.10052,-0.494559 0.21314,-0.213138 0.1019,0.25466 0.0894,0.558931 -0.0278,0.676159 -0.11722,0.117224 -0.2006,-0.09114 -0.18528,-0.463021 z m 30.71952,-0.49977 c 0,-0.485069 0.0801,-0.683507 0.17794,-0.440972 0.0979,0.242535 0.0979,0.63941 0,0.881944 -0.0979,0.242535 -0.17794,0.0441 -0.17794,-0.440972 z m 11.61382,0.146992 c 0.0169,-0.410969 0.10052,-0.494559 0.21313,-0.213138 0.10191,0.25466 0.0894,0.558931 -0.0278,0.676159 -0.11723,0.117224 -0.20061,-0.09114 -0.18529,-0.463021 z m -39.83605,-1.205325 c 0,-0.48507 0.0801,-0.683507 0.17794,-0.440973 0.0979,0.242535 0.0979,0.63941 0,0.881945 -0.0979,0.242535 -0.17794,0.0441 -0.17794,-0.440972 z m -2.85007,-0.205786 c 0.0169,-0.410969 0.10052,-0.494559 0.21314,-0.213138 0.10191,0.25466 0.0894,0.558931 -0.0278,0.676159 -0.11722,0.117224 -0.2006,-0.09114 -0.18528,-0.463021 z m 43.0389,0 c 0.0169,-0.410969 0.10052,-0.494559 0.21313,-0.213138 0.10191,0.25466 0.0894,0.558931 -0.0278,0.676159 -0.11723,0.117224 -0.20061,-0.09114 -0.18529,-0.463021 z m -26.05674,-4.644909 -0.0767,-4.674306 3.0868,0.07181 3.08681,0.0718 -2.89998,0.118682 -2.89999,0.118681 -0.11015,4.483817 -0.11015,4.48382 z m 11.63377,3.615972 c 0.007,-0.582083 0.0862,-0.777501 0.1757,-0.434259 0.0894,0.343243 0.0836,0.819493 -0.0131,1.058334 -0.0966,0.238841 -0.16982,-0.04199 -0.16263,-0.624075 z m 2.82222,-0.352777 c 0.007,-0.582084 0.0863,-0.777502 0.1757,-0.434259 0.0894,0.343242 0.0836,0.819492 -0.0131,1.058333 -0.0966,0.238841 -0.16982,-0.04199 -0.16263,-0.624074 z m 11.95352,-0.02939 c 0.0169,-0.410968 0.10052,-0.494559 0.21314,-0.213138 0.10191,0.25466 0.0894,0.558931 -0.0278,0.676159 -0.11722,0.117225 -0.2006,-0.09114 -0.18528,-0.463021 z m -43.74444,-0.352778 c 0.0169,-0.410968 0.10052,-0.494559 0.21313,-0.213137 0.10191,0.254659 0.0894,0.55893 -0.0278,0.676158 -0.11723,0.117225 -0.20061,-0.09114 -0.18529,-0.463021 z m 2.85007,-0.147002 c 0,-0.48507 0.0801,-0.683507 0.17793,-0.440972 0.0979,0.242534 0.0979,0.639409 0,0.881944 -0.0979,0.242535 -0.17793,0.0441 -0.17793,-0.440972 z m 11.70457,-2.822223 c 0,-1.455208 0.0623,-2.050521 0.13838,-1.322916 0.0761,0.727604 0.0761,1.918229 0,2.645833 -0.0761,0.727604 -0.13838,0.132292 -0.13838,-1.322917 z m -30.63389,1.763889 c -0.11991,-0.194027 -0.0499,-0.352777 0.15557,-0.352777 0.20548,0 0.3736,0.15875 0.3736,0.352777 0,0.194028 -0.07,0.352778 -0.15557,0.352778 -0.0856,0 -0.25368,-0.15875 -0.3736,-0.352778 z m 15.72647,-0.558563 c 0.0169,-0.410969 0.10052,-0.494559 0.21313,-0.213138 0.10191,0.25466 0.0894,0.558931 -0.0278,0.676159 -0.11723,0.117224 -0.20061,-0.09114 -0.18529,-0.463021 z m 2.85007,-0.49977 c 0,-0.485069 0.0801,-0.683507 0.17794,-0.440972 0.0979,0.242534 0.0979,0.63941 0,0.881944 -0.0979,0.242535 -0.17794,0.0441 -0.17794,-0.440972 z m 26.83726,-0.352778 c 0,-0.679097 0.0726,-0.95691 0.16133,-0.617361 0.0887,0.339549 0.0887,0.895174 0,1.234722 -0.0887,0.339549 -0.16133,0.06174 -0.16133,-0.617361 z m 2.79607,0.352778 c 0,-0.485069 0.0801,-0.683507 0.17794,-0.440972 0.0979,0.242534 0.0979,0.63941 0,0.881944 -0.0979,0.242535 -0.17794,0.0441 -0.17794,-0.440972 z m -32.80833,-1.411111 c 0,-0.48507 0.0801,-0.683507 0.17794,-0.440972 0.0979,0.242534 0.0979,0.639409 0,0.881944 -0.0979,0.242535 -0.17794,0.0441 -0.17794,-0.440972 z m 45.48049,-0.205786 c 0.0169,-0.410969 0.10052,-0.494559 0.21313,-0.213138 0.10191,0.25466 0.0894,0.558931 -0.0278,0.676159 -0.11723,0.117224 -0.20061,-0.09114 -0.18529,-0.463021 z m -42.65827,-0.49977 c 0,-0.485069 0.0801,-0.683507 0.17794,-0.440972 0.0979,0.242535 0.0979,0.63941 0,0.881944 -0.0979,0.242535 -0.17794,0.0441 -0.17794,-0.440972 z m 30.35197,-0.529167 c 0.007,-0.582083 0.0863,-0.777501 0.17569,-0.434258 0.0894,0.343242 0.0836,0.819492 -0.0131,1.058333 -0.0966,0.238841 -0.16982,-0.04199 -0.16263,-0.624075 z m -2.82223,-1.058333 c 0.007,-0.582083 0.0863,-0.777501 0.1757,-0.434259 0.0894,0.343242 0.0836,0.819492 -0.0131,1.058334 -0.0966,0.238841 -0.16981,-0.04199 -0.16262,-0.624075 z m -19.89047,-1.122931 c 0.25466,-0.101906 0.55893,-0.08938 0.67616,0.02783 0.11722,0.117224 -0.0911,0.200603 -0.46303,0.185286 -0.41096,-0.01693 -0.49455,-0.100521 -0.21313,-0.213135 z m 17.99167,0 c 0.25465,-0.101906 0.55893,-0.08938 0.67615,0.02783 0.11723,0.117224 -0.0911,0.200603 -0.46302,0.185286 -0.41097,-0.01693 -0.49456,-0.100521 -0.21313,-0.213135 z"
         id="path3871"
         inkscape:connector-curvature="0" />
      <path
         style="fill:#010101;stroke-width:0.35277781"
         d="m -209.54999,241.4397 c -0.38805,-0.0568 -2.41212,-0.29677 -4.49792,-0.53323 -3.48424,-0.39499 -3.79208,-0.49018 -3.78897,-1.17157 0.005,-1.05211 1.69543,-10.84833 1.90906,-11.06196 0.0974,-0.0974 1.65168,-0.006 3.45388,0.20226 1.8022,0.20867 4.17705,0.47702 5.27745,0.59634 l 2.00072,0.21695 -0.14471,1.83016 c -0.0796,1.00659 -0.24151,3.69548 -0.35983,5.97531 l -0.21511,4.14513 -1.46451,-0.048 c -0.80547,-0.0264 -1.782,-0.0945 -2.17006,-0.15135 z m 6.95609,-5.59473 c 0.0979,-3.22699 0.23968,-5.92357 0.31511,-5.9924 0.0754,-0.0688 2.51638,-0.18347 5.42434,-0.25473 l 5.2872,-0.12958 0.56238,5.82083 c 0.3093,3.20146 0.49664,5.90021 0.4163,5.99723 -0.0803,0.097 -2.85445,0.23253 -6.16469,0.30114 l -6.01861,0.12476 z m 15.29376,4.66961 c -0.0805,-0.25464 -0.40613,-2.68549 -0.7237,-5.40187 -0.31757,-2.71639 -0.65338,-5.20175 -0.74624,-5.52301 -0.13217,-0.45722 0.15976,-0.63462 1.34368,-0.81655 0.83189,-0.12784 3.22259,-0.56263 5.31266,-0.96621 2.09008,-0.40358 3.8646,-0.66931 3.94339,-0.59052 0.20763,0.20762 2.99586,11.3856 2.87114,11.51032 -0.14614,0.14615 -8.13404,1.72769 -10.17632,2.01484 -1.23991,0.17434 -1.71653,0.11504 -1.82461,-0.227 z m -38.20119,-1.70627 c -6.09013,-1.51633 -7.59504,-2.07901 -7.33974,-2.74429 0.11896,-0.31002 0.94712,-2.87995 1.84035,-5.71097 l 1.62405,-5.1473 4.24312,1.16112 c 2.33371,0.63861 4.49284,1.16354 4.79806,1.16651 1.52422,0.0149 1.54557,0.36568 0.37773,6.20794 -0.61619,3.0826 -1.22527,5.7054 -1.35351,5.82845 -0.12824,0.12306 -2.01377,-0.2196 -4.19006,-0.76146 z m 51.69689,-6.78241 -1.58574,-5.73264 4.43954,-1.51731 c 2.44175,-0.83452 4.76583,-1.60118 5.16462,-1.70369 0.64599,-0.16605 0.96383,0.40111 2.91412,5.20014 1.30572,3.21297 2.06024,5.51531 1.86986,5.70569 -0.3651,0.3651 -10.09674,3.78045 -10.77196,3.78045 -0.27444,0 -1.0518,-2.19477 -2.03044,-5.73264 z m -66.61361,1.90051 c -5.04303,-2.1032 -6.70277,-2.91873 -6.70277,-3.29347 0,-0.25907 4.85355,-10.15579 5.12833,-10.45701 0.0603,-0.0661 1.35198,0.43735 2.87048,1.11867 1.5185,0.68133 3.68906,1.60851 4.82346,2.06039 1.13441,0.45188 2.07893,0.95195 2.09894,1.11126 0.0542,0.43169 -3.77995,11.16896 -3.9851,11.15991 -0.097,-0.004 -2.00202,-0.76917 -4.23334,-1.69975 z m 80.50596,-6.31847 c -1.18253,-2.67241 -2.25403,-5.12986 -2.3811,-5.46099 -0.18476,-0.48148 0.28826,-0.84541 2.36164,-1.817 1.42597,-0.66822 3.57991,-1.77838 4.78653,-2.46704 l 2.19386,-1.25211 3.08077,5.14671 c 2.97185,4.96476 3.05642,5.16503 2.39225,5.66476 -0.85512,0.6434 -9.56144,5.0446 -9.97908,5.0446 -0.16764,0 -1.27233,-2.18652 -2.45487,-4.85893 z m -93.78216,-0.19862 c -2.54227,-1.50227 -5.96674,-3.68794 -6.78508,-4.33058 -0.0711,-0.0559 1.41487,-2.33052 3.30225,-5.05479 2.13486,-3.08148 3.58347,-4.86133 3.83351,-4.71005 0.22105,0.13374 1.51547,0.96568 2.87649,1.84876 1.36102,0.88308 3.22633,2.0022 4.14514,2.48694 0.91881,0.48474 1.67056,1.00899 1.67056,1.16502 0,0.42039 -5.43535,10.47724 -5.66256,10.47724 -0.10698,10e-6 -1.62812,-0.84713 -3.38031,-1.88254 z m 106.05677,-6.86234 c -1.64924,-2.66038 -2.99861,-4.94656 -2.99861,-5.0804 0,-0.13385 1.64776,-1.40385 3.66169,-2.82223 2.01393,-1.41838 3.96288,-2.7995 4.331,-3.06916 0.36812,-0.26966 0.71635,-0.42841 0.77384,-0.35278 0.0575,0.0756 1.7539,2.17777 3.76981,4.67141 l 3.66529,4.53388 -1.22165,1.01398 c -1.76417,1.46428 -8.33946,5.97209 -8.68767,5.95599 -0.1623,-0.008 -1.64447,-2.19032 -3.2937,-4.85069 z m -119.47178,-2.49093 c -2.10324,-1.72506 -4.18055,-3.52376 -4.61626,-3.9971 l -0.79218,-0.86062 3.93179,-4.21226 c 2.16248,-2.31674 4.02709,-4.25136 4.14357,-4.29915 0.11649,-0.0478 1.32304,0.87664 2.68124,2.05429 1.35819,1.17765 3.20962,2.70723 4.11428,3.39905 l 1.64484,1.25787 -3.02143,4.09617 c -1.66179,2.2529 -3.30052,4.45664 -3.64162,4.89721 l -0.62018,0.80102 z m 130.73294,-5.05231 c -1.82801,-2.1675 -3.51067,-4.20207 -3.73923,-4.52128 -0.35455,-0.49515 0.15116,-1.11218 3.44403,-4.20221 l 3.85958,-3.62184 4.2289,3.9577 c 2.32589,2.17674 4.22889,4.16576 4.22889,4.42005 0,0.46906 -7.92676,7.90849 -8.42655,7.90849 -0.14957,0 -1.7676,-1.77341 -3.59562,-3.94091 z m -142.07124,-5.67229 c -1.75876,-1.98878 -3.51713,-4.02662 -3.90748,-4.52852 l -0.70974,-0.91256 4.57532,-3.61179 c 2.51643,-1.98649 4.71883,-3.56021 4.89422,-3.49717 0.17539,0.0631 1.85766,1.83903 3.73839,3.94664 l 3.4195,3.83202 -4.18275,4.19367 c -2.30052,2.30653 -4.28332,4.19369 -4.40624,4.19369 -0.12291,0 -1.66246,-1.62719 -3.42122,-3.61598 z m 151.89349,-4.90672 -4.42582,-3.93658 1.84278,-2.17225 c 1.01352,-1.19474 2.50933,-3.07453 3.324,-4.17731 0.81467,-1.10278 1.55862,-2.00505 1.65322,-2.00505 0.27955,0 9.30739,6.37958 9.52415,6.73031 0.10915,0.1766 -0.244,0.91734 -0.78475,1.64608 -2.02252,2.72561 -6.24923,7.85138 -6.47427,7.85138 -0.12842,0 -2.2251,-1.77146 -4.65931,-3.93658 z m -161.84232,-7.94005 c -1.7568,-2.65159 -3.13702,-4.99315 -3.06715,-5.20347 0.16865,-0.50768 9.47795,-5.86593 10.00397,-5.75809 0.3215,0.0659 2.94775,3.76971 5.84722,8.24637 0.16402,0.25322 -1.49288,1.71722 -4.49168,3.96875 -2.61336,1.96213 -4.82955,3.56752 -4.92487,3.56752 -0.0953,0 -1.61068,-2.16949 -3.36749,-4.82108 z m 170.80628,-3.50087 -5.05402,-3.34407 0.73767,-1.13436 c 0.40572,-0.62389 1.56795,-2.62268 2.58273,-4.44175 1.01479,-1.81907 2.02633,-3.37696 2.24788,-3.46198 0.54606,-0.20954 10.36059,4.73398 10.36059,5.21857 0,0.54613 -2.55013,5.35182 -4.32261,8.1459 l -1.49822,2.36176 z m -178.03928,-9.40514 c -3.34844,-6.93706 -3.60887,-6.07551 2.55932,-8.46666 2.87794,-1.11566 5.40523,-2.02848 5.61619,-2.02848 0.21096,0 0.59033,0.51594 0.84304,1.14653 0.25271,0.63059 1.23628,2.78837 2.1857,4.79506 0.94943,2.0067 1.67474,3.68629 1.6118,3.73244 -0.35221,0.25825 -10.25986,5.49542 -10.39621,5.49542 -0.09,0 -1.17891,-2.10344 -2.41984,-4.67431 z m 184.85719,-3.36464 c -2.71639,-1.28794 -4.9903,-2.37257 -5.05312,-2.41029 -0.13448,-0.0807 3.66161,-9.61991 3.93835,-9.89664 0.1037,-0.1037 2.67196,0.63915 5.70725,1.65078 6.457728,2.1523 6.07544,1.17305 3.23528,8.28732 -1.13568,2.84474 -2.03141,4.60906 -2.35971,4.64792 -0.29104,0.0345 -2.75166,-0.99114 -5.46805,-2.27909 z m -190.31665,-10.54571 c -0.78659,-2.46045 -1.52451,-5.06352 -1.63981,-5.78459 -0.2464,-1.54092 -0.82265,-1.27331 6.24642,-2.9008 l 5.14276,-1.184 1.33604,4.61383 c 0.73483,2.5376 1.35746,4.9027 1.38364,5.25578 0.0384,0.51826 -0.97189,1.01089 -5.24408,2.55699 -2.91042,1.05328 -5.40487,1.91534 -5.54324,1.91569 -0.13836,3.6e-4 -0.89513,-2.01245 -1.68173,-4.4729 z m 196.84304,-2.63384 c -1.84327,-0.56708 -4.16221,-1.26834 -5.15322,-1.55837 l -1.80182,-0.52731 0.64799,-2.33682 c 0.35639,-1.28526 0.91261,-3.66933 1.23605,-5.29795 0.57475,-2.89404 0.60888,-2.95691 1.50662,-2.77555 0.5052,0.10206 2.90292,0.51281 5.32827,0.91278 2.42534,0.39997 4.692427,0.81248 5.037959,0.91669 0.747483,0.22544 0.696521,0.643 -0.888439,7.27878 -1.24895,5.22901 -0.787594,4.96471 -5.91341,3.38775 z m -199.82691,-9.17459 c -0.8188,-4.90962 -1.24454,-8.03753 -1.25011,-9.1846 -0.006,-1.26698 0.0332,-1.30636 1.49297,-1.49296 2.36119,-0.30182 10.23777,-0.93467 10.31712,-0.82893 0.0394,0.0525 0.33935,2.07978 0.66661,4.50513 0.32726,2.42535 0.68029,4.81007 0.78451,5.29939 0.18848,0.8849 0.16247,0.89496 -4.86333,1.88065 -2.77905,0.54504 -5.46665,1.0728 -5.97244,1.1728 -0.85095,0.16824 -0.93871,0.0673 -1.17533,-1.35148 z m 201.65243,-5.42094 c -2.97354,-0.44572 -5.48101,-0.88498 -5.57217,-0.97614 -0.0912,-0.0912 0.0326,-2.57632 0.27502,-5.52259 0.42175,-5.12566 0.47192,-5.34847 1.16245,-5.16297 0.39692,0.10663 3.08774,0.19604 5.97959,0.19869 l 5.257913,0.005 -0.227961,4.32152 c -0.306465,5.80965 -0.606256,8.03358 -1.076586,7.98638 -0.215509,-0.0216 -2.824728,-0.40399 -5.798256,-0.84971 z M -305.68194,135.9599 v -6.23267 l 1.85208,0.20391 c 1.01865,0.11215 3.7174,0.30822 5.99723,0.43572 l 4.14514,0.23182 v 5.39409 5.39409 l -2.91042,0.1974 c -1.60073,0.10858 -4.29948,0.28986 -5.99722,0.40286 l -3.08681,0.20544 z m 198.23932,-2.18262 c -0.012,-1.50371 -0.14643,-3.92465 -0.29875,-5.37986 -0.15231,-1.45521 -0.23252,-2.70133 -0.17825,-2.76915 0.2639,-0.32979 11.589188,-1.45103 11.865487,-1.17473 0.172121,0.17212 0.407321,2.85055 0.522672,5.95207 l 0.209734,5.63913 -4.021071,0.23168 c -2.211592,0.12743 -4.933882,0.2324 -6.049542,0.23328 l -2.02847,0.002 -0.0218,-2.73403 z m -193.12404,-6.63234 c -2.32834,-0.25235 -4.37089,-0.47065 -4.53902,-0.48511 -0.4774,-0.0411 1.05001,-11.29516 1.60883,-11.85398 0.1007,-0.1007 2.46807,0.2969 5.26081,0.88357 6.82956,1.43468 6.71504,1.40502 6.54077,1.69404 -0.15375,0.25499 -1.03891,5.49372 -1.45862,8.63271 l -0.22406,1.67569 -1.47769,-0.044 c -0.81273,-0.0242 -3.38269,-0.25052 -5.71102,-0.50287 z m 191.25383,-9.24261 c -0.55197,-2.66791 -1.02676,-5.06956 -1.05509,-5.33701 -0.0582,-0.54922 11.041537,-3.74643 11.453183,-3.29902 0.428688,0.46593 2.651601,11.26603 2.375619,11.54201 -0.08275,0.0828 -2.287171,0.47363 -4.898712,0.86861 -2.61155,0.39498 -5.22598,0.7987 -5.80985,0.89715 l -1.06158,0.179 z m -187.90244,-5.04348 c -3.00743,-0.74873 -5.51077,-1.36885 -5.56297,-1.37805 -0.2665,-0.0469 3.34623,-11.658383 3.62734,-11.658383 0.17286,0 10.86893,3.952433 11.0433,4.080743 0.0615,0.0453 -0.44884,1.85295 -1.13412,4.01708 -0.68528,2.16413 -1.34859,4.48182 -1.47402,5.15043 -0.12543,0.6686 -0.40882,1.20076 -0.62977,1.18257 -0.22094,-0.0182 -2.86233,-0.64566 -5.86976,-1.39439 z m 185.75043,-3.9158 c -0.74205,-2.09173 -2.36374,-6.44627 -2.94979,-7.92073 l -0.71492,-1.798705 5.35815,-2.346434 c 2.94698,-1.290535 5.46316,-2.346431 5.5915,-2.346431 0.46659,0 4.507943,11.11752 4.1423,11.39521 -0.0832,0.0632 -2.45314,0.80336 -5.26655,1.64483 -2.8134,0.84147 -5.31238,1.60192 -5.55327,1.68989 -0.2409,0.088 -0.51424,-0.055 -0.60742,-0.31763 z m -181.25252,-9.931673 c -2.86191,-1.1883 -5.20347,-2.328901 -5.20347,-2.534669 0,-0.205769 1.15094,-2.713197 2.55764,-5.572059 l 2.55764,-5.197934 5.01247,2.75111 c 2.75686,1.513109 5.1154,2.854032 5.24119,2.979826 0.12579,0.125789 -0.64103,2.024136 -1.70405,4.218545 -1.06302,2.194408 -2.04318,4.347024 -2.17815,4.783584 -0.13497,0.43656 -0.43313,0.77989 -0.66259,0.76294 -0.22946,-0.0169 -2.75877,-1.00305 -5.62068,-2.191343 z m 173.90028,-7.151614 -2.6352,-4.733604 5.10981,-3.20131 c 2.8104,-1.760722 5.14722,-3.150627 5.19293,-3.088676 1.07888,1.461992 5.49262,9.856485 5.49262,10.446407 0,0.312505 -0.36818,0.50521 -6.5854,3.446823 l -3.93956,1.863961 z m -167.46208,-5.465509 c -2.61938,-1.543159 -4.80332,-3.002806 -4.8532,-3.243654 -0.14709,-0.710138 6.04885,-9.614874 6.65953,-9.571006 0.29954,0.02152 2.54385,1.571279 4.98736,3.443922 l 4.44276,3.404804 -2.8842,4.375231 c -1.58631,2.406379 -3.04294,4.380008 -3.23697,4.385843 -0.19403,0.0058 -2.49591,-1.251977 -5.11528,-2.79514 z m 161.72893,-3.732922 c -0.76357,-1.108664 -2.14307,-2.959946 -3.06556,-4.113967 -0.92248,-1.154018 -1.67725,-2.227588 -1.67725,-2.38571 0,-0.283626 8.59689,-7.736463 8.92406,-7.736463 0.44483,0 7.54155,9.44182 7.25808,9.65651 -1.14536,0.867484 -9.2198,6.276404 -9.57005,6.410808 -0.29982,0.115052 -1.00389,-0.574668 -1.86928,-1.831178 z m -153.52685,-8.27465 c -2.37684,-1.936771 -4.32152,-3.658528 -4.32152,-3.826126 0,-0.714837 7.39299,-8.903674 7.91202,-8.763738 0.20804,0.05609 2.18251,1.95978 4.38771,4.23042 l 4.00945,4.128435 -2.88865,3.149929 c -1.58875,1.73246 -3.12419,3.486227 -3.41209,3.897259 -0.2879,0.411032 -0.71289,0.73786 -0.94442,0.726278 -0.23153,-0.01157 -2.36566,-1.605682 -4.7425,-3.542457 z m 142.72277,-4.36426 -3.76821,-3.669101 3.88157,-4.43212 c 2.13487,-2.437667 4.01534,-4.432121 4.17883,-4.432121 0.41052,0 8.478,7.96717 8.44618,8.341167 -0.0298,0.350008 -8.09024,7.608412 -8.61738,7.759898 -0.19402,0.05576 -2.04847,-1.549718 -4.12099,-3.567723 z m -132.68708,-6.260331 c -3.89082,-4.136465 -4.04862,-4.362779 -3.48368,-4.99604 0.48074,-0.538878 6.91126,-5.894596 8.39125,-6.988733 0.25323,-0.187212 1.36611,1.048788 3.15591,3.505038 1.52061,2.086822 3.12831,4.282561 3.57267,4.879418 l 0.80793,1.085194 -3.2072,2.618973 c -1.76396,1.440434 -3.64691,2.981202 -4.18433,3.423928 l -0.97712,0.804954 z m 125.51918,-0.133072 c -0.58208,-0.489634 -2.5208,-1.92036 -4.30827,-3.179385 l -3.24994,-2.28914 1.63566,-2.540568 c 0.89961,-1.397314 2.37519,-3.689784 3.27906,-5.094383 l 1.64341,-2.553819 2.67578,1.848263 c 3.56941,2.465522 6.96736,5.134469 6.96736,5.472561 0,0.250564 -7.32625,9.268475 -7.50619,9.239403 -0.0432,-0.007 -0.55478,-0.413297 -1.13687,-0.902932 z M -256.57739,54.86773 c -1.78389,-2.605907 -3.24344,-4.892496 -3.24344,-5.081306 0,-0.384531 4.29528,-3.210761 7.84528,-5.162088 l 2.32821,-1.279744 2.28271,4.338214 c 1.25549,2.38602 2.52044,4.8079 2.81099,5.381957 l 0.52827,1.043739 -2.87064,1.610837 c -1.57886,0.885959 -3.61363,2.12284 -4.52171,2.748622 -0.90808,0.625782 -1.71072,1.137786 -1.78365,1.137786 -0.0729,0 -1.59213,-2.132108 -3.37602,-4.738017 z m 100.47324,-0.196692 c -1.64924,-0.952009 -3.68115,-1.993537 -4.51537,-2.314508 -0.83421,-0.320968 -1.46921,-0.703919 -1.41111,-0.850999 0.0581,-0.14708 1.19846,-2.665621 2.53411,-5.596756 l 2.42846,-5.329337 4.80349,2.439617 c 2.64191,1.341787 5.07831,2.646144 5.41422,2.898571 0.55975,0.420638 0.36071,0.871277 -2.38406,5.397843 -1.64713,2.716389 -3.19197,4.972099 -3.43296,5.012694 -0.24099,0.04059 -1.78754,-0.705115 -3.43678,-1.657125 z m -88.08195,-7.423549 -2.53333,-5.295015 2.00416,-0.99731 c 3.53334,-1.758255 8.88151,-3.718945 9.19918,-3.372503 0.59818,0.652382 3.9889,10.802678 3.69262,11.054074 -0.16736,0.142011 -1.49492,0.707535 -2.95013,1.256725 -1.45521,0.549187 -3.39462,1.371618 -4.3098,1.827626 -0.91518,0.456007 -1.86768,0.827376 -2.11667,0.82526 -0.24898,-0.0021 -1.5927,-2.386602 -2.98603,-5.298857 z m 75.02917,1.584406 c -2.23132,-0.849531 -4.32539,-1.551075 -4.65348,-1.558985 -0.3281,-0.0079 -0.68977,-0.165216 -0.8037,-0.349564 -0.17688,-0.286201 2.74709,-11.183434 3.09379,-11.530137 0.18102,-0.181021 10.777,3.456937 11.45336,3.932326 0.18341,0.128916 -4.5751,11.107538 -4.80223,11.079474 -0.12694,-0.01566 -2.05642,-0.723582 -4.28774,-1.573114 z m -59.78584,-1.624965 c -0.63985,-1.773167 -3.36139,-10.512362 -3.36139,-10.793861 0,-0.551099 11.15322,-3.518927 11.58849,-3.083652 0.17391,0.173909 2.5246,11.604329 2.39737,11.657366 -0.0281,0.01171 -2.15632,0.533315 -4.72933,1.159094 -2.57302,0.625778 -4.91324,1.22797 -5.2005,1.338206 -0.28727,0.110233 -0.59985,-0.0145 -0.69464,-0.277153 z m 47.08584,-1.920741 c -2.03729,-0.453637 -4.10104,-0.832869 -4.58611,-0.842744 -1.83386,-0.03732 -1.84913,-0.13596 -1.00275,-6.476933 l 0.78538,-5.884002 1.25521,0.202917 c 2.89158,0.467449 10.43989,1.994546 10.58904,2.142268 0.0889,0.08803 -0.37602,2.256917 -1.03312,4.819746 -1.76496,6.883746 -1.78661,6.956503 -2.05548,6.908144 -0.1364,-0.02452 -1.91488,-0.415762 -3.95217,-0.869396 z m -33.66255,-1.251412 c -0.0862,-0.264231 -0.48775,-2.54417 -0.89226,-5.066531 -0.40451,-2.522362 -0.81915,-4.997624 -0.92142,-5.500579 -0.18345,-0.902265 -0.14688,-0.919798 2.74028,-1.313635 1.60943,-0.219544 4.37099,-0.50371 6.13682,-0.631483 l 3.21059,-0.232318 0.25472,5.900544 c 0.1401,3.245301 0.19981,5.955457 0.1327,6.022573 -0.0671,0.06712 -1.78526,0.289666 -3.8181,0.494556 -2.03283,0.204889 -4.36892,0.470348 -5.1913,0.589908 -1.09862,0.15972 -1.53683,0.08995 -1.65203,-0.263035 z m 17.52296,-0.567383 -3.96875,-0.112533 v -6.027089 -6.027089 l 5.80189,0.14006 c 3.19103,0.07703 5.91262,0.250808 6.04798,0.386165 0.21675,0.216747 -0.24845,6.193932 -0.80978,10.404532 l -0.19988,1.499306 -1.45135,-0.07541 c -0.79825,-0.04147 -3.23729,-0.126047 -5.42011,-0.187942 z"
         id="path3869"
         inkscape:connector-curvature="0" />
    </g>
  </g>
</svg>
