<?xml version="1.0" encoding="UTF-8" standalone="no"?>
<!-- Created with Inkscape (http://www.inkscape.org/) -->

<svg
   xmlns:dc="http://purl.org/dc/elements/1.1/"
   xmlns:cc="http://creativecommons.org/ns#"
   xmlns:rdf="http://www.w3.org/1999/02/22-rdf-syntax-ns#"
   xmlns:svg="http://www.w3.org/2000/svg"
   xmlns="http://www.w3.org/2000/svg"
   xmlns:sodipodi="http://sodipodi.sourceforge.net/DTD/sodipodi-0.dtd"
   xmlns:inkscape="http://www.inkscape.org/namespaces/inkscape"
   width="210mm"
   height="297mm"
   viewBox="0 0 210 297"
   version="1.1"
   id="svg3786"
   inkscape:version="0.92.3 (2405546, 2018-03-11)"
   sodipodi:docname="rings.svg">
  <defs
     id="defs3780" />
  <sodipodi:namedview
     id="base"
     pagecolor="#ffffff"
     bordercolor="#666666"
     borderopacity="1.0"
     inkscape:pageopacity="0.0"
     inkscape:pageshadow="2"
     inkscape:zoom="0.35"
     inkscape:cx="23.417026"
     inkscape:cy="363.47325"
     inkscape:document-units="mm"
     inkscape:current-layer="layer1"
     showgrid="false"
     inkscape:window-width="1440"
     inkscape:window-height="837"
     inkscape:window-x="-8"
     inkscape:window-y="-8"
     inkscape:window-maximized="1" />
  <metadata
     id="metadata3783">
    <rdf:RDF>
      <cc:Work
         rdf:about="">
        <dc:format>image/svg+xml</dc:format>
        <dc:type
           rdf:resource="http://purl.org/dc/dcmitype/StillImage" />
        <dc:title></dc:title>
      </cc:Work>
    </rdf:RDF>
  </metadata>
  <g
     inkscape:label="Capa 1"
     inkscape:groupmode="layer"
     id="layer1">
    <g
       id="g3833"
       transform="matrix(0.5843996,0,0,0.5843996,227.5422,47.441636)">
      <path
         style="fill:#5e5e5e;stroke-width:0.35277781"
         d="m -212.88208,320.99641 c 0.34325,-0.0894 0.8195,-0.0836 1.05834,0.0131 0.23884,0.0966 -0.042,0.16982 -0.62408,0.16263 -0.58208,-0.007 -0.7775,-0.0863 -0.43426,-0.1757 z m 15.16945,0 c 0.34324,-0.0894 0.81949,-0.0836 1.05833,0.0131 0.23884,0.0966 -0.042,0.16982 -0.62407,0.16263 -0.58208,-0.007 -0.7775,-0.0863 -0.43426,-0.1757 z m -20.26939,-0.34929 c 0.25466,-0.10191 0.55894,-0.0894 0.67616,0.0278 0.11722,0.11723 -0.0911,0.20061 -0.46302,0.18529 -0.41097,-0.0169 -0.49456,-0.10052 -0.21314,-0.21313 z m 25.75278,0 c 0.25466,-0.10191 0.55893,-0.0894 0.67616,0.0278 0.11722,0.11723 -0.0911,0.20061 -0.46302,0.18529 -0.41097,-0.0169 -0.49456,-0.10052 -0.21314,-0.21313 z m -13.60399,-6.71447 c 0.53357,-0.0808 1.4067,-0.0808 1.94027,0 0.53358,0.0808 0.097,0.14696 -0.97013,0.14696 -1.06716,0 -1.50372,-0.0661 -0.97014,-0.14696 z m -8.99584,-0.33374 c 0.24254,-0.0979 0.63941,-0.0979 0.88195,0 0.24253,0.0979 0.0441,0.17794 -0.44098,0.17794 -0.48506,0 -0.6835,-0.0801 -0.44097,-0.17794 z m 19.05,0 c 0.24254,-0.0979 0.63941,-0.0979 0.88195,0 0.24253,0.0979 0.0441,0.17794 -0.44097,0.17794 -0.48507,0 -0.68351,-0.0801 -0.44098,-0.17794 z m -23.26128,-0.36012 c 0.25466,-0.10191 0.55893,-0.0894 0.67616,0.0278 0.11722,0.11723 -0.0911,0.2006 -0.46302,0.18529 -0.41097,-0.0169 -0.49456,-0.10052 -0.21314,-0.21314 z m 27.86944,0 c 0.25466,-0.10191 0.55894,-0.0894 0.67616,0.0278 0.11723,0.11723 -0.0911,0.2006 -0.46302,0.18529 -0.41097,-0.0169 -0.49456,-0.10052 -0.21314,-0.21314 z m -15.89705,-15.54244 c 1.21268,-0.0689 3.19705,-0.0689 4.40973,0 1.21267,0.0689 0.22048,0.12525 -2.20486,0.12525 -2.42535,0 -3.41754,-0.0564 -2.20487,-0.12525 z m -8.09184,-0.33256 c 0.25466,-0.10191 0.55894,-0.0894 0.67616,0.0278 0.11723,0.11722 -0.0911,0.2006 -0.46302,0.18529 -0.41097,-0.0169 -0.49456,-0.10053 -0.21314,-0.21314 z m 20.10834,0 c 0.25466,-0.10191 0.55893,-0.0894 0.67616,0.0278 0.11722,0.11722 -0.0911,0.2006 -0.46302,0.18529 -0.41097,-0.0169 -0.49456,-0.10053 -0.21314,-0.21314 z m -11.13455,-1.7799 c 0.7276,-0.0761 1.91823,-0.0761 2.64583,0 0.72761,0.0761 0.13229,0.13838 -1.32291,0.13838 -1.45521,0 -2.05053,-0.0623 -1.32292,-0.13838 z m -8.29028,-0.32942 c 0.24254,-0.0979 0.63941,-0.0979 0.88194,0 0.24254,0.0979 0.0441,0.17793 -0.44097,0.17793 -0.48507,0 -0.6835,-0.0801 -0.44097,-0.17793 z m 18.34445,0 c 0.24253,-0.0979 0.63941,-0.0979 0.88194,0 0.24254,0.0979 0.0441,0.17793 -0.44097,0.17793 -0.48507,0 -0.68351,-0.0801 -0.44097,-0.17793 z m -22.20296,-0.36013 c 0.25466,-0.10191 0.55894,-0.0894 0.67616,0.0278 0.11723,0.11723 -0.0911,0.20061 -0.46302,0.18529 -0.41097,-0.0169 -0.49456,-0.10052 -0.21314,-0.21313 z m 26.45834,0 c 0.25466,-0.10191 0.55893,-0.0894 0.67616,0.0278 0.11722,0.11723 -0.0911,0.20061 -0.46302,0.18529 -0.41097,-0.0169 -0.49456,-0.10052 -0.21314,-0.21313 z M -306.5081,282.8763 c -0.43881,-0.55953 -0.42633,-0.57201 0.13319,-0.1332 0.33955,0.2663 0.61736,0.54411 0.61736,0.61736 0,0.29035 -0.28969,0.10348 -0.75055,-0.48416 z m -4.20733,-3.88056 -1.21573,-1.32291 1.32292,1.21573 c 0.7276,0.66865 1.32292,1.26396 1.32292,1.32291 0,0.26939 -0.29853,0.0156 -1.43011,-1.21573 z m 8.44066,-2.11666 c -0.43881,-0.55953 -0.42633,-0.57201 0.1332,-0.1332 0.33954,0.26629 0.61736,0.54411 0.61736,0.61736 0,0.29035 -0.2897,0.10347 -0.75056,-0.48416 z m -14.0851,-3.52778 -1.21573,-1.32292 1.32291,1.21573 c 0.72761,0.66865 1.32292,1.26397 1.32292,1.32292 0,0.26939 -0.29853,0.0156 -1.4301,-1.21573 z m 7.94821,-2.29306 -2.81394,-2.91042 2.91041,2.81395 c 2.70311,2.61351 3.07125,3.00689 2.81395,3.00689 -0.0531,0 -1.36274,-1.30969 -2.91042,-2.91042 z m -11.85478,-1.94028 c -0.43881,-0.55952 -0.42633,-0.572 0.1332,-0.13319 0.58764,0.46086 0.77451,0.75055 0.48416,0.75055 -0.0732,0 -0.35106,-0.27781 -0.61736,-0.61736 z m 197.95335,-0.92694 c 0,-0.0733 0.27781,-0.35107 0.61736,-0.61736 0.55953,-0.43881 0.57201,-0.42633 0.1332,0.13319 -0.46086,0.58764 -0.75056,0.77452 -0.75056,0.48417 z m -191.95612,-3.30639 c -0.43881,-0.55953 -0.42634,-0.572 0.13319,-0.13319 0.58764,0.46085 0.77452,0.75055 0.48417,0.75055 -0.0733,0 -0.35107,-0.27781 -0.61736,-0.61736 z m 26.10555,0 c -0.43881,-0.55953 -0.42633,-0.572 0.1332,-0.13319 0.33955,0.26629 0.61736,0.5441 0.61736,0.61736 0,0.29035 -0.2897,0.10347 -0.75056,-0.48417 z m -6.1508,-2.64583 -1.03614,-1.14653 1.14653,1.03614 c 1.06872,0.96583 1.30868,1.25691 1.03614,1.25691 -0.0607,0 -0.57665,-0.51593 -1.14653,-1.14652 z m 2.9941,-0.17639 -0.85524,-0.97014 0.97014,0.85524 c 0.90674,0.79936 1.13192,1.08504 0.85524,1.08504 -0.0632,0 -0.49975,-0.43657 -0.97014,-0.97014 z m -8.28577,-5.11528 -1.03614,-1.14653 1.14653,1.03614 c 1.06873,0.96583 1.30868,1.25692 1.03614,1.25692 -0.0607,0 -0.57665,-0.51594 -1.14653,-1.14653 z m 0.17188,-2.99861 -0.85524,-0.97014 0.97014,0.85524 c 0.90674,0.79936 1.13192,1.08504 0.85524,1.08504 -0.0632,0 -0.49975,-0.43657 -0.97014,-0.97014 z m -2.84052,-3.175 c -0.43881,-0.55953 -0.42633,-0.57201 0.1332,-0.1332 0.58764,0.46086 0.77451,0.75056 0.48416,0.75056 -0.0732,0 -0.35106,-0.27781 -0.61736,-0.61736 z m 213.672731,-1.33414 c -0.376633,-0.28487 -0.505065,-0.51795 -0.285405,-0.51795 0.219664,0 0.504187,0.16958 0.632277,0.37683 0.128093,0.20726 0.463208,0.28845 0.7447,0.18043 0.285806,-0.10967 0.416634,-0.0424 0.296273,0.15234 -0.287556,0.46528 -0.57107,0.42613 -1.387845,-0.19165 z M -340.50616,245.211 c 1.16417,-0.67079 2.27542,-1.21979 2.46944,-1.22 0.19403,-2.1e-4 -0.64214,0.55343 -1.85815,1.23031 -1.21602,0.67687 -2.32727,1.22587 -2.46945,1.22 -0.14218,-0.006 0.69399,-0.55952 1.85816,-1.23031 z m -22.37354,-60.70091 c 0.0169,-0.41097 0.10052,-0.49456 0.21314,-0.21314 0.1019,0.25466 0.0894,0.55893 -0.0279,0.67616 -0.11722,0.11722 -0.2006,-0.0911 -0.18528,-0.46302 z m 300.213913,-0.70556 c 0.01693,-0.41097 0.10052,-0.49456 0.213134,-0.21314 0.101907,0.25466 0.08938,0.55894 -0.02783,0.67616 -0.117224,0.11723 -0.200604,-0.0911 -0.185286,-0.46302 z m -287.866693,-2.11666 c 0.0169,-0.41097 0.10052,-0.49456 0.21314,-0.21314 0.1019,0.25466 0.0894,0.55893 -0.0278,0.67616 -0.11722,0.11722 -0.2006,-0.0911 -0.18528,-0.46302 z m 18.34445,-0.70556 c 0.0169,-0.41097 0.10052,-0.49456 0.21313,-0.21314 0.10191,0.25466 0.0894,0.55894 -0.0278,0.67616 -0.11723,0.11723 -0.2006,-0.0911 -0.18529,-0.46302 z m -31.04445,-0.35278 c 0.0169,-0.41097 0.10052,-0.49456 0.21314,-0.21314 0.10191,0.25466 0.0894,0.55894 -0.0279,0.67616 -0.11723,0.11723 -0.20061,-0.0911 -0.18529,-0.46302 z m 300.919471,-0.35278 c 0.01693,-0.41096 0.10052,-0.49456 0.213134,-0.21313 0.101907,0.25466 0.08938,0.55893 -0.02783,0.67615 -0.117225,0.11723 -0.200604,-0.0911 -0.185286,-0.46302 z m -1.763889,-0.70555 c 0.01693,-0.41097 0.10052,-0.49456 0.213134,-0.21314 0.101907,0.25466 0.08938,0.55893 -0.02783,0.67616 -0.117225,0.11722 -0.200604,-0.0911 -0.185286,-0.46302 z m -270.580572,-1.76389 c 0.0169,-0.41097 0.10052,-0.49456 0.21313,-0.21314 0.10191,0.25466 0.0894,0.55894 -0.0278,0.67616 -0.11723,0.11722 -0.20061,-0.0911 -0.18529,-0.46302 z m -16.19994,-0.49977 c 0,-0.48507 0.0801,-0.68351 0.17794,-0.44097 0.0979,0.24253 0.0979,0.63941 0,0.88194 -0.0979,0.24254 -0.17794,0.0441 -0.17794,-0.44097 z m 18.34445,-0.35278 c 0,-0.48507 0.0801,-0.68351 0.17794,-0.44097 0.0979,0.24253 0.0979,0.63941 0,0.88194 -0.0979,0.24254 -0.17794,0.0441 -0.17794,-0.44097 z m 260.157383,0.0638 c -0.09822,-0.15892 0.289288,-0.22027 0.861123,-0.13635 0.571839,0.0839 1.039703,0.21396 1.039703,0.28895 0,0.26881 -1.726021,0.13025 -1.900826,-0.1526 z m -291.188753,-1.65133 c 0.007,-0.58208 0.0863,-0.7775 0.1757,-0.43426 0.0894,0.34325 0.0836,0.8195 -0.0131,1.05834 -0.0966,0.23884 -0.16981,-0.042 -0.16262,-0.62408 z m 294.922243,-0.35278 c 0.0072,-0.58208 0.08625,-0.7775 0.175697,-0.43425 0.08944,0.34324 0.08356,0.81949 -0.01309,1.05833 -0.09664,0.23884 -0.169817,-0.042 -0.162627,-0.62408 z m 6.689704,0.17639 c 0,-0.48507 0.08007,-0.6835 0.177937,-0.44097 0.09786,0.24254 0.09786,0.63941 0,0.88195 -0.09786,0.24253 -0.177937,0.0441 -0.177937,-0.44098 z m -1.737745,-1.05833 c 0,-0.6791 0.0726,-0.95691 0.161336,-0.61736 0.08873,0.33955 0.08873,0.89517 0,1.23472 -0.08873,0.33955 -0.161336,0.0617 -0.161336,-0.61736 z m -271.232032,-6.35 c 0,-2.42535 0.0564,-3.41754 0.12525,-2.20486 0.0689,1.21267 0.0689,3.19705 0,4.40972 -0.0689,1.21267 -0.12525,0.22049 -0.12525,-2.20486 z m 2.09933,0 c 0,-1.45521 0.0623,-2.05052 0.13838,-1.32292 0.0761,0.72761 0.0761,1.91823 0,2.64584 -0.0761,0.7276 -0.13838,0.13229 -0.13838,-1.32292 z m 260.697104,0 c 0,-1.26118 0.06403,-1.77712 0.142286,-1.14653 0.07825,0.63059 0.07825,1.66247 0,2.29306 -0.07826,0.63059 -0.142286,0.11465 -0.142286,-1.14653 z m -279.054444,0 c 0,-1.06715 0.0661,-1.50372 0.14696,-0.97014 0.0808,0.53358 0.0808,1.4067 0,1.94028 -0.0808,0.53357 -0.14696,0.097 -0.14696,-0.97014 z m 287.490042,-6.35 c 0,-0.6791 0.0726,-0.95691 0.161336,-0.61736 0.08873,0.33955 0.08873,0.89517 0,1.23472 -0.08873,0.33955 -0.161336,0.0617 -0.161336,-0.61736 z m -4.951959,-0.88195 c 0.0072,-0.58208 0.08625,-0.7775 0.175697,-0.43425 0.08944,0.34324 0.08356,0.81949 -0.01309,1.05833 -0.09664,0.23884 -0.169817,-0.042 -0.162627,-0.62408 z m -294.922243,-0.35277 c 0.007,-0.58209 0.0863,-0.77751 0.1757,-0.43426 0.0894,0.34324 0.0836,0.81949 -0.0131,1.05833 -0.0966,0.23884 -0.16981,-0.042 -0.16262,-0.62407 z m 301.611947,0.17639 c 0,-0.48507 0.08007,-0.68351 0.177937,-0.44098 0.09786,0.24254 0.09786,0.63941 0,0.88195 -0.09786,0.24253 -0.177937,0.0441 -0.177937,-0.44097 z m -270.580577,-1.76389 c 0,-0.48507 0.0801,-0.68351 0.17794,-0.44098 0.0979,0.24254 0.0979,0.63941 0,0.88195 -0.0979,0.24253 -0.17794,0.0441 -0.17794,-0.44097 z m 259.235987,0.35277 -0.881944,-0.28244 0.970138,-0.0352 c 0.533577,-0.0193 0.970139,0.1236 0.970139,0.31762 0,0.19403 -0.03969,0.33696 -0.08819,0.31762 -0.04851,-0.0193 -0.485069,-0.16227 -0.970139,-0.31762 z m -277.580437,-0.70555 c 0,-0.48507 0.0801,-0.68351 0.17794,-0.44097 0.0979,0.24253 0.0979,0.63941 0,0.88194 -0.0979,0.24254 -0.17794,0.0441 -0.17794,-0.44097 z m 16.19994,-0.55857 c 0.0169,-0.41096 0.10052,-0.49455 0.21313,-0.21313 0.10191,0.25466 0.0894,0.55893 -0.0278,0.67616 -0.11723,0.11722 -0.20061,-0.0911 -0.18529,-0.46303 z m 260.350015,-1.41111 c 0.01693,-0.41097 0.100521,-0.49456 0.213135,-0.21313 0.101907,0.25466 0.08938,0.55893 -0.02784,0.67615 -0.117224,0.11723 -0.200603,-0.0911 -0.185285,-0.46302 z m 10.230557,-0.35277 c 0.01693,-0.41097 0.10052,-0.49456 0.213134,-0.21314 0.101907,0.25466 0.08938,0.55893 -0.02783,0.67616 -0.117225,0.11722 -0.200604,-0.0911 -0.185286,-0.46302 z m -4.93889,-0.35278 c 0.01693,-0.41097 0.100521,-0.49456 0.213135,-0.21314 0.101907,0.25466 0.08938,0.55893 -0.02783,0.67616 -0.117225,0.11722 -0.200604,-0.0911 -0.185286,-0.46302 z m 6.702779,-0.35278 c 0.01693,-0.41097 0.10052,-0.49456 0.213134,-0.21314 0.101907,0.25466 0.08938,0.55894 -0.02783,0.67616 -0.117225,0.11723 -0.200604,-0.0911 -0.185286,-0.46302 z m -300.919471,-0.35278 c 0.0169,-0.41097 0.10052,-0.49456 0.21314,-0.21314 0.10191,0.25466 0.0894,0.55894 -0.0279,0.67616 -0.11723,0.11723 -0.20061,-0.0911 -0.18529,-0.46302 z m 31.04445,-0.35278 c 0.0169,-0.41096 0.10052,-0.49455 0.21313,-0.21313 0.10191,0.25466 0.0894,0.55893 -0.0278,0.67616 -0.11723,0.11722 -0.2006,-0.0911 -0.18529,-0.46303 z m -18.34445,-0.70555 c 0.0169,-0.41097 0.10052,-0.49456 0.21314,-0.21314 0.1019,0.25466 0.0894,0.55893 -0.0278,0.67616 -0.11722,0.11722 -0.2006,-0.0911 -0.18528,-0.46302 z m 281.163915,-1.76389 c 0.01693,-0.41097 0.10052,-0.49456 0.213134,-0.21314 0.101907,0.25466 0.08938,0.55894 -0.02783,0.67616 -0.117225,0.11723 -0.200604,-0.0911 -0.185286,-0.46302 z m 6.702778,-0.35278 c 0.01693,-0.41097 0.10052,-0.49456 0.213134,-0.21314 0.101907,0.25466 0.08938,0.55894 -0.02783,0.67616 -0.117224,0.11723 -0.200604,-0.0911 -0.185286,-0.46302 z M -362.8797,150.9962 c 0.0169,-0.41097 0.10052,-0.49456 0.21314,-0.21314 0.1019,0.25466 0.0894,0.55893 -0.0279,0.67616 -0.11722,0.11722 -0.2006,-0.0911 -0.18528,-0.46302 z m 25.98951,-9.55286 c 0.24254,-0.0979 0.63941,-0.0979 0.88195,0 0.24253,0.0979 0.0441,0.17794 -0.44098,0.17794 -0.48507,0 -0.6835,-0.0801 -0.44097,-0.17794 z m -1.83175,-0.43901 c -0.10873,-0.17594 0.12002,-0.2368 0.50835,-0.13525 0.82373,0.21541 0.92786,0.45512 0.1977,0.45512 -0.2796,0 -0.59731,-0.14394 -0.70605,-0.31987 z m 32.96439,-59.785548 c 0,-0.07325 0.27782,-0.351067 0.61736,-0.617361 0.55953,-0.43881 0.57201,-0.426332 0.1332,0.133194 -0.46086,0.58764 -0.75056,0.774517 -0.75056,0.484167 z m 198.92169,-0.484167 c -0.43881,-0.559526 -0.42634,-0.572004 0.13319,-0.133194 0.58764,0.460858 0.77452,0.750556 0.48417,0.750556 -0.0733,0 -0.35107,-0.277813 -0.61736,-0.617362 z m -201.74391,-1.985278 c 0,-0.07325 0.27781,-0.351067 0.61736,-0.617361 0.55953,-0.43881 0.57201,-0.426332 0.1332,0.133195 -0.46086,0.587639 -0.75056,0.774516 -0.75056,0.484166 z m 206.68279,-0.484166 c -0.43881,-0.559527 -0.42633,-0.572005 0.1332,-0.133195 0.33955,0.266294 0.61736,0.544107 0.61736,0.617361 0,0.29035 -0.2897,0.103473 -0.75056,-0.484166 z m -201.03834,-0.198582 c 0,-0.06071 0.51593,-0.576651 1.14652,-1.146528 l 1.14653,-1.03614 -1.03614,1.146528 c -0.96583,1.068726 -1.25691,1.308682 -1.25691,1.03614 z m 212.901401,-0.836518 c 0.831543,-0.81287 5.820834,-4.726996 5.820834,-4.566472 0,0.207024 -4.869491,4.192383 -5.644445,4.619608 -0.346583,0.191064 -0.407444,0.172734 -0.176389,-0.05314 z m -22.236041,-2.316289 -2.10563,-2.204862 2.20486,2.105625 c 2.04813,1.955945 2.3663,2.304098 2.10563,2.304098 -0.0546,0 -1.04677,-0.992188 -2.20486,-2.204861 z m 17.075763,0.881944 c -0.43881,-0.559527 -0.426332,-0.572004 0.133195,-0.133195 0.339548,0.266295 0.617361,0.544107 0.617361,0.617362 0,0.29035 -0.289698,0.103473 -0.750556,-0.484167 z M -305.05199,74.825587 c 0.4557,-0.485069 0.90792,-0.881944 1.00493,-0.881944 0.097,0 -0.19645,0.396875 -0.65215,0.881944 -0.4557,0.48507 -0.90792,0.881945 -1.00494,0.881945 -0.097,0 0.19646,-0.396875 0.65216,-0.881945 z m 199.99831,-0.08819 -0.85524,-0.970139 0.97014,0.855243 c 0.53358,0.470386 0.97014,0.906949 0.97014,0.970139 0,0.276676 -0.28568,0.0515 -1.08504,-0.855243 z m -192.7456,-0.981358 c -0.37663,-0.284871 -0.52744,-0.517948 -0.33514,-0.517948 0.19231,0 0.5364,0.18675 0.76465,0.414997 0.31814,0.318146 0.60219,0.256396 1.21708,-0.264583 l 0.80209,-0.679581 -0.67204,0.79375 c -0.78432,0.92637 -0.87058,0.938672 -1.77664,0.253365 z m 198.371749,-0.07698 c -0.43881,-0.559526 -0.426332,-0.572004 0.133195,-0.133194 0.58764,0.460858 0.774516,0.750556 0.484166,0.750556 -0.07325,0 -0.351067,-0.277813 -0.617361,-0.617362 z m 2.116667,-0.352777 c -0.43881,-0.559527 -0.426332,-0.572005 0.133195,-0.133195 0.587639,0.460858 0.774516,0.750556 0.484166,0.750556 -0.07325,0 -0.351067,-0.277813 -0.617361,-0.617361 z M -314.57699,70.988225 c 0,-0.07325 0.27781,-0.351066 0.61736,-0.617361 0.55953,-0.438809 0.572,-0.426332 0.13319,0.133195 -0.46085,0.58764 -0.75055,0.774517 -0.75055,0.484166 z m 218.677237,-0.484166 c -0.43881,-0.559527 -0.426332,-0.572004 0.133195,-0.133195 0.58764,0.460859 0.774517,0.750556 0.484166,0.750556 -0.07325,0 -0.351067,-0.277812 -0.617361,-0.617361 z m -5.092467,-1.234722 -1.03614,-1.146528 1.14652,1.03614 c 0.63059,0.569877 1.146532,1.085815 1.146532,1.146528 0,0.272542 -0.291092,0.0326 -1.256912,-1.03614 z m -191.35977,0.660555 c 0,-0.07325 0.27781,-0.351067 0.61736,-0.617361 0.55953,-0.43881 0.57201,-0.426332 0.1332,0.133195 -0.46086,0.587639 -0.75056,0.774516 -0.75056,0.484166 z m 174.22724,-0.484166 c -0.43881,-0.559527 -0.42634,-0.572005 0.13319,-0.133195 0.58764,0.460858 0.77452,0.750556 0.48417,0.750556 -0.0733,0 -0.35107,-0.277813 -0.61736,-0.617361 z m 13.08758,-1.763889 -2.28286,-2.381251 2.38125,2.282864 c 2.21181,2.120424 2.54251,2.479637 2.28286,2.479637 -0.0541,0 -1.12567,-1.071563 -2.38125,-2.38125 z m -192.95926,0.08819 c 0.4557,-0.485069 0.90791,-0.881944 1.00493,-0.881944 0.097,0 -0.19646,0.396875 -0.65216,0.881944 -0.4557,0.48507 -0.90792,0.881945 -1.00493,0.881945 -0.097,0 0.19645,-0.396875 0.65216,-0.881945 z m 185.8872,-0.08819 -0.85525,-0.970139 0.97014,0.855242 c 0.53358,0.470387 0.97014,0.90695 0.97014,0.970139 0,0.276677 -0.28568,0.0515 -1.08503,-0.855242 z m -196.29415,-3.263195 c 1.54312,-1.552222 2.88504,-2.822222 2.98206,-2.822222 0.097,0 -1.08617,1.27 -2.62928,2.822222 -1.54312,1.552222 -2.88505,2.822222 -2.98206,2.822222 -0.097,0 1.08616,-1.27 2.62928,-2.822222 z m 206.71952,-0.08819 -2.81395,-2.910417 2.91042,2.813946 c 1.600727,1.547671 2.910415,2.857359 2.910415,2.910417 0,0.257298 -0.393379,-0.110839 -3.006885,-2.813946 z m 11.78133,1.940277 c -0.43881,-0.559526 -0.426332,-0.572004 0.133195,-0.133194 0.587639,0.460858 0.774516,0.750556 0.484166,0.750556 -0.07325,0 -0.351067,-0.277813 -0.617361,-0.617362 z m -204.9189,-1.279722 c 0,-0.07326 0.27781,-0.351067 0.61736,-0.617361 0.55952,-0.43881 0.572,-0.426332 0.13319,0.133194 -0.46086,0.58764 -0.75055,0.774517 -0.75055,0.484167 z m 179.16612,-0.484167 c -0.43881,-0.559526 -0.42633,-0.572004 0.13319,-0.133194 0.58764,0.460858 0.77452,0.750556 0.48417,0.750556 -0.0733,0 -0.35107,-0.277813 -0.61736,-0.617362 z m 9.01864,-0.881944 -1.03614,-1.146528 1.14653,1.03614 c 0.63059,0.569877 1.14653,1.085815 1.14653,1.146528 0,0.272542 -0.29109,0.0326 -1.25692,-1.03614 z m -218.17088,-0.045 c 0,-0.07326 0.27781,-0.351067 0.61736,-0.617362 0.55953,-0.438809 0.57201,-0.426332 0.1332,0.133195 -0.46086,0.58764 -0.75056,0.774517 -0.75056,0.484167 z m 231.050474,-1.5425 -1.215732,-1.322917 1.322917,1.215732 c 1.231342,1.131574 1.48512,1.430102 1.215732,1.430102 -0.05895,0 -0.654265,-0.595313 -1.322917,-1.322917 z m -17.312124,0 c -0.43881,-0.559527 -0.42633,-0.572005 0.1332,-0.133195 0.58764,0.460858 0.77451,0.750556 0.48416,0.750556 -0.0733,0 -0.35106,-0.277813 -0.61736,-0.617361 z m -210.21057,-2.38125 c 0.4557,-0.48507 0.90792,-0.881945 1.00493,-0.881945 0.097,0 -0.19645,0.396875 -0.65215,0.881945 -0.4557,0.485069 -0.90792,0.881944 -1.00494,0.881944 -0.097,0 0.19646,-0.396875 0.65216,-0.881944 z m 210.56335,0.264583 c -0.43881,-0.559527 -0.42633,-0.572005 0.13319,-0.133195 0.58764,0.460858 0.77452,0.750556 0.48417,0.750556 -0.0733,0 -0.35107,-0.277812 -0.61736,-0.617361 z M -302.58255,58.99378 c 0,-0.07325 0.27782,-0.351067 0.61736,-0.617361 0.55953,-0.43881 0.57201,-0.426332 0.1332,0.133195 -0.46086,0.587639 -0.75056,0.774516 -0.75056,0.484166 z m 194.68835,-0.484166 c -0.43881,-0.559527 -0.42633,-0.572005 0.1332,-0.133195 0.58764,0.460858 0.77451,0.750556 0.48416,0.750556 -0.0732,0 -0.35106,-0.277813 -0.61736,-0.617361 z m -5.29167,-0.705556 c -0.43881,-0.559527 -0.42633,-0.572004 0.1332,-0.133195 0.58764,0.460859 0.77452,0.750556 0.48417,0.750556 -0.0733,0 -0.35107,-0.277812 -0.61737,-0.617361 z m 13.784349,-1.411111 -1.215729,-1.322917 1.322914,1.215732 c 1.231343,1.131574 1.48512,1.430102 1.215732,1.430102 -0.05895,0 -0.654265,-0.595313 -1.322917,-1.322917 z m -17.443509,-0.440972 c 0.35118,-0.388056 0.71789,-0.705556 0.81491,-0.705556 0.097,0 -0.11095,0.3175 -0.46213,0.705556 -0.35119,0.388055 -0.7179,0.705555 -0.81491,0.705555 -0.097,0 0.11094,-0.3175 0.46213,-0.705555 z m 13.18417,-3.439584 c -0.43881,-0.559527 -0.42634,-0.572004 0.13319,-0.133195 0.58764,0.460859 0.77452,0.750556 0.48417,0.750556 -0.0733,0 -0.35107,-0.277812 -0.61736,-0.617361 z m -209.50502,-0.970139 c 0.4557,-0.485069 0.90792,-0.881944 1.00493,-0.881944 0.097,0 -0.19645,0.396875 -0.65215,0.881944 -0.4557,0.48507 -0.90792,0.881945 -1.00494,0.881945 -0.097,0 0.19646,-0.396875 0.65216,-0.881945 z m 3.175,-2.779028 c 0,-0.07326 0.27781,-0.351067 0.61736,-0.617361 0.55953,-0.43881 0.57201,-0.426332 0.1332,0.133194 -0.46086,0.58764 -0.75056,0.774517 -0.75056,0.484167 z m 93.41997,-11.749459 c 0.25466,-0.101907 0.55894,-0.08938 0.67616,0.02783 0.11723,0.117225 -0.0911,0.200604 -0.46302,0.185286 -0.41097,-0.01693 -0.49456,-0.10052 -0.21314,-0.213134 z m 22.93056,0 c 0.25466,-0.101907 0.55893,-0.08938 0.67616,0.02783 0.11722,0.117225 -0.0911,0.200604 -0.46302,0.185286 -0.41097,-0.01693 -0.49456,-0.10052 -0.21314,-0.213134 z m -17.83061,-0.356263 c 0.34324,-0.08944 0.81949,-0.08356 1.05833,0.01309 0.23884,0.09664 -0.042,0.169816 -0.62408,0.162627 -0.58208,-0.0072 -0.7775,-0.08625 -0.43425,-0.175698 z m 12.34722,0 c 0.34324,-0.08944 0.81949,-0.08356 1.05833,0.01309 0.23884,0.09664 -0.042,0.169816 -0.62407,0.162627 -0.58209,-0.0072 -0.7775,-0.08625 -0.43426,-0.175698 z m -21.6805,-4.582626 c 0.25466,-0.101907 0.55893,-0.08938 0.67616,0.02783 0.11722,0.117228 -0.0911,0.200603 -0.46302,0.185286 -0.41097,-0.01693 -0.49456,-0.100521 -0.21314,-0.213134 z m 31.39722,0 c 0.25466,-0.101907 0.55894,-0.08938 0.67616,0.02783 0.11723,0.117228 -0.0911,0.200603 -0.46302,0.185286 -0.41097,-0.01693 -0.49456,-0.100521 -0.21314,-0.213134 z m -27.86944,-0.352778 c 0.25466,-0.101907 0.55893,-0.08938 0.67616,0.02783 0.11722,0.117228 -0.0911,0.200604 -0.46303,0.185286 -0.41096,-0.01693 -0.49455,-0.100521 -0.21313,-0.213134 z m 24.34167,0 c 0.25465,-0.101907 0.55893,-0.08938 0.67615,0.02783 0.11723,0.117228 -0.0911,0.200604 -0.46302,0.185286 -0.41097,-0.01693 -0.49456,-0.100521 -0.21313,-0.213134 z m -19.59451,-0.356263 c 0.34324,-0.08944 0.81949,-0.08356 1.05834,0.01305 0.23884,0.09664 -0.042,0.169817 -0.62408,0.162627 -0.58208,-0.0072 -0.7775,-0.08625 -0.43426,-0.175697 z m 14.46389,0 c 0.34324,-0.08944 0.81949,-0.08356 1.05834,0.01305 0.23884,0.09664 -0.042,0.169817 -0.62408,0.162627 -0.58208,-0.0072 -0.7775,-0.08625 -0.43426,-0.175697 z m -20.97494,-9.168739 c 0.25466,-0.101908 0.55893,-0.08937 0.67616,0.02785 0.11722,0.117226 -0.0911,0.200604 -0.46302,0.185286 -0.41097,-0.01693 -0.49456,-0.10052 -0.21314,-0.213136 z m 27.86944,0 c 0.25466,-0.101908 0.55894,-0.08937 0.67616,0.02785 0.11723,0.117226 -0.0911,0.200604 -0.46302,0.185286 -0.41097,-0.01693 -0.49456,-0.10052 -0.21314,-0.213136 z m -23.65816,-0.345429 c 0.24254,-0.09786 0.63941,-0.09786 0.88195,0 0.24253,0.09787 0.0441,0.177936 -0.44098,0.177936 -0.48506,0 -0.6835,-0.08007 -0.44097,-0.177936 z m 19.05,0 c 0.24254,-0.09786 0.63941,-0.09786 0.88195,0 0.24253,0.09787 0.0441,0.177936 -0.44097,0.177936 -0.48507,0 -0.68351,-0.08007 -0.44098,-0.177936 z m -10.05416,-0.371818 c 0.53357,-0.08083 1.4067,-0.08083 1.94027,0 0.53358,0.08083 0.097,0.146964 -0.97013,0.146964 -1.06716,0 -1.50372,-0.06613 -0.97014,-0.146964 z m -12.14879,-6.691087 c 0.25466,-0.101908 0.55894,-0.08937 0.67616,0.02785 0.11722,0.117225 -0.0911,0.200603 -0.46302,0.185286 -0.41097,-0.01693 -0.49456,-0.100521 -0.21314,-0.213136 z m 25.75278,0 c 0.25466,-0.101908 0.55893,-0.08937 0.67616,0.02785 0.11722,0.117225 -0.0911,0.200603 -0.46302,0.185286 -0.41097,-0.01693 -0.49456,-0.100521 -0.21314,-0.213136 z M -212.88208,14.4325 c 0.34325,-0.08944 0.8195,-0.08356 1.05834,0.01307 0.23884,0.09663 -0.042,0.169816 -0.62408,0.162626 -0.58208,-0.0072 -0.7775,-0.08625 -0.43426,-0.175698 z m 15.16945,0 c 0.34324,-0.08944 0.81949,-0.08356 1.05833,0.01307 0.23884,0.09663 -0.042,0.169816 -0.62407,0.162626 -0.58208,-0.0072 -0.7775,-0.08625 -0.43426,-0.175698 z m -21.86623,-2.048584 c 0.003,-0.970139 0.0712,-1.325144 0.15224,-0.7889 0.0811,0.536244 0.0789,1.329994 -0.005,1.763889 -0.0838,0.433895 -0.1501,-0.0048 -0.14745,-0.974989 z m -2.28371,-2.5340435 c 0.25465,-0.1019073 0.55893,-0.089374 0.67615,0.027852 0.11723,0.1172252 -0.0911,0.2006035 -0.46302,0.1852855 -0.41097,-0.01693 -0.49456,-0.1005204 -0.21313,-0.2131363 z"
         id="path3837"
         inkscape:connector-curvature="0" />
      <path
         style="fill:#000000;stroke-width:0.35277781"
         d="m -215.44643,320.85266 c -29.53551,-2.09282 -57.8756,-12.68727 -81.7208,-30.5499 -15.24689,-11.42158 -28.90952,-26.51579 -38.77095,-42.83343 -1.10034,-1.82072 -2.05412,-3.36834 -2.11953,-3.43915 -0.0654,-0.0708 -1.14915,0.44738 -2.40832,1.15155 l -2.2894,1.2803 -1.96511,-3.66356 c -9.70862,-18.0998 -15.71315,-37.71158 -18.05316,-58.96454 -0.86292,-7.8375 -0.86292,-24.26529 0,-32.10278 1.3461,-12.22587 3.66251,-22.88421 7.43701,-34.21945 17.94649,-53.895257 63.40549,-94.061124 119.19563,-105.316775 5.50766,-1.111171 15.77955,-2.5506306 16.07719,-2.2529916 0.0955,0.095515 0.28057,1.2066196 0.41125,2.4691226 0.13067,1.262502 0.30644,2.36431 0.39059,2.448463 0.0842,0.08415 2.2074,0.0028 4.71833,-0.18087 25.69866,-1.879413 53.28994,3.645702 77.27273,15.47376 15.88882,7.836194 28.77184,17.053265 41.056165,29.373374 4.002392,4.014051 11.297653,12.191796 11.573472,12.973482 0.08548,0.242249 -3.882503,3.654397 -5.076694,4.365547 -0.224946,0.133957 -1.79075,-1.44049 -3.704167,-3.724617 -9.045256,-10.797703 -21.968536,-21.932627 -34.358946,-29.604263 -37.1649,-23.010979 -82.70954,-28.229162 -124.0014,-14.207202 -21.46295,7.288421 -40.45158,19.09164 -56.44715,35.08721 -25.91749,25.917488 -40.93688,60.0141 -42.65549,96.83533 -2.83419,60.7223 32.51987,116.98345 88.5825,140.96696 44.06296,18.85006 94.76119,14.83113 135.38769,-10.7324 4.24185,-2.66911 10.04464,-6.79397 13.33187,-9.47682 1.40599,-1.14749 2.69476,-2.00082 2.86391,-1.89628 0.16915,0.10454 1.23687,1.32599 2.37271,2.71432 l 2.06515,2.52423 -1.22489,1.03275 c -0.6737,0.56802 -2.97115,2.34506 -5.10546,3.94897 -29.45825,22.13773 -66.39977,33.10136 -102.83473,30.51966 z m -3.16547,-23.78623 c -38.75292,-4.39354 -72.74995,-24.97384 -94.26609,-57.06453 -11.05364,-16.48618 -18.03083,-35.0198 -20.94586,-55.6388 -0.88685,-6.27306 -1.08177,-22.7196 -0.35117,-29.63119 0.69029,-6.53028 0.80704,-7.05929 1.55641,-7.0523 1.28847,0.012 1.37917,0.40523 0.89388,3.87515 -0.8504,6.08051 -1.20544,15.77714 -0.83009,22.67078 1.48571,27.28629 10.90721,52.11338 27.90112,73.52367 4.60166,5.79755 14.02638,15.22227 19.82393,19.82394 17.40537,13.81509 37.40262,22.75655 58.80001,26.29151 8.23501,1.36047 12.44836,1.69859 21.16667,1.69859 8.7183,0 12.93165,-0.33812 21.16666,-1.69859 20.83345,-3.4418 41.26104,-12.43528 57.6392,-25.37633 3.27547,-2.58809 3.51708,-2.71581 3.96875,-2.09812 0.26452,0.36176 0.48095,0.78576 0.48095,0.94222 0,0.46018 -5.45875,4.6673 -10.43075,8.03909 -16.73928,11.35185 -35.26555,18.39254 -56.24426,21.37497 -5.68916,0.8088 -24.28697,1.00498 -30.32936,0.31994 z m 130.233543,-47.8866 c -0.274338,-0.33056 0.225337,-1.36545 1.916208,-3.96875 12.175085,-18.74498 19.40383,-38.86906 22.237306,-61.90632 0.473869,-3.85275 0.629155,-7.68387 0.629155,-15.52222 0,-13.70007 -1.046304,-22.34506 -4.239409,-35.02777 -6.967972,-27.67613 -23.213354,-53.865906 -44.776603,-72.186006 -2.1343,-1.813303 -4.0325,-3.436271 -4.21821,-3.606592 -0.21075,-0.193291 -0.11867,-0.528677 0.24502,-0.892359 0.54171,-0.541719 0.75144,-0.444507 2.98349,1.382921 12.10034,9.906812 22.92665,22.503142 31.403604,36.53786 10.667317,17.661156 17.219304,37.070256 19.729826,58.446106 0.865392,7.36838 0.865392,23.3233 0,30.69167 -2.517176,21.43252 -9.057013,40.77461 -19.802124,58.56639 -3.565684,5.90406 -4.958031,7.93223 -5.445528,7.93223 -0.160394,0 -0.458625,-0.20122 -0.662735,-0.44716 z m 17.086144,-72.12919 -1.013852,-0.15118 0.126083,-5.5286 c 0.06934,-3.04073 0.08902,-7.15579 0.04371,-9.14457 -0.0805,-3.53384 -0.101145,-3.61597 -0.908954,-3.61597 -0.795348,0 -0.843026,-0.15665 -1.261618,-4.14514 -5.637417,-53.71529 -43.110616,-98.321107 -94.893856,-112.955872 -6.18952,-1.749253 -12.38481,-3.009135 -19.611,-3.988118 -7.48078,-1.013474 -23.90277,-1.093389 -31.04445,-0.151074 -22.09656,2.91555 -40.29846,9.611555 -57.67917,21.218668 -5.80617,3.877448 -11.40621,8.200218 -15.38905,11.879073 -4.01513,3.70869 -3.91689,3.642544 -4.58544,3.087702 -0.51958,-0.431215 -0.94024,-0.111457 -3.7647,2.86173 -16.3336,17.193656 -28.24823,39.608591 -33.24166,62.537371 -0.48382,2.22161 -0.70856,2.71486 -1.17731,2.58398 -0.31864,-0.089 -1.09528,-0.2656 -1.72587,-0.39252 -0.6306,-0.12691 -1.14653,-0.44237 -1.14653,-0.70102 0,-0.25864 0.64533,-3.04063 1.43408,-6.1822 12.15445,-48.411024 50.36017,-86.600145 98.80639,-98.763462 11.84916,-2.974951 20.68307,-4.042029 33.46232,-4.042029 12.77924,0 21.61315,1.067078 33.46231,4.042029 55.07486,13.82756 95.743584,60.504191 102.193244,117.290042 0.677767,5.96739 1.040374,16.71959 0.710851,21.07848 -0.286297,3.78708 -0.107491,3.58351 -2.795531,3.18268 z"
         id="path3835"
         inkscape:connector-curvature="0" />
    </g>
  </g>
</svg>
