<?xml version="1.0" encoding="UTF-8" standalone="no"?>
<!-- Created with Inkscape (http://www.inkscape.org/) -->

<svg
   xmlns:dc="http://purl.org/dc/elements/1.1/"
   xmlns:cc="http://creativecommons.org/ns#"
   xmlns:rdf="http://www.w3.org/1999/02/22-rdf-syntax-ns#"
   xmlns:svg="http://www.w3.org/2000/svg"
   xmlns="http://www.w3.org/2000/svg"
   xmlns:sodipodi="http://sodipodi.sourceforge.net/DTD/sodipodi-0.dtd"
   xmlns:inkscape="http://www.inkscape.org/namespaces/inkscape"
   width="210mm"
   height="297mm"
   viewBox="0 0 210 297"
   version="1.1"
   id="svg3786"
   inkscape:version="0.92.3 (2405546, 2018-03-11)"
   sodipodi:docname="semiring.svg">
  <defs
     id="defs3780" />
  <sodipodi:namedview
     id="base"
     pagecolor="#ffffff"
     bordercolor="#666666"
     borderopacity="1.0"
     inkscape:pageopacity="0.0"
     inkscape:pageshadow="2"
     inkscape:zoom="0.35"
     inkscape:cx="23.417026"
     inkscape:cy="592.04468"
     inkscape:document-units="mm"
     inkscape:current-layer="layer1"
     showgrid="false"
     inkscape:window-width="1440"
     inkscape:window-height="837"
     inkscape:window-x="-8"
     inkscape:window-y="-8"
     inkscape:window-maximized="1" />
  <metadata
     id="metadata3783">
    <rdf:RDF>
      <cc:Work
         rdf:about="">
        <dc:format>image/svg+xml</dc:format>
        <dc:type
           rdf:resource="http://purl.org/dc/dcmitype/StillImage" />
        <dc:title></dc:title>
      </cc:Work>
    </rdf:RDF>
  </metadata>
  <g
     inkscape:label="Capa 1"
     inkscape:groupmode="layer"
     id="layer1">
    <g
       id="g3850"
       transform="matrix(0.59114925,0,0,0.59114925,228.25141,64.99231)">
      <path
         style="fill:#a3a3a3;stroke-width:0.35277781"
         d="m -205.9803,252.62808 c 0.43883,-0.0844 1.07383,-0.0812 1.41111,0.007 0.33729,0.0883 -0.0218,0.15734 -0.79786,0.15342 -0.77611,-0.004 -1.05207,-0.0762 -0.61325,-0.16054 z m 6.70278,0 c 0.43883,-0.0844 1.07383,-0.0812 1.41111,0.007 0.33729,0.0883 -0.0218,0.15734 -0.79786,0.15342 -0.77611,-0.004 -1.05207,-0.0762 -0.61325,-0.16054 z m 12.45916,-1.36739 c 0.0169,-0.41097 0.10052,-0.49456 0.21313,-0.21314 0.10191,0.25466 0.0894,0.55894 -0.0278,0.67616 -0.11723,0.11723 -0.20061,-0.0911 -0.18529,-0.46302 z m -0.32493,-2.26366 c 0,-0.48507 0.0801,-0.6835 0.17794,-0.44097 0.0979,0.24254 0.0979,0.63941 0,0.88195 -0.0979,0.24253 -0.17794,0.0441 -0.17794,-0.44098 z m -0.35278,-2.82222 c 0,-0.48507 0.0801,-0.68351 0.17794,-0.44097 0.0979,0.24253 0.0979,0.63941 0,0.88194 -0.0979,0.24254 -0.17794,0.0441 -0.17794,-0.44097 z m -0.35278,-2.46944 c 0,-0.48507 0.0801,-0.68351 0.17794,-0.44098 0.0979,0.24254 0.0979,0.63941 0,0.88195 -0.0979,0.24253 -0.17794,0.0441 -0.17794,-0.44097 z m -14.78417,-1.30152 c 0.33955,-0.0887 0.89517,-0.0887 1.23472,0 0.33955,0.0887 0.0617,0.16134 -0.61736,0.16134 -0.6791,0 -0.95691,-0.0726 -0.61736,-0.16134 z m -7.91545,-0.35058 c 0.25466,-0.10191 0.55893,-0.0894 0.67616,0.0278 0.11722,0.11723 -0.0911,0.20061 -0.46303,0.18529 -0.41096,-0.0169 -0.49455,-0.10052 -0.21313,-0.21314 z m 16.58055,0 c 0.25466,-0.10191 0.55894,-0.0894 0.67616,0.0278 0.11723,0.11723 -0.0911,0.20061 -0.46302,0.18529 -0.41097,-0.0169 -0.49456,-0.10052 -0.21314,-0.21314 z m -58.49497,-0.46457 c -0.29104,-0.18809 -0.37041,-0.34197 -0.17638,-0.34197 0.19402,0 0.5909,0.15388 0.88194,0.34197 0.29104,0.18809 0.37042,0.34197 0.17639,0.34197 -0.19403,0 -0.5909,-0.15388 -0.88195,-0.34197 z m -8.31104,-4.42919 c -0.65759,-0.52683 -0.65326,-0.53334 0.10896,-0.16397 0.43656,0.21156 0.79375,0.45844 0.79375,0.54863 0,0.26995 -0.18295,0.19199 -0.90271,-0.38466 z m -3.52778,-2.11666 c -0.65759,-0.52684 -0.65326,-0.53335 0.10896,-0.16398 0.43656,0.21156 0.79375,0.45844 0.79375,0.54863 0,0.26995 -0.18295,0.19199 -0.90271,-0.38465 z m -5.84507,-3.94929 c -0.43881,-0.55953 -0.42633,-0.572 0.1332,-0.1332 0.33955,0.2663 0.61736,0.54411 0.61736,0.61737 0,0.29035 -0.2897,0.10347 -0.75056,-0.48417 z m -2.46944,-1.76389 c -0.43881,-0.55953 -0.42633,-0.572 0.13319,-0.13319 0.33955,0.26629 0.61736,0.5441 0.61736,0.61736 0,0.29035 -0.28969,0.10347 -0.75055,-0.48417 z m -1.57602,-1.23472 -0.67204,-0.79375 0.79375,0.67204 c 0.43657,0.36962 0.79375,0.7268 0.79375,0.79375 0,0.28231 -0.28391,0.0739 -0.91546,-0.67204 z m -1.76389,-1.41111 -0.67204,-0.79375 0.79375,0.67204 c 0.74593,0.63155 0.95435,0.91546 0.67204,0.91546 -0.0669,0 -0.42413,-0.35719 -0.79375,-0.79375 z m -1.93346,-1.5875 -0.85524,-0.97014 0.97014,0.85524 c 0.90674,0.79936 1.13192,1.08504 0.85524,1.08504 -0.0632,0 -0.49975,-0.43657 -0.97014,-0.97014 z m 150.10014,-0.88195 -0.67204,-0.79375 0.79375,0.67204 c 0.74593,0.63155 0.95435,0.91546 0.67204,0.91546 -0.0669,0 -0.42413,-0.35719 -0.79375,-0.79375 z m -152.91465,-1.5875 -1.21573,-1.32291 1.32291,1.21573 c 0.72761,0.66865 1.32292,1.26396 1.32292,1.32291 0,0.26939 -0.29853,0.0156 -1.4301,-1.21573 z m 157.00511,0.0882 c 0.65821,-0.6791 1.27612,-1.23473 1.37313,-1.23473 0.097,0 -0.36214,0.55563 -1.02035,1.23473 -0.6582,0.67909 -1.27611,1.23472 -1.37313,1.23472 -0.097,0 0.36215,-0.55563 1.02035,-1.23472 z m -5.84302,-0.61736 -1.03614,-1.14653 1.14652,1.03614 c 1.06873,0.96583 1.30869,1.25691 1.03614,1.25691 -0.0607,0 -0.57665,-0.51593 -1.14652,-1.14652 z m -137.42977,-1.5875 c -0.43881,-0.55953 -0.42633,-0.57201 0.1332,-0.1332 0.58764,0.46086 0.77452,0.75056 0.48416,0.75056 -0.0732,0 -0.35106,-0.27782 -0.61736,-0.61736 z m 135.48498,-0.70556 -0.85524,-0.97014 0.97014,0.85524 c 0.53357,0.47039 0.97013,0.90695 0.97013,0.97014 0,0.27668 -0.28567,0.0515 -1.08503,-0.85524 z m -153.79647,-1.41111 -1.92823,-2.02847 2.02847,1.92822 c 1.11566,1.06053 2.02848,1.97334 2.02848,2.02848 0,0.26184 -0.33734,-0.0437 -2.12872,-1.92823 z m 166.17039,0.0882 c 1.0539,-1.06715 1.99556,-1.94027 2.09257,-1.94027 0.097,0 -0.68589,0.87312 -1.73979,1.94027 -1.05389,1.06716 -1.99555,1.94028 -2.09256,1.94028 -0.097,0 0.68589,-0.87312 1.73978,-1.94028 z m -149.62279,0.61736 c -0.43881,-0.55952 -0.42633,-0.572 0.1332,-0.13319 0.33955,0.26629 0.61736,0.54411 0.61736,0.61736 0,0.29035 -0.2897,0.10347 -0.75056,-0.48417 z m 135.81946,-1.05833 c -0.43881,-0.55953 -0.42633,-0.572 0.13319,-0.13319 0.33955,0.26629 0.61737,0.5441 0.61737,0.61736 0,0.29035 -0.2897,0.10347 -0.75056,-0.48417 z m -137.74825,-0.52917 -0.67204,-0.79375 0.79375,0.67204 c 0.74593,0.63155 0.95435,0.91546 0.67204,0.91546 -0.0669,0 -0.42413,-0.35718 -0.79375,-0.79375 z m -2.63131,-2.29305 -1.21573,-1.32292 1.32292,1.21573 c 0.7276,0.66866 1.32291,1.26397 1.32291,1.32292 0,0.26939 -0.29852,0.0156 -1.4301,-1.21573 z m 142.18845,0.0882 c 0.6582,-0.67909 1.27611,-1.23472 1.37313,-1.23472 0.097,0 -0.36215,0.55563 -1.02035,1.23472 -0.65821,0.6791 -1.27612,1.23473 -1.37313,1.23473 -0.097,0 0.36214,-0.55563 1.02035,-1.23473 z m -158.41623,-1.4993 -1.21573,-1.32292 1.32292,1.21573 c 0.7276,0.66865 1.32292,1.26397 1.32292,1.32292 0,0.26939 -0.29853,0.0156 -1.43011,-1.21573 z m 174.64401,0.0882 c 0.6582,-0.6791 1.27611,-1.23472 1.37313,-1.23472 0.097,0 -0.36215,0.55562 -1.02035,1.23472 -0.65821,0.6791 -1.27612,1.23472 -1.37313,1.23472 -0.097,0 0.36214,-0.55562 1.02035,-1.23472 z m -162.99354,-2.91042 -2.28286,-2.38125 2.38125,2.28287 c 1.30968,1.25557 2.38125,2.32714 2.38125,2.38125 0,0.25965 -0.35922,-0.0711 -2.47964,-2.28287 z m 151.35187,0.0882 c 1.24997,-1.26118 2.35205,-2.29306 2.44906,-2.29306 0.097,0 -0.84631,1.03188 -2.09628,2.29306 -1.24997,1.26118 -2.35205,2.29305 -2.44906,2.29305 -0.097,0 0.84631,-1.03187 2.09628,-2.29305 z m -165.47949,-0.0882 -0.85524,-0.97013 0.97013,0.85524 c 0.90675,0.79935 1.13192,1.08503 0.85525,1.08503 -0.0632,0 -0.49975,-0.43656 -0.97014,-0.97014 z m 179.5906,0.0882 c 0.4557,-0.48507 0.90792,-0.88195 1.00494,-0.88195 0.097,0 -0.19646,0.39688 -0.65216,0.88195 -0.4557,0.48507 -0.90792,0.88194 -1.00493,0.88194 -0.097,0 0.19645,-0.39687 0.65215,-0.88194 z m -181.18492,-2.02847 -0.67204,-0.79375 0.79375,0.67203 c 0.74593,0.63155 0.95435,0.91547 0.67204,0.91547 -0.0669,0 -0.42413,-0.35719 -0.79375,-0.79375 z m 182.77242,0.0882 c 0.35119,-0.38805 0.7179,-0.70555 0.81491,-0.70555 0.097,0 -0.11094,0.3175 -0.46213,0.70555 -0.35119,0.38806 -0.7179,0.70556 -0.81491,0.70556 -0.097,0 0.11095,-0.3175 0.46213,-0.70556 z m -184.18353,-1.85208 -0.67204,-0.79375 0.79375,0.67204 c 0.74593,0.63155 0.95435,0.91546 0.67204,0.91546 -0.0669,0 -0.42413,-0.35719 -0.79375,-0.79375 z m 185.59464,0.0882 c 0.35119,-0.38805 0.7179,-0.70555 0.81491,-0.70555 0.097,0 -0.11094,0.3175 -0.46213,0.70555 -0.35118,0.38806 -0.71789,0.70556 -0.81491,0.70556 -0.097,0 0.11095,-0.3175 0.46213,-0.70556 z m -172.70372,-0.97014 -1.21573,-1.32291 1.32291,1.21573 c 0.72761,0.66865 1.32292,1.26396 1.32292,1.32292 0,0.26938 -0.29853,0.0156 -1.4301,-1.21574 z m 159.82733,0.0882 c 0.65821,-0.6791 1.27612,-1.23472 1.37313,-1.23472 0.097,0 -0.36214,0.55562 -1.02035,1.23472 -0.6582,0.67909 -1.27611,1.23472 -1.37313,1.23472 -0.097,0 0.36215,-0.55563 1.02035,-1.23472 z m -173.96445,-0.79375 c -0.43881,-0.55953 -0.42634,-0.57201 0.13319,-0.1332 0.33955,0.2663 0.61736,0.54411 0.61736,0.61736 0,0.29035 -0.2897,0.10348 -0.75055,-0.48416 z m 187.72279,0.48416 c 0,-0.0733 0.27781,-0.35106 0.61736,-0.61736 0.55953,-0.43881 0.572,-0.42633 0.13319,0.1332 -0.46085,0.58764 -0.75055,0.77451 -0.75055,0.48416 z m -175.89325,-2.42444 -0.67204,-0.79375 0.79375,0.67204 c 0.74592,0.63155 0.95435,0.91546 0.67204,0.91546 -0.067,0 -0.42414,-0.35719 -0.79375,-0.79375 z m 164.42797,0.0882 c 0.35119,-0.38805 0.7179,-0.70555 0.81491,-0.70555 0.097,0 -0.11095,0.3175 -0.46213,0.70555 -0.35119,0.38806 -0.7179,0.70556 -0.81491,0.70556 -0.097,0 0.11094,-0.3175 0.46213,-0.70556 z m -178.0214,-0.61736 c -0.43881,-0.55952 -0.42634,-0.572 0.13319,-0.13319 0.33955,0.26629 0.61736,0.54411 0.61736,0.61736 0,0.29035 -0.28969,0.10347 -0.75055,-0.48417 z m 191.25057,0.48417 c 0,-0.0733 0.27781,-0.35107 0.61736,-0.61736 0.55953,-0.43881 0.572,-0.42633 0.13319,0.13319 -0.46085,0.58764 -0.75055,0.77452 -0.75055,0.48417 z M -286.02178,201.813 c -0.43881,-0.55953 -0.42633,-0.572 0.1332,-0.13319 0.33955,0.26629 0.61736,0.5441 0.61736,0.61736 0,0.29035 -0.2897,0.10347 -0.75056,-0.48417 z m 167.26168,0.48417 c 0,-0.0733 0.27781,-0.35107 0.61736,-0.61736 0.55953,-0.43881 0.57201,-0.42634 0.1332,0.13319 -0.46086,0.58764 -0.75056,0.77452 -0.75056,0.48417 z m 1.5875,-1.98347 c 0.35119,-0.38806 0.7179,-0.70556 0.81491,-0.70556 0.097,0 -0.11094,0.3175 -0.46213,0.70556 -0.35119,0.38805 -0.7179,0.70555 -0.81491,0.70555 -0.097,0 0.11095,-0.3175 0.46213,-0.70555 z m -170.26029,-0.26459 c -0.43881,-0.55952 -0.42633,-0.572 0.1332,-0.13319 0.33954,0.26629 0.61736,0.5441 0.61736,0.61736 0,0.29035 -0.2897,0.10347 -0.75056,-0.48417 z m -14.41889,-2.55764 c -0.20768,-0.38805 -0.29823,-0.70555 -0.20121,-0.70555 0.097,0 0.34631,0.3175 0.55399,0.70555 0.20768,0.38806 0.29823,0.70556 0.20121,0.70556 -0.097,0 -0.34631,-0.3175 -0.55399,-0.70556 z m 199.31946,0 c 0.20768,-0.38805 0.45698,-0.70555 0.55399,-0.70555 0.097,0 0.006,0.3175 -0.20121,0.70555 -0.20768,0.38806 -0.45698,0.70556 -0.55399,0.70556 -0.097,0 -0.006,-0.3175 0.20121,-0.70556 z m -201.43613,-3.52777 c -0.20768,-0.38806 -0.29822,-0.70556 -0.20121,-0.70556 0.097,0 0.34631,0.3175 0.55399,0.70556 0.20768,0.38805 0.29823,0.70555 0.20122,0.70555 -0.097,0 -0.34632,-0.3175 -0.554,-0.70555 z m -1.76388,-3.175 c -0.20768,-0.38806 -0.29823,-0.70556 -0.20122,-0.70556 0.097,0 0.34631,0.3175 0.55399,0.70556 0.20768,0.38805 0.29823,0.70555 0.20122,0.70555 -0.097,0 -0.34631,-0.3175 -0.55399,-0.70555 z m 207.080567,0 c 0.207681,-0.38806 0.456978,-0.70556 0.553992,-0.70556 0.09701,0 0.0065,0.3175 -0.201214,0.70556 -0.20768,0.38805 -0.456978,0.70555 -0.553992,0.70555 -0.09701,0 -0.0065,-0.3175 0.201214,-0.70555 z m -209.682827,-5.12892 c -0.34042,-0.88713 -0.23999,-1.11603 0.17587,-0.40088 0.20592,0.3541 0.30008,0.71814 0.20925,0.80897 -0.0908,0.0908 -0.26413,-0.0928 -0.38512,-0.40809 z m 11.06892,-1.22109 c -0.20768,-0.38805 -0.29822,-0.70555 -0.20121,-0.70555 0.097,0 0.34631,0.3175 0.55399,0.70555 0.20768,0.38806 0.29823,0.70556 0.20121,0.70556 -0.097,0 -0.34631,-0.3175 -0.55399,-0.70556 z m 190.14724,0 c 0.20768,-0.38805 0.45698,-0.70555 0.55399,-0.70555 0.097,0 0.006,0.3175 -0.20121,0.70555 -0.20768,0.38806 -0.45698,0.70556 -0.55399,0.70556 -0.097,0 -0.006,-0.3175 0.20121,-0.70556 z m 1.06914,-1.94027 c 0,-0.19403 0.15388,-0.59091 0.34197,-0.88195 0.18809,-0.29104 0.34197,-0.37041 0.34197,-0.17639 0,0.19403 -0.15388,0.59091 -0.34197,0.88195 -0.18809,0.29104 -0.34197,0.37041 -0.34197,0.17639 z m -202.83019,-38.83496 c 0.0169,-0.41097 0.10052,-0.49456 0.21313,-0.21314 0.10191,0.25466 0.0894,0.55894 -0.0278,0.67616 -0.11723,0.11723 -0.20061,-0.0911 -0.18529,-0.46302 z m 213.430569,0 c 0.01693,-0.41097 0.100521,-0.49456 0.213135,-0.21314 0.101906,0.25466 0.08938,0.55894 -0.02783,0.67616 -0.117224,0.11723 -0.200603,-0.0911 -0.185286,-0.46302 z m -223.952799,-4.90949 c 0.004,-0.77611 0.0762,-1.05207 0.16055,-0.61325 0.0844,0.43883 0.0812,1.07383 -0.007,1.41111 -0.0883,0.33729 -0.15734,-0.0218 -0.15342,-0.79786 z m 234.597245,0 c 0.0039,-0.77611 0.07616,-1.05207 0.160542,-0.61325 0.08438,0.43883 0.08118,1.07383 -0.0071,1.41111 -0.0883,0.33729 -0.157339,-0.0218 -0.153423,-0.79786 z m -224.373805,-3.35139 c 0,-0.6791 0.0726,-0.95691 0.16134,-0.61736 0.0887,0.33955 0.0887,0.89517 0,1.23472 -0.0887,0.33955 -0.16134,0.0617 -0.16134,-0.61736 z m 214.13613,0 c 0,-0.6791 0.0726,-0.95691 0.161336,-0.61736 0.08873,0.33955 0.08873,0.89517 0,1.23472 -0.08873,0.33955 -0.161336,0.0617 -0.161336,-0.61736 z m -224.35957,-3.35139 c 0.004,-0.77611 0.0762,-1.05207 0.16055,-0.61325 0.0844,0.43883 0.0812,1.07383 -0.007,1.41111 -0.0883,0.33729 -0.15734,-0.0218 -0.15342,-0.79786 z m 234.597245,0 c 0.0039,-0.77611 0.07616,-1.05207 0.160542,-0.61325 0.08438,0.43883 0.08118,1.07383 -0.0071,1.41111 -0.0883,0.33729 -0.157339,-0.0218 -0.153423,-0.79786 z M -308.87948,127.0829 c 0.0169,-0.41096 0.10052,-0.49455 0.21313,-0.21313 0.10191,0.25466 0.0894,0.55893 -0.0278,0.67616 -0.11723,0.11722 -0.20061,-0.0911 -0.18529,-0.46303 z m 213.430569,0 c 0.01693,-0.41096 0.100521,-0.49455 0.213135,-0.21313 0.101906,0.25466 0.08938,0.55893 -0.02783,0.67616 -0.117224,0.11722 -0.200603,-0.0911 -0.185286,-0.46303 z M -105.84013,88.99866 c -0.34042,-0.887127 -0.23999,-1.11603 0.17587,-0.400875 0.20592,0.3541 0.30008,0.718135 0.20925,0.808965 -0.0908,0.09083 -0.26413,-0.09281 -0.38512,-0.40809 z m -191.42554,-2.632195 c 0.20768,-0.388056 0.45698,-0.705556 0.55399,-0.705556 0.097,0 0.006,0.3175 -0.20121,0.705556 -0.20768,0.388056 -0.45698,0.705556 -0.55399,0.705556 -0.097,0 -0.006,-0.3175 0.20121,-0.705556 z m 190.14724,0 c -0.20768,-0.388056 -0.29823,-0.705556 -0.20121,-0.705556 0.097,0 0.34631,0.3175 0.55399,0.705556 0.20768,0.388056 0.29823,0.705556 0.20121,0.705556 -0.097,0 -0.34631,-0.3175 -0.55399,-0.705556 z m -201.42532,-0.529167 c 0,-0.194028 0.15388,-0.590903 0.34197,-0.881944 0.18809,-0.291042 0.34197,-0.370417 0.34197,-0.176389 0,0.194028 -0.15388,0.590903 -0.34197,0.881944 -0.18809,0.291042 -0.34197,0.370417 -0.34197,0.176389 z m 2.81142,-5.820834 c 0.20768,-0.388055 0.45697,-0.705555 0.55399,-0.705555 0.097,0 0.006,0.3175 -0.20122,0.705555 -0.20768,0.388056 -0.45697,0.705556 -0.55399,0.705556 -0.097,0 -0.006,-0.3175 0.20122,-0.705556 z m 205.31668,-3.175 c -0.20768,-0.388055 -0.29823,-0.705555 -0.20122,-0.705555 0.097,0 0.34632,0.3175 0.554,0.705555 0.207676,0.388056 0.298224,0.705556 0.20121,0.705556 -0.09701,0 -0.34631,-0.3175 -0.55399,-0.705556 z m -201.43613,-3.527778 c 0.20768,-0.388055 0.45698,-0.705555 0.55399,-0.705555 0.097,0 0.006,0.3175 -0.20121,0.705555 -0.20768,0.388056 -0.45698,0.705556 -0.55399,0.705556 -0.097,0 -0.006,-0.3175 0.20121,-0.705556 z m 199.31946,0 c -0.20768,-0.388055 -0.29823,-0.705555 -0.20121,-0.705555 0.097,0 0.34631,0.3175 0.55399,0.705555 0.20768,0.388056 0.29823,0.705556 0.20121,0.705556 -0.097,0 -0.34631,-0.3175 -0.55399,-0.705556 z m -186.97224,0.219583 c 0,-0.07325 0.27782,-0.351067 0.61737,-0.617361 0.55952,-0.43881 0.572,-0.426332 0.13319,0.133195 -0.46086,0.587639 -0.75056,0.774516 -0.75056,0.484166 z m 174.22724,-0.484166 c -0.43881,-0.559527 -0.42633,-0.572005 0.13319,-0.133195 0.58764,0.460858 0.77452,0.750556 0.48417,0.750556 -0.0733,0 -0.35107,-0.277813 -0.61736,-0.617361 z m -172.46335,-1.985278 c 0,-0.07325 0.27782,-0.351067 0.61736,-0.617362 0.55953,-0.438809 0.57201,-0.426332 0.1332,0.133195 -0.46086,0.58764 -0.75056,0.774517 -0.75056,0.484167 z m 170.69946,-0.484167 c -0.43881,-0.559527 -0.42633,-0.572004 0.1332,-0.133195 0.58764,0.460859 0.77451,0.750556 0.48416,0.750556 -0.0733,0 -0.35106,-0.277812 -0.61736,-0.617361 z m -169.28835,-1.279722 c 0,-0.07326 0.27782,-0.351067 0.61737,-0.617362 0.55952,-0.438809 0.572,-0.426332 0.13319,0.133195 -0.46086,0.58764 -0.75056,0.774517 -0.75056,0.484167 z m 167.87724,-0.484167 c -0.43881,-0.559527 -0.42633,-0.572004 0.13319,-0.133195 0.33955,0.266295 0.61737,0.544107 0.61737,0.617362 0,0.29035 -0.2897,0.103473 -0.75056,-0.484167 z M -298.324,67.888824 c 0,-0.07325 0.27781,-0.351067 0.61736,-0.617361 0.55953,-0.43881 0.57201,-0.426332 0.1332,0.133195 -0.46086,0.58764 -0.75056,0.774517 -0.75056,0.484166 z m 191.86613,-0.484166 c -0.43881,-0.559527 -0.42634,-0.572005 0.13319,-0.133195 0.58764,0.460858 0.77452,0.750556 0.48417,0.750556 -0.0733,0 -0.35107,-0.277812 -0.61736,-0.617361 z m -177.93141,-0.440972 c 0.35119,-0.388056 0.7179,-0.705556 0.81491,-0.705556 0.097,0 -0.11094,0.3175 -0.46213,0.705556 -0.35119,0.388055 -0.7179,0.705555 -0.81491,0.705555 -0.097,0 0.11095,-0.3175 0.46213,-0.705555 z m 164.36094,-0.08819 -0.67204,-0.79375 0.79375,0.672038 c 0.43657,0.36962 0.79375,0.726807 0.79375,0.79375 0,0.282311 -0.28391,0.07389 -0.91546,-0.672038 z M -296.56011,65.41938 c 0,-0.07326 0.27781,-0.351067 0.61736,-0.617362 0.55953,-0.438809 0.572,-0.426331 0.13319,0.133195 -0.46085,0.58764 -0.75055,0.774517 -0.75055,0.484167 z m 14.46389,-1.101528 c 0.6582,-0.679097 1.27611,-1.234722 1.37313,-1.234722 0.097,0 -0.36215,0.555625 -1.02035,1.234722 -0.65821,0.679097 -1.27612,1.234722 -1.37313,1.234722 -0.097,0 0.36214,-0.555625 1.02035,-1.234722 z m 159.78935,-0.08819 -1.21573,-1.322917 1.32292,1.215732 c 1.23134,1.131574 1.48512,1.430101 1.21573,1.430101 -0.059,0 -0.65426,-0.595312 -1.32292,-1.322916 z m 14.08511,0.705555 c -0.43881,-0.559526 -0.42634,-0.572004 0.13319,-0.133195 0.58764,0.460859 0.77452,0.750556 0.48417,0.750556 -0.0733,0 -0.35107,-0.277812 -0.61736,-0.617361 z m -186.75085,-1.499305 c 0.35119,-0.388056 0.71789,-0.705556 0.81491,-0.705556 0.097,0 -0.11095,0.3175 -0.46213,0.705556 -0.35119,0.388055 -0.7179,0.705555 -0.81491,0.705555 -0.097,0 0.11094,-0.3175 0.46213,-0.705555 z m 185.52761,-0.08819 -0.67204,-0.79375 0.79375,0.672038 c 0.43656,0.36962 0.79375,0.726807 0.79375,0.79375 0,0.282311 -0.28391,0.07389 -0.91546,-0.672038 z m -184.1165,-1.675694 c 0.35119,-0.388056 0.7179,-0.705556 0.81491,-0.705556 0.097,0 -0.11095,0.3175 -0.46213,0.705556 -0.35119,0.388055 -0.7179,0.705555 -0.81491,0.705555 -0.097,0 0.11094,-0.3175 0.46213,-0.705555 z m 182.70539,-0.08819 -0.67204,-0.79375 0.79375,0.672038 c 0.43656,0.36962 0.79375,0.726807 0.79375,0.79375 0,0.282311 -0.28391,0.07389 -0.91546,-0.672038 z m -167.00678,-1.852083 c 1.24997,-1.261181 2.35205,-2.293056 2.44906,-2.293056 0.097,0 -0.84631,1.031875 -2.09628,2.293056 -1.24997,1.26118 -2.35205,2.293055 -2.44906,2.293055 -0.097,0 0.84631,-1.031875 2.09628,-2.293055 z m 151.33149,-0.08819 -2.28287,-2.38125 2.38126,2.282864 c 1.30968,1.255575 2.38125,2.327138 2.38125,2.38125 0,0.259652 -0.35922,-0.07106 -2.47964,-2.282864 z m -165.4426,0.08819 c 0.4557,-0.48507 0.90792,-0.881945 1.00493,-0.881945 0.097,0 -0.19645,0.396875 -0.65215,0.881945 -0.4557,0.485069 -0.90792,0.881944 -1.00494,0.881944 -0.097,0 0.19646,-0.396875 0.65216,-0.881944 z m 179.5372,-0.08819 -0.85524,-0.970139 0.97014,0.855243 c 0.53357,0.470387 0.97014,0.906949 0.97014,0.970139 0,0.276677 -0.28568,0.0515 -1.08504,-0.855243 z m -177.06776,-2.734028 c 0.65821,-0.679097 1.27612,-1.234722 1.37313,-1.234722 0.097,0 -0.36214,0.555625 -1.02035,1.234722 -0.6582,0.679097 -1.27611,1.234723 -1.37313,1.234723 -0.097,0 0.36215,-0.555626 1.02035,-1.234723 z m 174.60603,-0.08819 -1.21573,-1.322917 1.32291,1.215732 c 1.23135,1.131574 1.48512,1.430102 1.21573,1.430102 -0.0589,0 -0.65426,-0.595313 -1.32291,-1.322917 z M -273.27678,55.49843 c 0.65821,-0.679097 1.27612,-1.234722 1.37313,-1.234722 0.097,0 -0.36214,0.555625 -1.02035,1.234722 -0.6582,0.679097 -1.27611,1.234722 -1.37313,1.234722 -0.097,0 0.36215,-0.555625 1.02035,-1.234722 z m 142.15047,-0.08819 -1.21573,-1.322917 1.32291,1.215732 c 1.23135,1.131574 1.48512,1.430101 1.21574,1.430101 -0.059,0 -0.65427,-0.595312 -1.32292,-1.322916 z m -154.14491,-3.086806 c 1.05389,-1.067153 1.99555,-1.940278 2.09256,-1.940278 0.097,0 -0.68589,0.873125 -1.73978,1.940278 -1.0539,1.067153 -1.99556,1.940278 -2.09257,1.940278 -0.097,0 0.68589,-0.873125 1.73979,-1.940278 z m 166.14629,-0.0882 -1.92822,-2.028472 2.02847,1.928227 c 1.88451,1.791384 2.19008,2.128718 1.92823,2.128718 -0.0551,0 -0.96795,-0.912813 -2.02848,-2.028473 z m -151.50601,0.970139 c 0.35118,-0.388055 0.71789,-0.705555 0.81491,-0.705555 0.097,0 -0.11095,0.3175 -0.46214,0.705555 -0.35118,0.388056 -0.71789,0.705556 -0.8149,0.705556 -0.097,0 0.11094,-0.3175 0.46213,-0.705556 z m 136.84427,-0.08819 -0.67204,-0.79375 0.79375,0.672038 c 0.43656,0.369619 0.79375,0.726807 0.79375,0.79375 0,0.28231 -0.28391,0.07389 -0.91546,-0.672038 z m -135.25677,-1.103334 c 0,-0.07325 0.27781,-0.351067 0.61736,-0.617361 0.55953,-0.43881 0.572,-0.426332 0.13319,0.133195 -0.46086,0.587639 -0.75055,0.774516 -0.75055,0.484166 z m 133.30501,-0.484166 c -0.43881,-0.559527 -0.42633,-0.572005 0.13319,-0.133195 0.58764,0.460858 0.77452,0.750556 0.48417,0.750556 -0.0733,0 -0.35107,-0.277813 -0.61736,-0.617361 z m -131.54112,-0.926945 c 0,-0.07325 0.27781,-0.351067 0.61736,-0.617361 0.55952,-0.43881 0.572,-0.426332 0.13319,0.133194 -0.46086,0.58764 -0.75055,0.774517 -0.75055,0.484167 z m 129.77723,-0.484167 c -0.43881,-0.559526 -0.42633,-0.572004 0.13319,-0.133194 0.58764,0.460858 0.77452,0.750556 0.48417,0.750556 -0.0733,0 -0.35107,-0.277813 -0.61736,-0.617362 z m -143.18279,-2.028472 c 0.65821,-0.679097 1.27611,-1.234722 1.37313,-1.234722 0.097,0 -0.36215,0.555625 -1.02035,1.234722 -0.65821,0.679097 -1.27612,1.234722 -1.37313,1.234722 -0.097,0 0.36214,-0.555625 1.02035,-1.234722 z m 156.96713,-0.08819 -1.21573,-1.322917 1.32292,1.215732 c 1.23134,1.131574 1.48512,1.430101 1.21573,1.430101 -0.0589,0 -0.65427,-0.595312 -1.32292,-1.322916 z m -141.09213,0.836944 c 0,-0.07325 0.27781,-0.351067 0.61736,-0.617361 0.55953,-0.43881 0.57201,-0.426332 0.1332,0.133194 -0.46086,0.58764 -0.75056,0.774517 -0.75056,0.484167 z m 124.83834,-0.484167 c -0.43881,-0.559526 -0.42633,-0.572004 0.1332,-0.133194 0.58764,0.460858 0.77452,0.750556 0.48416,0.750556 -0.0733,0 -0.35106,-0.277813 -0.61736,-0.617362 z m -137.89112,-2.734028 c 0.4557,-0.485069 0.90792,-0.881944 1.00494,-0.881944 0.097,0 -0.19646,0.396875 -0.65216,0.881944 -0.4557,0.48507 -0.90792,0.881945 -1.00493,0.881945 -0.097,0 0.19645,-0.396875 0.65215,-0.881945 z m 151.31498,-0.08819 -0.85524,-0.970139 0.97014,0.855243 c 0.53357,0.470387 0.97013,0.906949 0.97013,0.970139 0,0.276676 -0.28568,0.0515 -1.08503,-0.855243 z m -149.3747,-1.499306 c 0.35119,-0.388055 0.7179,-0.705555 0.81491,-0.705555 0.097,0 -0.11095,0.3175 -0.46213,0.705555 -0.35119,0.388056 -0.7179,0.705556 -0.81491,0.705556 -0.097,0 0.11094,-0.3175 0.46213,-0.705556 z m 147.42761,-0.08819 -0.67204,-0.79375 0.79375,0.672038 c 0.74592,0.63155 0.95435,0.915462 0.67204,0.915462 -0.0669,0 -0.42414,-0.357188 -0.79375,-0.79375 z m -145.66372,-1.322917 c 0.35119,-0.388055 0.71789,-0.705556 0.81491,-0.705556 0.097,0 -0.11095,0.317501 -0.46213,0.705556 -0.35119,0.388056 -0.7179,0.705556 -0.81491,0.705556 -0.097,0 0.11094,-0.3175 0.46213,-0.705556 z m 143.89983,-0.08819 -0.67204,-0.79375 0.79375,0.672038 c 0.43656,0.369619 0.79375,0.726807 0.79375,0.79375 0,0.28231 -0.28391,0.07389 -0.91546,-0.672038 z M -272.924,41.783267 c 0,-0.07326 0.27781,-0.351067 0.61736,-0.617361 0.55953,-0.43881 0.57201,-0.426332 0.1332,0.133194 -0.46086,0.58764 -0.75056,0.774517 -0.75056,0.484167 z M -131.85788,41.2991 c -0.43881,-0.559526 -0.42633,-0.572004 0.1332,-0.133194 0.58764,0.460858 0.77451,0.750555 0.48416,0.750555 -0.0733,0 -0.35106,-0.277812 -0.61736,-0.617361 z m -119.89945,-0.592536 c 0,-0.09701 0.3175,-0.346311 0.70556,-0.553992 0.38805,-0.20768 0.70555,-0.298227 0.70555,-0.201213 0,0.09701 -0.3175,0.346311 -0.70555,0.553991 -0.38806,0.207681 -0.70556,0.298228 -0.70556,0.201214 z m 98.58063,-0.397065 c -0.65759,-0.526835 -0.65326,-0.533348 0.10896,-0.163975 0.43656,0.211557 0.79375,0.458438 0.79375,0.548626 0,0.269953 -0.18295,0.191996 -0.90271,-0.384651 z m -117.27785,-0.290121 c 0,-0.07326 0.27781,-0.351067 0.61736,-0.617361 0.55952,-0.43881 0.572,-0.426332 0.13319,0.133194 -0.46086,0.58764 -0.75055,0.774517 -0.75055,0.484167 z m 136.12723,-0.484167 c -0.43881,-0.559526 -0.42633,-0.572004 0.13319,-0.133194 0.58764,0.460858 0.77452,0.750555 0.48417,0.750555 -0.0733,0 -0.35107,-0.277812 -0.61736,-0.617361 z m -130.48279,-3.414758 c 0,-0.09701 0.3175,-0.346312 0.70556,-0.553992 0.38805,-0.20768 0.70555,-0.298228 0.70555,-0.201214 0,0.09701 -0.3175,0.346311 -0.70555,0.553992 -0.38806,0.20768 -0.70556,0.298228 -0.70556,0.201214 z m 3.52778,-2.116667 c 0,-0.09701 0.3175,-0.346312 0.70555,-0.553992 0.38806,-0.20768 0.70556,-0.298228 0.70556,-0.201214 0,0.09701 -0.3175,0.346312 -0.70556,0.553992 -0.38805,0.20768 -0.70555,0.298228 -0.70555,0.201214 z m 50.73386,-5.381089 c 0.25466,-0.101907 0.55893,-0.08938 0.67616,0.02783 0.11722,0.117224 -0.0911,0.200603 -0.46303,0.185286 -0.41096,-0.01693 -0.49455,-0.100521 -0.21313,-0.213134 z m 16.58055,0 c 0.25466,-0.101907 0.55894,-0.08938 0.67616,0.02783 0.11723,0.117224 -0.0911,0.200603 -0.46302,0.185286 -0.41097,-0.01693 -0.49456,-0.100521 -0.21314,-0.213134 z m -8.6651,-0.354972 c 0.33955,-0.08873 0.89517,-0.08873 1.23472,0 0.33955,0.08873 0.0617,0.161335 -0.61736,0.161335 -0.6791,0 -0.95691,-0.0726 -0.61736,-0.161335 z m -3.34728,-10.236882 c 0.43883,-0.08438 1.07383,-0.08118 1.41111,0.0071 0.33729,0.0883 -0.0218,0.157339 -0.79786,0.153423 -0.77611,-0.0039 -1.05207,-0.07616 -0.61325,-0.160542 z m 6.70278,0 c 0.43883,-0.08438 1.07383,-0.08118 1.41111,0.0071 0.33729,0.0883 -0.0218,0.157339 -0.79786,0.153423 -0.77611,-0.0039 -1.05207,-0.07616 -0.61325,-0.160542 z"
         id="path3854"
         inkscape:connector-curvature="0" />
      <path
         style="fill:#010101;stroke-width:0.35277781"
         d="m -208.71844,252.51959 c -50.6492,-2.91549 -93.93406,-38.32727 -106.71829,-87.30729 -2.73312,-10.47136 -3.7666,-18.65056 -3.7666,-29.80972 0,-23.56071 6.41547,-44.979834 19.37183,-64.676131 19.03893,-28.943048 49.86139,-47.786594 84.93945,-51.928385 6.62386,-0.782105 19.12893,-0.782105 25.75278,0 27.0206,3.190417 51.13267,14.790382 70.0352,33.692923 18.90254,18.902537 30.502509,43.014603 33.692926,70.035203 0.782105,6.62385 0.782105,19.12892 0,25.75278 -3.001419,25.41991 -13.085111,47.52861 -30.443496,66.74801 -3.03958,3.36545 -10.10593,9.98116 -10.66105,9.98116 -0.162,0 -1.72845,-1.69968 -3.48098,-3.77707 l -3.18643,-3.77707 2.18442,-1.91996 c 15.65342,-13.75833 27.50797,-33.21996 32.693606,-53.67312 2.316501,-9.13674 3.23722,-16.66193 3.23722,-26.45834 0,-9.79641 -0.920719,-17.3216 -3.23722,-26.45834 -7.228336,-28.509942 -26.290416,-53.118737 -52.205026,-67.395712 -12.29779,-6.775143 -26.42422,-11.159237 -40.92223,-12.700078 -2.03729,-0.216521 -6.79979,-0.393676 -10.58333,-0.393676 -9.79641,0 -17.3216,0.920719 -26.45834,3.23722 -28.50994,7.228333 -53.11874,26.290413 -67.39571,52.205026 -6.77514,12.297789 -11.15924,26.42422 -12.70008,40.92223 -0.50647,4.76539 -0.50647,16.40127 0,21.16666 2.64862,24.92129 13.42754,47.64584 30.87625,65.09455 17.44879,17.44878 40.16275,28.2229 65.09455,30.87688 4.68443,0.49866 16.78113,0.49573 21.12819,-0.005 1.8221,-0.20992 3.34404,-0.33791 3.38208,-0.28441 0.15546,0.21862 1.29629,9.86246 1.1804,9.97835 -0.25131,0.25132 -7.64145,0.85145 -12.28512,0.99763 -2.61937,0.0825 -6.90562,0.0266 -9.525,-0.12421 z"
         id="path3852"
         inkscape:connector-curvature="0" />
    </g>
  </g>
</svg>
